<?xml version="1.0" encoding="utf-8"?>
<!-- Generator: Adobe Illustrator 21.1.0, SVG Export Plug-In . SVG Version: 6.00 Build 0)  -->
<svg version="1.1" id="ceab21ea-7934-4e3a-bef5-350f6ed8a138"
	 xmlns="http://www.w3.org/2000/svg" xmlns:xlink="http://www.w3.org/1999/xlink" x="0px" y="0px" viewBox="0 0 48 48" width="60px" height="60px"
	 style="enable-background:new 0 0 48 48;" xml:space="preserve">
<style type="text/css">
	.st0{fill:#FFFFFF;}
	.st1{fill:#DC2B1C;}
</style>
<title>hazard-icons</title>
<g>
	<path class="st0" d="M44.1,24L24,44.1L3.9,24L24,3.9L44.1,24"/>
	<path d="M24.2,28.6c-1.5-0.1-2.9,1.1-3,2.7c-0.1,1.5,1.1,2.9,2.7,3c1.5,0.1,2.9-1.1,3-2.7c0,0,0-0.1,0-0.1
		C26.9,29.9,25.7,28.6,24.2,28.6"/>
	<path d="M20.7,13.9C20.7,13.9,20.7,13.9,20.7,13.9L20.7,13.9L20.7,13.9c0,0.2,0,0.2,0,0.3l1.6,11.1c0,1,0.8,1.8,1.8,1.8
		c1,0,1.8-0.8,1.8-1.8l1.6-11.1c0-0.1,0-0.2,0-0.3l0,0c0,0,0-0.1,0-0.1c0-1.3-1.5-2.3-3.5-2.3S20.6,12.6,20.7,13.9"/>
	<path class="st1" d="M0.1,24L24,47.9L47.9,24L24,0.1L0.1,24 M44.1,24L24,44.1L3.9,24L24,3.9L44.1,24z"/>
</g>
</svg>
