<?xml version="1.0" encoding="utf-8"?>
<!-- Generator: Adobe Illustrator 21.1.0, SVG Export Plug-In . SVG Version: 6.00 Build 0)  -->
<svg version="1.1" id="_x39_d5dd527-9cc5-4ada-a252-172eab531232"
	 xmlns="http://www.w3.org/2000/svg" xmlns:xlink="http://www.w3.org/1999/xlink" x="0px" y="0px" viewBox="0 0 48 48" width="60px" height="60px"
	 style="enable-background:new 0 0 48 48;" xml:space="preserve">
<style type="text/css">
	.st0{fill:#FFFFFF;}
	.st1{fill:#DC2B1C;}
	.st2{fill:none;stroke:#DC2B1C;stroke-width:7.000000e-02;}
</style>
<title>hazard-icons</title>
<g>
	<path class="st0" d="M44.1,24L24,44.1L3.9,24L24,3.9L44.1,24"/>
	<path class="st1" d="M0.1,24L24,47.9L47.9,24L24,0.1L0.1,24 M44.1,24L24,44.1L3.9,24L24,3.9L44.1,24z"/>
	<path class="st2" d="M44.1,24L24,44.1L3.9,24L24,3.9L44.1,24z"/>
	<rect x="14.4" y="23.8" width="18.7" height="0.3"/>
	<path d="M17,28.8l2.3-1.3l0.1-5.7l-2.8-1.5c-0.3-0.2-0.7-0.2-1-0.1c-0.2,0.1-0.5,0.1-0.5,0.1s1.5-1.3,1.8-1.2s2.3,1.1,2.3,1.1
		s-0.2-1.5-0.8-1.9l-2.6-2.1v-0.4l2.8,1.7c0.1-0.9-0.1-1.8-0.5-2.6c-0.6-1-1-1.8-1-1.8l0.2-0.1l1.4,2.2l0.5-1.5l0.3-0.1
		c-0.2,0.9-0.2,1.8-0.1,2.7c0.2,0.6,1.2,4.2,1.2,4.2l1.4-2c0-0.5,0-0.9,0-1.4c-0.1-0.6-0.2-3.2-0.2-3.2H22l0.4,2.9l2.3-2.6v0.3
		c0,0-2.2,2.8-2.1,3.4c0.2,0.6,0.1,1.3-0.2,1.8c-0.4,0.9-0.6,1.5-0.6,1.5s1.2-1.4,1.7-1.5c0.6,0.1,1.2-0.1,1.8-0.4
		c0.5-0.4,1.7-1.8,1.7-1.8l-2,2.8c-0.5,0-0.9,0.2-1.3,0.4c-0.4,0.4-1.8,2.1-1.8,2.1v3.9l2.4,1.2l-3,0.4l-0.7,1l-1-0.8L17,28.8"/>
	<path d="M17,28.8l2.3-1.3l0.1-5.7l-2.8-1.5c-0.3-0.2-0.7-0.2-1-0.1c-0.2,0.1-0.5,0.1-0.5,0.1s1.5-1.3,1.8-1.2s2.3,1.1,2.3,1.1
		s-0.2-1.5-0.8-1.9l-2.6-2.1v-0.4l2.8,1.7c0.1-0.9-0.1-1.8-0.5-2.6c-0.6-1-1-1.8-1-1.8l0.2-0.1l1.4,2.2l0.5-1.5l0.3-0.1
		c-0.2,0.9-0.2,1.8-0.1,2.7c0.2,0.6,1.2,4.2,1.2,4.2l1.4-2c0-0.5,0-0.9,0-1.4c-0.1-0.6-0.2-3.2-0.2-3.2H22l0.4,2.9l2.3-2.6v0.3
		c0,0-2.2,2.8-2.1,3.4c0.2,0.6,0.1,1.3-0.2,1.8c-0.4,0.9-0.6,1.5-0.6,1.5s1.2-1.4,1.7-1.5c0.6,0.1,1.2-0.1,1.8-0.4
		c0.5-0.4,1.7-1.8,1.7-1.8l-2,2.8c-0.5,0-0.9,0.2-1.3,0.4c-0.4,0.4-1.8,2.1-1.8,2.1v3.9l2.4,1.2l-3,0.4l-0.7,1l-1-0.8L17,28.8z"/>
	<path d="M14.5,32.2c0,0,3.3-1,3.8-0.6c0.7-0.3,6-2.5,6-2.4s6-1.9,6-1.9l2.2,1.6l-2.1,1l2.8,0.2l-0.8,1H34v1.1H14.5"/>
	<path d="M14.5,32.2c0,0,3.3-1,3.8-0.6c0.7-0.3,6-2.5,6-2.4s6-1.9,6-1.9l2.2,1.6l-2.1,1l2.8,0.2l-0.8,1H34v1.1H14.5z"/>
	<path class="st0" d="M21.8,29.4c0.5,0,0.9-0.1,1.4-0.2c1-0.3,1.8-0.9,2.4-1.7c0.7-1,3-5,6.3-4.7c-0.2,0.5-0.5,0.9-0.8,1.4l2.3-0.7
		c0,0,0,3.1-4.4,5.1c-2,0.7-2.5,0.8-2.7,1s-1,1.5-1,1.5L21.8,29.4"/>
	<path d="M25.5,31.2l-3.8-1.7l0.1-0.3c0.4,0,0.9-0.1,1.3-0.2c0.9-0.3,1.7-0.9,2.4-1.6l0.2-0.3c0.9-1.3,3.2-4.8,6.3-4.5h0.2l-0.1,0.2
		c-0.2,0.3-0.3,0.7-0.5,1l2.1-0.7v0.2c0,0.1,0,3.3-4.5,5.3c-0.7,0.3-1.3,0.5-1.7,0.6c-0.6,0.2-0.9,0.2-1,0.3s-0.9,1.4-0.9,1.4
		L25.5,31.2z M22.5,29.5l2.9,1.3c0.2-0.3,0.8-1.2,0.9-1.4s0.4-0.3,1.1-0.5c0.4-0.1,0.9-0.3,1.6-0.5c3.6-1.6,4.2-3.9,4.2-4.7
		l-2.5,0.8L31,24c0,0,0.4-0.7,0.6-1.1h-0.1c-2.7,0-4.8,3.1-5.6,4.4l-0.2,0.3c-0.7,0.8-1.5,1.4-2.5,1.8C23,29.4,22.7,29.4,22.5,29.5
		L22.5,29.5z"/>
</g>
<path d="M23.6,24c0-0.2,0.1-0.4,0.3-0.5s0.4,0.1,0.5,0.3s-0.1,0.4-0.3,0.5c0,0,0,0-0.1,0C23.8,24.4,23.6,24.2,23.6,24"/>
</svg>
