<?xml version="1.0" encoding="utf-8"?>
<!-- Generator: Adobe Illustrator 21.1.0, SVG Export Plug-In . SVG Version: 6.00 Build 0)  -->
<svg version="1.1" id="b1bee517-7860-41a3-8bf4-aa0118a6da60"
	 xmlns="http://www.w3.org/2000/svg" xmlns:xlink="http://www.w3.org/1999/xlink" x="0px" y="0px" viewBox="0 0 48 48" width="60px" height="60px"
	 style="enable-background:new 0 0 48 48;" xml:space="preserve">
<style type="text/css">
	.st0{fill:#FFFFFF;}
	.st1{fill:#151616;}
	.st2{fill:#DC2B1C;}
</style>
<title>hazard-icons</title>
<g>
	<path class="st0" d="M44.1,24L24,44.1L3.9,24L24,3.9L44.1,24"/>
	<path class="st1" d="M15.1,25.1c-0.6,0.1-1.1-0.2-1.4-0.7H8.4v2.4h13.3v-2.4h-4.8C16.3,24.9,15.7,25.1,15.1,25.1"/>
	<path d="M15.1,25.1c-0.6,0.1-1.1-0.2-1.4-0.7H8.4v2.4h13.3v-2.4h-4.8C16.3,24.9,15.7,25.1,15.1,25.1z"/>
	<path class="st1" d="M16.3,24.2c0.2,0,0.5-0.1,0.8-0.6c0.1-0.1,0.1-0.3,0.1-0.4c0-0.1,0-0.2,0-0.3l0.1-0.1c0.2-0.1,0.3-0.2,0.5-0.4
		c0.1-0.1,0.1-0.2,0.1-0.4c0-0.1,0-0.2,0-0.2c0-0.1,0-0.2,0-0.2c0,0,0,0,0-0.1c0.1-0.3,0.3-0.5,0.5-0.6L18,20.6
		c-0.3,0.3-0.5,0.6-0.6,1c0,0.1,0,0.3,0,0.4c0,0.1,0,0.2,0,0.3c0,0-0.1,0.1-0.2,0.1c-0.1,0-0.3,0.1-0.4,0.3
		c-0.1,0.1-0.1,0.3-0.1,0.5c0,0.1,0,0.2,0,0.2c0,0.1-0.1,0.1-0.1,0.2c0,0.1-0.1,0.2-0.2,0.4L16.3,24.2"/>
	<path d="M16.3,24.2c0.2,0,0.5-0.1,0.8-0.6c0.1-0.1,0.1-0.3,0.1-0.4c0-0.1,0-0.2,0-0.3l0.1-0.1c0.2-0.1,0.3-0.2,0.5-0.4
		c0.1-0.1,0.1-0.2,0.1-0.4c0-0.1,0-0.2,0-0.2c0-0.1,0-0.2,0-0.2c0,0,0,0,0-0.1c0.1-0.3,0.3-0.5,0.5-0.6L18,20.6
		c-0.3,0.3-0.5,0.6-0.6,1c0,0.1,0,0.3,0,0.4c0,0.1,0,0.2,0,0.3c0,0-0.1,0.1-0.2,0.1c-0.1,0-0.3,0.1-0.4,0.3
		c-0.1,0.1-0.1,0.3-0.1,0.5c0,0.1,0,0.2,0,0.2c0,0.1-0.1,0.1-0.1,0.2c0,0.1-0.1,0.2-0.2,0.4L16.3,24.2z"/>
	<path class="st1" d="M15.6,23.9l0.3,0.4c0.3-0.2,0.4-0.4,0.5-0.7v-0.1c0-0.1,0-0.3,0-0.4c0-0.1,0-0.2,0-0.3c0-0.1,0.1-0.2,0.2-0.2
		c0.1-0.1,0.2-0.2,0.3-0.3c0.1-0.2,0.1-0.4,0-0.6c0-0.1-0.1-0.3,0-0.4l-0.5-0.1c0,0.1,0,0.1,0,0.2c0,0.2,0,0.3,0.1,0.5
		c0,0.1,0,0.2,0,0.3l0,0c0,0.1-0.1,0.1-0.1,0.1c-0.1,0.1-0.3,0.2-0.3,0.4c0,0.1-0.1,0.2-0.1,0.3c0,0.1,0,0.2,0,0.3c0,0,0,0.1,0,0.1
		C15.9,23.5,15.7,23.7,15.6,23.9"/>
	<path d="M15.6,23.9l0.3,0.4c0.3-0.2,0.4-0.4,0.5-0.7v-0.1c0-0.1,0-0.3,0-0.4c0-0.1,0-0.2,0-0.3c0-0.1,0.1-0.2,0.2-0.2
		c0.1-0.1,0.2-0.2,0.3-0.3c0.1-0.2,0.1-0.4,0-0.6c0-0.1-0.1-0.3,0-0.4l-0.5-0.1c0,0.1,0,0.1,0,0.2c0,0.2,0,0.3,0.1,0.5
		c0,0.1,0,0.2,0,0.3l0,0c0,0.1-0.1,0.1-0.1,0.1c-0.1,0.1-0.3,0.2-0.3,0.4c0,0.1-0.1,0.2-0.1,0.3c0,0.1,0,0.2,0,0.3c0,0,0,0.1,0,0.1
		C15.9,23.5,15.8,23.7,15.6,23.9z"/>
	<path class="st1" d="M13.4,22.8c0,0.1,0.1,0.1,0.1,0.2c0.1,0,0.1,0.1,0.1,0.1c0,0.1,0,0.2,0,0.3v0.1c0.1,0.1,0.3,0.2,0.4,0.3
		l-0.2,0.4c0.1,0.1,0.2,0.3,0.3,0.4l0.4-0.3c-0.2-0.2-0.3-0.4-0.4-0.6l0,0c0,0,0-0.1,0-0.2c0-0.1,0-0.2,0-0.3c0-0.1,0-0.2,0-0.3
		c-0.1-0.2-0.2-0.3-0.4-0.4c-0.1,0-0.2-0.1-0.2-0.1s0,0,0,0c0-0.1,0-0.1,0-0.2c0.1-0.2,0.1-0.4,0.1-0.5c0,0,0-0.1,0-0.1h-0.5
		c0,0.2,0,0.3-0.1,0.5c-0.1,0.1-0.1,0.3-0.1,0.4l0,0C13.2,22.6,13.3,22.7,13.4,22.8"/>
	<path d="M13.4,22.8c0,0.1,0.1,0.1,0.1,0.2c0.1,0,0.1,0.1,0.1,0.1c0,0.1,0,0.2,0,0.3v0.1c0.1,0.1,0.3,0.2,0.4,0.3l-0.2,0.4
		c0.1,0.1,0.2,0.3,0.3,0.4l0.4-0.3c-0.2-0.2-0.3-0.4-0.4-0.6l0,0c0,0,0-0.1,0-0.2c0-0.1,0-0.2,0-0.3c0-0.1,0-0.2,0-0.3
		c-0.1-0.2-0.2-0.3-0.4-0.4c-0.1,0-0.2-0.1-0.2-0.1s0,0,0,0c0-0.1,0-0.1,0-0.2c0.1-0.2,0.1-0.4,0.1-0.5c0,0,0-0.1,0-0.1h-0.5
		c0,0.2,0,0.3-0.1,0.5c-0.1,0.1-0.1,0.3-0.1,0.4l0,0C13.2,22.6,13.3,22.7,13.4,22.8z"/>
	<path class="st1" d="M12.3,21.8c0,0.1,0,0.2,0,0.2c-0.1,0.2-0.1,0.4,0,0.5c0.1,0.2,0.2,0.3,0.4,0.4c0.1,0,0.2,0.1,0.2,0.1
		c0,0.1,0,0.1,0,0.2c0,0.1,0,0.3,0.1,0.4c0.2,0.3,0.4,0.5,0.7,0.6v-0.1l0.2-0.4c-0.2-0.1-0.3-0.2-0.4-0.3l-0.1-0.1c0,0,0,0,0-0.1
		c0-0.1,0-0.2,0-0.3c0-0.1,0-0.1-0.1-0.2c-0.1-0.1-0.2-0.3-0.4-0.3h-0.1c-0.1,0-0.1-0.1-0.2-0.1s0-0.1,0-0.2c0-0.1,0-0.3,0-0.4
		c-0.1-0.3-0.2-0.6-0.5-0.9l-0.1-0.2l-0.4,0.3l0.2,0.2C12,21.4,12.2,21.6,12.3,21.8"/>
	<path d="M12.3,21.8c0,0.1,0,0.2,0,0.2c-0.1,0.2-0.1,0.4,0,0.5c0.1,0.2,0.2,0.3,0.4,0.4c0.1,0,0.2,0.1,0.2,0.1c0,0.1,0,0.1,0,0.2
		c0,0.1,0,0.3,0.1,0.4c0.2,0.3,0.4,0.5,0.7,0.6v-0.1l0.2-0.4c-0.2-0.1-0.3-0.2-0.4-0.3l-0.1-0.1c0,0,0,0,0-0.1c0-0.1,0-0.2,0-0.3
		c0-0.1,0-0.1-0.1-0.2c-0.1-0.1-0.2-0.3-0.4-0.3h-0.1c-0.1,0-0.1-0.1-0.2-0.1s0-0.1,0-0.2c0-0.1,0-0.3,0-0.4
		c-0.1-0.3-0.2-0.6-0.5-0.9l-0.1-0.2l-0.4,0.3l0.2,0.2C12.1,21.4,12.2,21.6,12.3,21.8z"/>
	<path class="st1" d="M14.6,22.1c0,0.4,0.1,0.9,0.6,0.9s0.6-0.6,0.6-0.8s-0.3-1.1-0.4-2c-0.1,0-0.2,0-0.3-0.1
		C14.9,20.8,14.8,21.5,14.6,22.1"/>
	<path d="M14.6,22.1c0,0.4,0.1,0.9,0.6,0.9s0.6-0.6,0.6-0.8s-0.3-1.1-0.4-2c-0.1,0-0.2,0-0.3-0.1C14.9,20.8,14.8,21.5,14.6,22.1z"/>
	<path class="st1" d="M21.8,14.7c-1,0.2-5.6,1-6,1.1c-0.6,0.1-0.8-0.5-1.1-0.6c0,0,0.4,2.6,0.5,2.8c0.1,0.7-0.4,1-0.4,1.6
		c0,0.3,0.1,0.5,0.3,0.7c0.1,0.1,0.2,0.1,0.3,0.1l0,0c0.4,0,0.5-0.5,0.5-0.8c0-0.3-0.1-0.7-0.3-1c0-0.1,0.1-0.3,0.5-0.3l6.2-1.1
		c0.7-0.1,1.3-0.7,1.3-1.4C23.5,14.9,22.8,14.5,21.8,14.7 M22.1,16.5c-0.7,0-6.6,0.6-6.6,0.6l-0.1-0.8l6.6-1.1
		c0.7-0.1,1.2,0.2,1.2,0.6C23.1,16.2,22.8,16.5,22.1,16.5L22.1,16.5z"/>
	<path d="M22.1,16.6c-0.7,0-6.6,0.6-6.6,0.6l-0.1-0.8l6.6-1.1c0.7-0.1,1.2,0.2,1.2,0.6C23.1,16.3,22.8,16.5,22.1,16.6z"/>
	<path d="M21.8,14.7c-1,0.2-5.6,1-6,1.1c-0.6,0.1-0.8-0.5-1.1-0.6c0,0,0.4,2.6,0.5,2.8c0.1,0.7-0.4,1-0.4,1.6c0,0.3,0.1,0.5,0.3,0.7
		c0.1,0.1,0.2,0.1,0.3,0.1l0,0c0.4,0,0.5-0.5,0.5-0.8c0-0.3-0.1-0.7-0.2-1c0-0.1,0.1-0.3,0.5-0.3l6.2-1.1c0.7-0.1,1.3-0.7,1.3-1.4
		C23.5,15,22.8,14.5,21.8,14.7z"/>
	<path class="st1" d="M32.7,19.9c-0.1,0.7-0.4,1.4-0.4,1.6s0.1,0.9,0.5,0.9s0.6-0.5,0.6-0.9s-0.3-0.8-0.4-1.5
		C33,19.9,32.9,19.9,32.7,19.9L32.7,19.9"/>
	<path d="M32.7,19.9c-0.1,0.7-0.4,1.4-0.4,1.6s0.1,0.9,0.5,0.9s0.6-0.5,0.6-0.9s-0.3-0.8-0.4-1.5C33,19.9,32.9,19.9,32.7,19.9
		L32.7,19.9z"/>
	<path class="st1" d="M25.4,17l6.8,1.1c0.2,0,0.4,0.2,0.4,0.2c-0.1,0.2-0.2,0.5-0.2,0.7c0,0.3,0,0.8,0.4,0.9h0.1c0.1,0,0.2,0,0.2,0
		c0.3-0.2,0.4-0.5,0.4-0.8c0-0.7-0.4-0.6-0.3-1.3c0-0.2,0.4-2.7,0.4-2.7c-0.3,0.1-0.4,0.6-1,0.5c-0.4-0.1-5.6-1-6.6-1.2
		c-0.8-0.2-1.6,0.2-1.8,1c0,0,0,0,0,0C24.1,16.3,24.6,16.9,25.4,17 M26,15l6.9,1.2L32.7,17c0,0-6.4-0.6-7.1-0.6s-1-0.3-1-0.7
		S25.2,14.9,26,15z"/>
	<path d="M26,15l6.9,1.2L32.7,17c0,0-6.4-0.6-7.1-0.6s-1-0.3-1-0.7S25.2,14.9,26,15z"/>
	<path d="M25.4,17l6.8,1.1c0.2,0,0.4,0.2,0.4,0.2c-0.1,0.2-0.2,0.5-0.2,0.7c0,0.3,0,0.8,0.4,0.9h0.1c0.1,0,0.2,0,0.2,0
		c0.3-0.2,0.4-0.5,0.4-0.8c0-0.7-0.4-0.6-0.3-1.3c0-0.2,0.4-2.7,0.4-2.7c-0.3,0.1-0.4,0.6-1,0.5c-0.4-0.1-5.6-1-6.6-1.2
		c-0.8-0.2-1.6,0.2-1.8,1c0,0,0,0,0,0C24.1,16.3,24.6,16.9,25.4,17z"/>
	<path class="st1" d="M35,20.7c0,0.1,0,0.1,0,0.2c-0.1,0.2-0.2,0.3-0.4,0.4l0.1,0.5c0.3-0.1,0.6-0.4,0.8-0.7
		c0.1-0.1,0.1-0.3,0.1-0.4c0-0.1,0-0.2,0.1-0.2c0-0.1,0.1-0.1,0.1-0.1c0.2,0,0.3-0.2,0.4-0.3c0.1-0.2,0.1-0.4,0.1-0.7
		c0-0.1,0-0.2,0-0.2c0-0.1,0.1-0.2,0.2-0.4c0.1-0.1,0.2-0.2,0.3-0.3l-0.4-0.3c-0.1,0.1-0.2,0.2-0.2,0.3c-0.2,0.2-0.3,0.4-0.4,0.6
		c0,0.1,0,0.3,0,0.4c0,0.1,0,0.2,0,0.3c0,0.1,0,0.1-0.1,0.1c-0.2,0-0.3,0.2-0.4,0.3C35.1,20.4,35,20.6,35,20.7"/>
	<path d="M35,20.7c0,0.1,0,0.1,0,0.2c-0.1,0.2-0.2,0.3-0.4,0.4l0.1,0.5c0.3-0.1,0.6-0.4,0.8-0.7c0.1-0.1,0.1-0.3,0.1-0.4
		c0-0.1,0-0.2,0.1-0.2c0-0.1,0.1-0.1,0.1-0.1c0.2,0,0.3-0.2,0.4-0.3c0.1-0.2,0.1-0.4,0.1-0.7c0-0.1,0-0.2,0-0.2
		c0-0.1,0.1-0.2,0.2-0.4c0.1-0.1,0.2-0.2,0.3-0.3l-0.4-0.3c-0.1,0.1-0.2,0.2-0.2,0.3c-0.2,0.2-0.3,0.4-0.4,0.6c0,0.1,0,0.3,0,0.4
		c0,0.1,0,0.2,0,0.3c0,0.1,0,0.1-0.1,0.1c-0.2,0-0.3,0.2-0.4,0.3C35.1,20.4,35,20.5,35,20.7z"/>
	<path class="st1" d="M34.1,21.6c0.2-0.2,0.4-0.4,0.4-0.6c0-0.2,0-0.3,0-0.5c0-0.1,0-0.2,0-0.3c0-0.1,0-0.1,0.1-0.1
		c0.2-0.1,0.3-0.3,0.4-0.5c0.1-0.2,0-0.4-0.1-0.6c-0.1-0.1-0.1-0.2,0-0.3l-0.5-0.1c0,0.2,0,0.4,0.1,0.6c0,0.1,0,0.2,0,0.3
		c0,0.1-0.1,0.1-0.1,0.1c-0.2,0.1-0.3,0.2-0.3,0.4c0,0.2,0,0.3,0,0.5c0,0.1,0,0.2,0,0.3c0,0.2-0.1,0.3-0.3,0.4l-0.1,0.1l0.3,0.4
		L34.1,21.6"/>
	<path d="M34.1,21.6c0.2-0.2,0.4-0.4,0.4-0.6c0-0.2,0-0.3,0-0.5c0-0.1,0-0.2,0-0.3c0-0.1,0-0.1,0.1-0.1c0.2-0.1,0.3-0.3,0.4-0.5
		c0.1-0.2,0-0.4-0.1-0.6c-0.1-0.1-0.1-0.2,0-0.3l-0.5-0.1c0,0.2,0,0.4,0.1,0.6c0,0.1,0,0.2,0,0.3c0,0.1-0.1,0.1-0.1,0.1
		c-0.2,0.1-0.3,0.2-0.3,0.4c0,0.2,0,0.3,0,0.5c0,0.1,0,0.2,0,0.3c0,0.2-0.1,0.3-0.3,0.4l-0.1,0.1l0.3,0.4L34.1,21.6z"/>
	<path class="st1" d="M30.3,19.9c0.1,0.2,0.2,0.4,0.4,0.5c0.1,0.1,0.2,0.1,0.2,0.2c0,0.1,0,0.1,0,0.2c0,0.1,0,0.3,0,0.4
		c0.1,0.3,0.3,0.6,0.5,0.8l0.4-0.4c-0.3-0.3-0.4-0.4-0.4-0.6c0,0,0-0.1,0-0.1c0-0.2,0-0.3,0-0.5c0-0.2-0.2-0.4-0.4-0.5
		c-0.1-0.1-0.1-0.1-0.1-0.1c0-0.1,0-0.2,0-0.3c0.1-0.2,0.1-0.4,0.1-0.6L30.4,19c0,0.1,0,0.2-0.1,0.4C30.3,19.5,30.3,19.7,30.3,19.9"
		/>
	<path d="M30.3,19.9c0.1,0.2,0.2,0.4,0.4,0.5c0.1,0.1,0.2,0.1,0.2,0.2c0,0.1,0,0.1,0,0.2c0,0.1,0,0.3,0,0.4c0.1,0.3,0.3,0.6,0.5,0.8
		l0.4-0.4c-0.3-0.3-0.4-0.4-0.4-0.6c0,0,0-0.1,0-0.1c0-0.2,0-0.3,0-0.5c0-0.2-0.2-0.4-0.4-0.5c-0.1-0.1-0.1-0.1-0.1-0.1
		c0-0.1,0-0.2,0-0.3c0.1-0.2,0.1-0.4,0.1-0.6L30.4,19c0,0.1,0,0.2-0.1,0.4C30.3,19.5,30.3,19.7,30.3,19.9z"/>
	<path class="st1" d="M30,19.8c0-0.1,0-0.2-0.1-0.3c-0.1-0.2-0.2-0.5-0.4-0.6l-0.1-0.2L29,19l0.2,0.2c0.1,0.1,0.2,0.3,0.3,0.5
		c0,0.1,0,0.2,0,0.3c0,0.2,0,0.4,0,0.6c0.1,0.2,0.2,0.3,0.4,0.4c0.1,0,0.1,0,0.1,0.1c0,0.1,0,0.1,0,0.2c0,0.1,0,0.2,0,0.4
		c0.1,0.2,0.4,0.7,0.8,0.8l0.1-0.5c-0.1,0-0.3-0.2-0.4-0.5l0,0l0,0c0-0.1,0-0.1,0-0.2c0-0.1,0-0.2-0.1-0.4c-0.1-0.2-0.2-0.3-0.4-0.4
		c-0.1,0-0.1,0-0.1-0.1c0,0,0-0.1,0-0.1c0-0.1,0.1-0.1,0.1-0.2C30,19.9,30,19.8,30,19.8"/>
	<path d="M30,19.8c0-0.1,0-0.2-0.1-0.3c-0.1-0.2-0.2-0.5-0.4-0.6l-0.1-0.2L29,19l0.2,0.2c0.1,0.1,0.2,0.3,0.3,0.5c0,0.1,0,0.2,0,0.3
		c0,0.2,0,0.4,0,0.6c0.1,0.2,0.2,0.3,0.4,0.4c0.1,0,0.1,0,0.1,0.1c0,0.1,0,0.1,0,0.2c0,0.1,0,0.2,0,0.4c0.1,0.2,0.4,0.7,0.8,0.8
		l0.1-0.5c-0.1,0-0.3-0.2-0.4-0.5l0,0l0,0c0-0.1,0-0.1,0-0.2c0-0.1,0-0.2-0.1-0.4c-0.1-0.2-0.2-0.3-0.4-0.4c-0.1,0-0.1,0-0.1-0.1
		c0,0,0-0.1,0-0.1c0-0.1,0.1-0.1,0.1-0.2C30,19.9,30,19.8,30,19.8z"/>
	<path class="st1" d="M33.3,22.7c-0.7,0.4-1.6,0.4-2.2-0.1L31,22.5l-0.1,0.1c-0.2,0.1-0.5,0.1-0.8,0.1c-0.3,0-0.6,0-0.7,0.2
		c-0.1,0.2-0.1,0.4,0,0.5l0.1,0.1h1.1c-0.3,0-0.5-0.1-0.7-0.3h0.2c0.3,0,0.6,0,0.8-0.1c0.3,0.2,0.7,0.4,1,0.4c0.3-0.3,0.6-0.4,1-0.4
		v0.4c0.2,0,0.4-0.1,0.6-0.2c0.3,0.2,0.6,0.3,0.9,0.5c0.1,0.1,0.3,0.2,0.4,0.2c0.6,0.1,1.2,0.2,1.8,0.2v-0.5c-0.6,0-1.1-0.1-1.6-0.2
		l-0.3-0.2c-0.4-0.2-0.7-0.4-1.1-0.6L33.3,22.7L33.3,22.7"/>
	<path d="M33.3,22.7c-0.7,0.4-1.6,0.4-2.2-0.1L31,22.5l-0.1,0.1c-0.2,0.1-0.5,0.1-0.8,0.1c-0.3,0-0.6,0-0.7,0.2
		c-0.1,0.2-0.1,0.4,0,0.5l0.1,0.1h1.1c-0.3,0-0.5-0.1-0.7-0.3h0.2c0.3,0,0.6,0,0.8-0.1c0.3,0.2,0.7,0.4,1,0.4c0.3-0.3,0.6-0.4,1-0.4
		v0.4c0.2,0,0.4-0.1,0.6-0.2c0.3,0.2,0.6,0.3,0.9,0.5c0.1,0.1,0.3,0.2,0.4,0.2c0.6,0.1,1.2,0.2,1.8,0.2v-0.5c-0.6,0-1.1-0.1-1.6-0.2
		l-0.3-0.2c-0.4-0.2-0.7-0.4-1.1-0.6L33.3,22.7L33.3,22.7z"/>
	<path class="st1" d="M30.6,23.5h-1.9c-0.9,0-1,0.5-1,0.7c0,0.1,0,0.1,0,0.2h0.8c-0.2,0-0.3-0.1-0.3-0.2s0.1-0.2,0.5-0.2h3.1
		c0-0.2,0.1-0.4,0.2-0.5L30.6,23.5"/>
	<path d="M30.6,23.5h-1.9c-0.9,0-1,0.5-1,0.7c0,0.1,0,0.1,0,0.2h0.8c-0.2,0-0.3-0.1-0.3-0.2s0.1-0.2,0.5-0.2h3.1
		c0-0.2,0.1-0.4,0.2-0.5L30.6,23.5z"/>
	<path class="st1" d="M32.2,24L32.2,24l1.6-0.4L33,23.5l0,0l0,0C33,23.5,32.4,23.5,32.2,24"/>
	<path d="M32.2,24L32.2,24l1.6-0.4L33,23.5l0,0l0,0C33,23.5,32.3,23.6,32.2,24z"/>
	<path class="st1" d="M27.4,24.4c-0.4,0-0.8,0.3-0.8,0.8c0,0.4,0.4,0.8,0.9,0.8h0.2c0-0.2,0.2-0.5,0.8-0.5h-0.9
		c-0.2,0-0.3-0.1-0.3-0.2c0-0.1,0.2-0.2,0.3-0.2h3.3v-0.5H27.4"/>
	<path d="M27.4,24.4c-0.4,0-0.8,0.3-0.8,0.8c0,0.4,0.4,0.8,0.9,0.8h0.2c0-0.2,0.2-0.5,0.8-0.5h-0.9c-0.2,0-0.3-0.1-0.3-0.2
		c0-0.1,0.2-0.2,0.3-0.2h3.3v-0.5H27.4z"/>
	<path class="st1" d="M27.6,25.9c0,0,0,0.1,0,0.1c0,0.4,0.4,0.8,1,0.8l0,0c0.2-0.3,0.5-0.5,0.9-0.5h-0.9c-0.3,0-0.5-0.2-0.5-0.2
		s0.2-0.1,0.4-0.1h2.2v-0.5h-2.4C27.8,25.4,27.7,25.7,27.6,25.9"/>
	<path d="M27.6,25.9c0,0,0,0.1,0,0.1c0,0.4,0.4,0.8,1,0.8l0,0c0.2-0.3,0.5-0.5,0.9-0.5h-0.9c-0.3,0-0.5-0.2-0.5-0.2s0.2-0.1,0.4-0.1
		h2.2v-0.5h-2.4C27.8,25.5,27.7,25.8,27.6,25.9z"/>
	<path class="st1" d="M28.6,26.8c0,0.1,0,0.1,0,0.2c0,0.3,0.3,0.7,0.9,0.7c0.5,0,2.5,0.1,2.8,0.1c0.7,0,1.5-0.1,2.2-0.2
		c0.2-0.1,0.4-0.1,0.5-0.2c0.5-0.2,1-0.4,1.5-0.3v-0.5c-0.6,0-1.2,0.1-1.7,0.4c-0.1,0.1-0.3,0.1-0.5,0.2c-0.7,0.1-1.4,0.2-2.1,0.2
		c-0.3,0-2.3-0.1-2.8-0.1S29.1,27,29.1,27s0.2-0.2,0.5-0.2h2l-0.5-0.5h-1.7C29.2,26.3,28.8,26.5,28.6,26.8"/>
	<path d="M28.6,26.8c0,0.1,0,0.1,0,0.2c0,0.3,0.3,0.7,0.9,0.7c0.5,0,2.5,0.1,2.8,0.1c0.7,0,1.5-0.1,2.2-0.2c0.2-0.1,0.4-0.1,0.5-0.2
		c0.5-0.2,1-0.4,1.5-0.3v-0.5c-0.6,0-1.2,0.1-1.7,0.4c-0.1,0.1-0.3,0.1-0.5,0.2c-0.7,0.1-1.4,0.2-2.1,0.2c-0.3,0-2.3-0.1-2.8-0.1
		S29.1,27,29.1,27s0.2-0.2,0.5-0.2h2l-0.5-0.5h-1.7C29.2,26.3,28.8,26.5,28.6,26.8z"/>
	<path class="st1" d="M31.9,23.5L31.9,23.5c-0.1,0.1-0.2,0.3-0.2,0.5c0,0,0,0.1,0,0.1c0,0.5,0.2,1.3,1.9,1.5l0.1-0.5
		c-0.5-0.1-1.5-0.3-1.5-1c0,0,0-0.1,0-0.1c0.1-0.4,0.7-0.5,0.7-0.5v-0.5C32.6,23.1,32.2,23.2,31.9,23.5"/>
	<path d="M31.9,23.5L31.9,23.5c-0.1,0.1-0.2,0.3-0.2,0.5c0,0,0,0.1,0,0.1c0,0.5,0.2,1.3,1.9,1.5l0.1-0.5c-0.5-0.1-1.5-0.3-1.5-1
		c0,0,0-0.1,0-0.1c0.1-0.4,0.7-0.5,0.7-0.5v-0.5C32.6,23.1,32.2,23.2,31.9,23.5z"/>
	<path class="st2" d="M0.1,24L24,47.9L47.9,24L24,0.1L0.1,24 M44.1,24L24,44.1L3.9,24L24,3.9L44.1,24z"/>
</g>
</svg>
