<!-- Generator: Adobe Illustrator 24.3.0, SVG Export Plug-In  -->
<svg version="1.1" xmlns="http://www.w3.org/2000/svg" xmlns:xlink="http://www.w3.org/1999/xlink" x="0px" y="0px" width="278.2px"
	 height="128.5px" viewBox="0 0 278.2 128.5" style="overflow:visible;enable-background:new 0 0 278.2 128.5;"
	 xml:space="preserve">
<style type="text/css">
	.st0{fill:#0071BC;}
	.st1{fill:#F2F2F2;}
	.st2{fill:#FFFFFF;}
</style>
<defs>
</defs>
<path class="st0" d="M116,128H12c-6.6,0-12-5.4-12-12V12C0,5.4,5.4,0,12,0h104c6.6,0,12,5.4,12,12v104C128,122.6,122.6,128,116,128z
	"/>
<g>
	<path class="st1" d="M15.5,56.4l-2.3-4.5l6.5-3.5h5.5v27.3h-6.2v-21L15.5,56.4z"/>
	<path class="st1" d="M29.7,62c0-7.9,4.1-14,11-14c6.8,0,10.9,6,10.9,14c0,7.9-4,14-10.9,14C33.7,76,29.7,70,29.7,62z M45.2,62
		c0-4.9-1.4-8.4-4.5-8.4c-3.2,0-4.6,3.4-4.6,8.4c0,5,1.3,8.4,4.6,8.4C43.8,70.4,45.2,67,45.2,62z"/>
	<path class="st1" d="M54.6,62c0-7.9,4.1-14,11-14c6.8,0,10.9,6,10.9,14c0,7.9-4,14-10.9,14C58.6,76,54.6,70,54.6,62z M70.1,62
		c0-4.9-1.4-8.4-4.5-8.4c-3.2,0-4.6,3.4-4.6,8.4c0,5,1.3,8.4,4.6,8.4C68.7,70.4,70.1,67,70.1,62z"/>
	<path class="st1" d="M108.2,75.8h-5.7l-5.8-19.1h-0.1l-5.9,19.1h-5.8l-7.4-27.5H84l4.3,17.9h0.1l5.5-18h5.7l5.6,18.3h0.1l4.2-18.2
		h6.2L108.2,75.8z"/>
</g>
<path class="st0" d="M266.2,128.5h-104c-6.6,0-12-5.4-12-12v-104c0-6.6,5.4-12,12-12h104c6.6,0,12,5.4,12,12v104
	C278.2,123.1,272.8,128.5,266.2,128.5z"/>
<g>
	<path class="st1" d="M188.5,64.6c0-5.5,2.8-9.7,7.6-9.7c4.7,0,7.6,4.2,7.6,9.7c0,5.5-2.8,9.7-7.6,9.7
		C191.3,74.3,188.5,70.1,188.5,64.6z M199.2,64.6c0-3.4-0.9-5.8-3.1-5.8c-2.2,0-3.2,2.3-3.2,5.8c0,3.4,0.9,5.8,3.2,5.8
		C198.3,70.4,199.2,68,199.2,64.6z"/>
	<path class="st1" d="M207.4,74.2c-1.4,0-2.5-1.1-2.5-2.5c0-1.4,1.1-2.5,2.5-2.5c1.4,0,2.4,1.1,2.4,2.5
		C209.9,73.1,208.8,74.2,207.4,74.2z"/>
	<path class="st1" d="M215.5,68.7c0.5,1.1,1.5,1.8,2.7,1.8c1.6,0,2.7-1.2,2.7-2.9c0-1.6-0.9-2.9-2.9-2.9c-1.2,0-2.6,0.4-3.5,0.9
		l-2.1-1.4l0.4-9h11.6v3.7h-8l-0.1,2.6c0.7-0.2,1.5-0.2,2.5-0.2c3.7,0,6.5,2.2,6.5,6.6c0,4-3,6.6-7.3,6.6c-3.1,0-5.4-1.5-6.4-4.3
		L215.5,68.7z"/>
	<path class="st1" d="M227.8,55.1h4.2v15h8.6V74h-12.8V55.1z"/>
</g>
<g>
	<path class="st2" d="M249.6,8.6c0.6,0,1,0.3,1.1,0.5c0.2,0.2,0.5,0.6,0.4,1.2l-7.7,105.6c-0.2,2.5-2.3,4.4-4.8,4.4h-49.1
		c-2.5,0-4.6-1.9-4.8-4.4l-7.7-105.6c0-0.6,0.2-1,0.4-1.2c0.2-0.2,0.6-0.5,1.1-0.5H249.6 M249.6,5.6h-70.9c-2.7,0-4.7,2.3-4.6,4.9
		l7.7,105.6c0.3,4.1,3.7,7.2,7.8,7.2h49.1c4.1,0,7.5-3.1,7.8-7.2l7.7-105.6C254.3,7.9,252.3,5.6,249.6,5.6L249.6,5.6z"/>
</g>
</svg>
