<!-- Generator: Adobe Illustrator 24.3.0, SVG Export Plug-In  -->
<svg version="1.1" xmlns="http://www.w3.org/2000/svg" xmlns:xlink="http://www.w3.org/1999/xlink" x="0px" y="0px" width="37.9px"
	 height="56px" viewBox="0 0 37.9 56" style="overflow:visible;enable-background:new 0 0 37.9 56;" xml:space="preserve">
<defs>
</defs>
<g>
	<path d="M17.8,35.1V6.3c0-3.5-2.8-6.3-6.3-6.3h-0.1C7.9,0,5.1,2.8,5.1,6.3v28.8C1.9,37.2,0,40.8,0,44.6C0,50.9,5.1,56,11.4,56
		s11.4-5.1,11.4-11.4C22.8,40.8,20.9,37.2,17.8,35.1z M11.4,2.5h0.1c2.1,0,3.8,1.7,3.8,3.8v16.2H7.6V6.3C7.6,4.2,9.3,2.5,11.4,2.5z
		 M11.4,53.5c-4.9,0-8.9-4-8.9-8.9c0-3.2,1.7-6.1,4.4-7.7l0.6-0.4V25h7.7v11.6l0.6,0.4c2.7,1.6,4.4,4.5,4.4,7.7
		C20.3,49.5,16.3,53.5,11.4,53.5z"/>
	<rect x="27.1" width="10.8" height="2.5"/>
	<rect x="27.1" y="8.9" width="4.5" height="2.5"/>
	<rect x="27.1" y="17.8" width="10.8" height="2.5"/>
	<rect x="27.1" y="26.8" width="4.5" height="2.5"/>
	<rect x="27.1" y="35.7" width="10.8" height="2.5"/>
	<rect x="27.1" y="44.6" width="4.5" height="2.5"/>
	<rect x="27.1" y="53.5" width="10.8" height="2.5"/>
</g>
</svg>
