<svg id="Layer_1" xmlns="http://www.w3.org/2000/svg" viewBox="0 0 108.86 55.14"><g><g><path d="M6.34,22.86l-1.91,.34,.83-2.27,.36,.23-.55,1.5,1.44-.27,1.03,1.19,.6-1.65,.38,.14-.86,2.35-1.32-1.55Z" fill="#3dae2b"/><path d="M9.3,20.6l-.21,.38-1.2-.66-2.37,.02,.24-.44,1.81-.02-.96-1.53,.24-.44,1.26,2.03,1.21,.66Z" fill="#3dae2b"/><path d="M9.06,17.68l-1.92-.23,1.46-1.93,.28,.32-.96,1.27,1.46,.16,.64,1.44,1.06-1.4,.32,.24-1.51,2-.81-1.87Z" fill="#3dae2b"/><path d="M10.81,15.88l1.11,1.12-.31,.31-2.42-2.45,.31-.31,1.11,1.12-.21-2.02,.39-.38,.22,2.15,2.27,.23-.42,.41-2.06-.19Z" fill="#3dae2b"/><path d="M11.33,12.84l1.52-1.15,.17,.38-1.1,.83,.65,.86,1.04-.79,.25,.32-1.04,.79,.7,.92,1.22-.93,.25,.32-1.57,1.19-2.08-2.74Z" fill="#3dae2b"/><path d="M16.38,13.57l-.38,.21-.67-1.2-2.02-1.24,.44-.25,1.54,.94v-1.81s.43-.25,.43-.25v2.38s.67,1.2,.67,1.2Z" fill="#3dae2b"/><path d="M18.9,11.48l-1.29,.49v.94s-.43,.16-.43,.16v-3.69s.29-.11,.29-.11l2.53,2.72-.47,.18-.63-.69Zm-1.28,.07l.99-.38-1.01-1.13,.02,1.51Z" fill="#3dae2b"/><path d="M20.65,10.05l-1.31-1.43,2.37-.51v.42s-1.56,.34-1.56,.34l1,1.07-.46,1.51,1.71-.37,.08,.39-2.45,.52,.61-1.95Z" fill="#3dae2b"/><path d="M22.63,8.02l.44-.05,.36,3.43-.44,.05-.36-3.43Z" fill="#3dae2b"/><path d="M26.04,10.45h-1.38s-.35,.86-.35,.86h-.46s1.37-3.43,1.37-3.43h.3s1.35,3.46,1.35,3.46h-.5s-.33-.89-.33-.89Zm-1.21-.4h1.06s-.52-1.41-.52-1.41l-.54,1.41Z" fill="#3dae2b"/><path d="M30.39,11.14l-1.34-.32-.54,.77-.44-.11,2.11-3.04,.29,.07,.54,3.67-.49-.12-.13-.93Zm-1.09-.66l1.03,.25-.19-1.5-.84,1.25Z" fill="#3dae2b"/><path d="M34.59,10.41l-1.73-.74-1.2,2.79-.4-.17,1.36-3.16,2.54,1.09-1.36,3.16-.4-.17,1.2-2.79Z" fill="#3dae2b"/><path d="M35.61,14.57c-.23-.16-.42-.34-.55-.55s-.22-.42-.26-.65-.04-.45,.01-.67,.14-.43,.27-.62c.14-.2,.3-.36,.49-.49,.19-.13,.4-.21,.63-.25,.22-.04,.46-.04,.7,.01,.24,.05,.48,.16,.71,.31,.23,.16,.42,.34,.55,.55,.13,.21,.22,.42,.26,.65,.04,.22,.04,.45-.01,.67-.05,.23-.14,.44-.28,.64-.13,.19-.29,.35-.48,.48-.19,.13-.4,.21-.62,.26-.22,.04-.46,.04-.7,0-.24-.05-.49-.16-.73-.32Zm1.78-2.58c-.17-.11-.34-.19-.51-.23-.18-.04-.35-.04-.52-.01-.17,.03-.34,.09-.49,.19-.15,.1-.28,.23-.39,.39-.11,.16-.18,.33-.22,.51-.04,.18-.04,.35,0,.52,.03,.17,.1,.33,.2,.48,.1,.15,.23,.28,.4,.4,.16,.11,.34,.19,.51,.23,.18,.04,.35,.04,.52,.01,.17-.03,.33-.09,.49-.19,.15-.1,.28-.23,.39-.39,.11-.16,.18-.33,.22-.51,.04-.18,.04-.35,0-.52-.03-.17-.1-.33-.2-.48-.1-.15-.23-.28-.4-.4Z" fill="#3dae2b"/><path d="M42.92,20.1c-.2,.12-.41,.22-.62,.27-.21,.06-.41,.08-.61,.07-.19-.01-.37-.06-.54-.15-.17-.09-.3-.22-.41-.39-.13-.2-.19-.4-.19-.6s.04-.38,.13-.56c.09-.18,.21-.34,.36-.49,.15-.15,.31-.28,.49-.39,.21-.13,.42-.22,.63-.28,.21-.06,.41-.08,.61-.07,.19,.01,.37,.07,.53,.16,.16,.09,.3,.22,.4,.39,.13,.2,.19,.4,.19,.6s-.04,.38-.13,.56-.2,.34-.36,.49c-.15,.15-.32,.28-.49,.39Zm-.39-.63c.12-.08,.23-.16,.33-.24,.1-.09,.18-.17,.23-.27,.06-.09,.09-.18,.1-.27,.01-.09-.01-.18-.06-.26-.1-.15-.25-.22-.46-.21-.21,.01-.46,.11-.74,.29-.28,.18-.48,.36-.58,.54-.11,.18-.11,.35-.02,.5,.05,.09,.12,.14,.21,.18,.08,.03,.18,.04,.29,.03,.11,0,.22-.04,.34-.09,.12-.05,.25-.11,.37-.19Z" fill="#3dae2b"/><path d="M42.65,23.96c-.04-.11-.06-.21-.05-.32,0-.11,.03-.21,.07-.31,.04-.1,.1-.18,.18-.26,.08-.08,.17-.13,.28-.18,.11-.04,.21-.06,.32-.05,.11,0,.21,.03,.31,.07,.1,.04,.18,.1,.26,.18,.08,.08,.13,.17,.17,.27,.04,.11,.06,.21,.05,.32,0,.11-.03,.21-.07,.31-.04,.1-.1,.18-.18,.26-.08,.08-.17,.13-.28,.17-.11,.04-.21,.06-.32,.05-.11,0-.21-.03-.31-.07-.1-.04-.18-.1-.26-.18-.08-.08-.13-.17-.17-.27Zm1-.38c-.02-.06-.07-.11-.13-.14-.06-.03-.12-.03-.19,0-.06,.02-.11,.07-.14,.13-.03,.06-.03,.13,0,.19,.03,.07,.07,.11,.13,.14,.06,.03,.12,.03,.19,0s.11-.07,.13-.13c.03-.06,.03-.13,0-.19Zm-1.68-1.34l-.22-.57,4.08,.84,.22,.57-4.08-.84Zm1.64-.85c-.04-.11-.06-.21-.05-.32,0-.11,.03-.21,.07-.31,.04-.1,.1-.18,.18-.26s.17-.13,.28-.18c.11-.04,.21-.06,.32-.05s.21,.03,.31,.07,.18,.1,.26,.18c.08,.08,.13,.17,.18,.27,.04,.1,.06,.21,.05,.32,0,.11-.03,.21-.07,.31-.04,.1-.1,.18-.18,.26-.08,.08-.17,.14-.28,.18-.11,.04-.21,.06-.32,.05-.11,0-.21-.03-.31-.07-.1-.04-.18-.1-.26-.18-.08-.08-.13-.17-.17-.27Zm1-.38c-.02-.06-.07-.11-.13-.13-.06-.03-.13-.03-.19,0-.06,.02-.11,.07-.13,.13-.03,.06-.03,.12,0,.19,.02,.06,.07,.11,.13,.13,.06,.03,.12,.03,.19,0,.06-.02,.11-.07,.14-.13,.03-.06,.03-.12,0-.19Z" fill="#3dae2b"/><g><path d="M3.93,35.49l.63-.42-.23-1.06-.74-.12-.16-.76,3.66,.58,.1,.49-3.09,2.08-.17-.8Zm1.89-1.24l-.75-.11,.12,.53,.64-.42Z" fill="#3dae2b"/><path d="M6.52,36.89l-1.91,.77-.27-.68,3.2-1.3,.23,.58-1.33,2.27,1.93-.79,.27,.67-3.21,1.3-.23-.58,1.31-2.26Z" fill="#3dae2b"/><path d="M7.02,42.38l.45-.6-.57-.92-.74,.14-.41-.66,3.64-.69,.26,.42-2.2,3-.43-.69Zm1.36-1.81l-.75,.15,.29,.46,.46-.61Z" fill="#3dae2b"/><path d="M9.22,43.41l-.86,.74-.48-.56,2.62-2.25,.48,.55-.86,.74h1.49s.62,.71,.62,.71h-2.23s-.37,2.27-.37,2.27l-.64-.74,.23-1.47Z" fill="#3dae2b"/><path d="M11.15,46.96l-.55-.48,.9-1.03,.5-2.33,.63,.55-.3,1.39,1.34-.49,.64,.55-2.26,.81-.9,1.03Z" fill="#3dae2b"/><path d="M13.77,47.5l-.61,.96-.62-.39,1.85-2.91,.62,.39-.61,.96,1.43-.44,.8,.51-2.14,.65,.31,2.28-.83-.53-.21-1.48Z" fill="#3dae2b"/><path d="M17.28,49.44c.02-.37,.03-.74,.05-1.11-.26,.26-.51,.53-.77,.79-.26,.26-.53,.54-.82,.83l-.71-.31,2.61-2.63,.46,.2-.11,3.72-.75-.33c.01-.4,.03-.79,.05-1.16Z" fill="#3dae2b"/><path d="M21.2,50.89c.12-.04,.22-.11,.31-.19s.16-.17,.23-.28c.06-.11,.1-.22,.13-.34,.03-.14,.04-.28,.01-.42-.03-.13-.07-.26-.15-.37-.07-.11-.17-.21-.28-.29-.12-.08-.25-.14-.4-.17-.15-.03-.29-.04-.43-.02-.14,.02-.26,.07-.38,.13s-.21,.16-.29,.27c-.08,.11-.14,.24-.17,.38-.03,.12-.04,.24-.02,.37,.01,.12,.04,.24,.09,.35,.05,.11,.12,.21,.2,.3,.09,.09,.19,.16,.3,.22l-.15,.67-1.59-.36,.16-.68,.43,.1c-.1-.16-.17-.35-.19-.55-.03-.2-.02-.39,.02-.58,.05-.22,.14-.43,.27-.61,.13-.18,.29-.34,.48-.46,.19-.12,.4-.2,.64-.25,.24-.04,.49-.03,.76,.03,.27,.06,.51,.16,.71,.3,.2,.14,.36,.31,.48,.5,.12,.19,.2,.4,.24,.62,.04,.22,.03,.45-.02,.68-.04,.18-.11,.36-.22,.52-.1,.16-.25,.3-.43,.42l.4,.09-.16,.69-1.56-.36,.15-.67c.15,0,.28-.01,.4-.06Z" fill="#3dae2b"/><path d="M25.86,49.95l-.84,.94h-.23s-.79-.98-.79-.98l-.05,2.19-.74-.02,.08-3.45h.63s1.01,1.25,1.01,1.25l1.07-1.19h.63s-.08,3.47-.08,3.47l-.74-.02,.05-2.19Z" fill="#3dae2b"/><path d="M27.05,48.62l2.04-.29-.05,.72-1.16,.17,.09,.63,1.13-.16,.1,.7-1.13,.16,.1,.69,1.33-.19,.1,.7-2.06,.29-.49-3.42Z" fill="#3dae2b"/><path d="M30.53,49.41l.6,1.97-.7,.21-1.01-3.3,.59-.18,2.14,1.53-.61-2,.69-.21,1.01,3.31-.59,.18-2.13-1.51Z" fill="#3dae2b"/><path d="M35.76,49.57c-.25,.13-.49,.21-.74,.23-.25,.02-.48,0-.69-.07-.22-.07-.41-.18-.59-.32s-.32-.32-.43-.53c-.11-.21-.18-.43-.21-.67-.02-.23,0-.46,.06-.67,.07-.22,.18-.42,.33-.61,.16-.19,.35-.35,.6-.48,.25-.13,.49-.21,.74-.24,.25-.02,.48,0,.7,.06,.22,.06,.42,.17,.59,.32,.18,.15,.32,.33,.44,.54,.11,.2,.18,.42,.2,.65,.03,.23,0,.45-.06,.67-.06,.22-.17,.43-.33,.62-.16,.19-.36,.36-.62,.5Zm-1.33-2.5c-.14,.07-.25,.17-.35,.28-.09,.11-.16,.23-.2,.36-.04,.13-.05,.26-.04,.4,.01,.14,.06,.28,.13,.41,.07,.13,.16,.24,.27,.33,.11,.09,.23,.15,.36,.19,.13,.04,.27,.05,.41,.03,.14-.02,.28-.06,.42-.13,.14-.08,.26-.17,.35-.28s.16-.23,.2-.36c.04-.13,.05-.26,.04-.4-.01-.14-.06-.28-.13-.41-.07-.14-.16-.25-.27-.34s-.23-.15-.36-.19c-.13-.04-.27-.05-.41-.03-.14,.02-.29,.06-.43,.14Z" fill="#3dae2b"/><path d="M40.58,46.06l-.54,.5-.93-1.01-2.26-.76,.62-.57,1.35,.45-.34-1.39,.62-.57,.55,2.33,.92,1.01Z" fill="#3dae2b"/><path d="M42.06,42.8c-.36-.11-.71-.22-1.06-.33,.19,.32,.38,.63,.56,.95s.38,.65,.59,1l-.48,.61-1.88-3.19,.31-.39,3.57,1.06-.51,.64c-.39-.12-.75-.23-1.11-.34Z" fill="#3dae2b"/><path d="M41.07,40.07l.38-.62,2.95,1.8-.38,.62-2.95-1.8Z" fill="#3dae2b"/><path d="M44.18,39.25l1.03,.48-.31,.66-3.13-1.46,.31-.66,1.03,.48-.62-1.36,.4-.86,.93,2.03,2.22-.6-.41,.89-1.44,.4Z" fill="#3dae2b"/><path d="M46.74,35.73c-.07,.27-.18,.5-.33,.7-.15,.19-.33,.35-.53,.46-.2,.11-.41,.18-.64,.21-.23,.03-.45,.02-.68-.04-.23-.06-.44-.16-.63-.3-.19-.14-.34-.31-.45-.51-.11-.2-.19-.42-.22-.66s-.01-.5,.06-.77c.07-.27,.18-.5,.33-.7,.15-.2,.32-.35,.52-.47,.2-.12,.41-.19,.64-.22s.46-.01,.69,.05c.22,.06,.43,.16,.61,.29,.18,.14,.34,.3,.45,.5,.12,.2,.19,.42,.23,.67,.04,.25,.02,.51-.06,.79Zm-2.74-.73c-.04,.15-.05,.3-.03,.44,.02,.14,.06,.27,.13,.39,.07,.12,.16,.22,.27,.3,.11,.08,.24,.15,.39,.19,.15,.04,.29,.05,.43,.03,.14-.02,.27-.06,.38-.13,.12-.07,.22-.16,.3-.28,.09-.12,.15-.25,.19-.4,.04-.15,.05-.3,.04-.45-.02-.14-.06-.27-.13-.39s-.16-.22-.27-.3c-.11-.08-.24-.15-.39-.18-.15-.04-.29-.05-.43-.03-.14,.02-.27,.06-.38,.13-.12,.07-.22,.16-.3,.28-.09,.12-.15,.25-.19,.4Z" fill="#3dae2b"/></g><circle cx="5.21" cy="28.64" r=".95" fill="#3dae2b"/><circle cx="45.49" cy="28.6" r=".95" fill="#3dae2b"/><path d="M39.12,16.3c.02,.16,.1,.5,.29,.76,.24,.33,.52,.39,.73,.24,.27-.19,.2-.55,0-.84l-.19-.26,.46-.33,.18,.25c.16,.21,.44,.43,.67,.26,.16-.12,.19-.34,0-.61-.16-.22-.43-.39-.58-.46l.37-.46c.22,.09,.56,.35,.82,.7,.42,.59,.35,1.14-.03,1.41-.29,.21-.64,.21-1-.05h0c.18,.38,.12,.82-.24,1.08-.49,.35-1.15,.17-1.65-.52-.25-.36-.38-.72-.39-.96l.58-.21Z" fill="#3dae2b"/></g><g><path d="M25.12,55.14c-3.39,0-6.68-.66-9.78-1.97-2.99-1.27-5.68-3.08-7.99-5.38-2.31-2.31-4.12-4.99-5.38-7.99-1.31-3.1-1.97-6.39-1.97-9.78s.66-6.68,1.97-9.78c1.27-2.99,3.08-5.68,5.38-7.99,2.31-2.31,4.99-4.12,7.99-5.38,3.1-1.31,6.39-1.97,9.78-1.97s6.68,.66,9.78,1.97c2.99,1.27,5.68,3.08,7.99,5.38,2.31,2.31,4.12,4.99,5.38,7.99,1.31,3.1,1.97,6.39,1.97,9.78s-.66,6.68-1.97,9.78c-1.27,2.99-3.08,5.68-5.38,7.99-2.31,2.31-4.99,4.12-7.99,5.38-3.1,1.31-6.39,1.97-9.78,1.97Zm0-48.86c-3.21,0-6.31,.63-9.24,1.87-2.83,1.2-5.37,2.91-7.55,5.09-2.18,2.18-3.89,4.72-5.09,7.55-1.24,2.93-1.87,6.04-1.87,9.24s.63,6.31,1.87,9.24c1.2,2.83,2.91,5.37,5.09,7.55,2.18,2.18,4.72,3.89,7.55,5.09,2.93,1.24,6.04,1.87,9.24,1.87s6.31-.63,9.24-1.87c2.83-1.2,5.37-2.91,7.55-5.09,2.18-2.18,3.89-4.72,5.09-7.55,1.24-2.93,1.87-6.04,1.87-9.24s-.63-6.31-1.87-9.24c-1.2-2.83-2.91-5.37-5.09-7.55-2.18-2.18-4.72-3.89-7.55-5.09-2.93-1.24-6.04-1.87-9.24-1.87Z" fill="#3dae2b"/><path d="M25.12,47.11c-2.31,0-4.55-.45-6.65-1.34-2.04-.86-3.86-2.09-5.43-3.66-1.57-1.57-2.8-3.4-3.66-5.43-.89-2.11-1.34-4.35-1.34-6.65s.45-4.55,1.34-6.65c.86-2.04,2.09-3.86,3.66-5.43,1.57-1.57,3.4-2.8,5.43-3.66,2.11-.89,4.35-1.34,6.65-1.34s4.55,.45,6.65,1.34c2.04,.86,3.86,2.09,5.43,3.66,1.57,1.57,2.8,3.4,3.66,5.43,.89,2.11,1.34,4.35,1.34,6.65s-.45,4.55-1.34,6.65c-.86,2.04-2.09,3.86-3.66,5.43-1.57,1.57-3.4,2.8-5.43,3.66-2.11,.89-4.35,1.34-6.65,1.34Zm0-32.81c-2.12,0-4.18,.42-6.12,1.23-1.87,.79-3.55,1.92-5,3.37-1.44,1.44-2.58,3.12-3.37,5-.82,1.94-1.23,3.99-1.23,6.12s.42,4.18,1.23,6.12c.79,1.87,1.92,3.55,3.37,5,1.44,1.44,3.12,2.58,5,3.37,1.94,.82,3.99,1.23,6.12,1.23s4.18-.42,6.12-1.23c1.87-.79,3.55-1.92,5-3.37,1.44-1.44,2.58-3.12,3.37-5,.82-1.94,1.23-3.99,1.23-6.12s-.42-4.18-1.23-6.12c-.79-1.87-1.92-3.55-3.37-5-1.44-1.44-3.12-2.58-5-3.37-1.94-.82-3.99-1.23-6.12-1.23Z" fill="#3dae2b"/><g><path d="M25.8,37.76s-2.09-3.96,3.69-5.64c4.59-1.33,6.74-5.06,6.74-5.06,0,0,1.16,2.46,.65,5.47-.86,5.06-4.9,7.96-7.44,8.02-2.3,.06-3.04-1.25-3.04-1.25,4.35-.74,6.43-4.01,6.43-4.01-1.59,1.61-4.67,3.35-6.92,3.39-2.25,.03-3.63-.08-3.63-.08-.15-.32-.21-1.4-.05-1.75,1.39,1.01,3.58,.9,3.58,.9Z" fill="#3dae2b"/><path d="M31.76,25.05c1.13,1.94,1.74,3.12,1.74,3.12-.21,.28-1.15,.96-1.53,.99,.2-1.71-.89-3.56-.89-3.56,0,0-2.5,3.76-6.79-.46-3.4-3.35-7.71-3.4-7.71-3.4,0,0,1.58-2.21,4.46-3.24,4.84-1.73,9.34,.38,10.64,2.56,1.17,1.98,.4,3.26,.4,3.26-2.77-3.43-6.64-3.65-6.64-3.65,2.18,.59,5.21,2.43,6.34,4.38Z" fill="#3dae2b"/><path d="M13.87,28.77c1.13-2,2.63-1.97,2.63-1.97-1.6,4.11,.15,7.58,.15,7.58-.57-2.19-.49-5.73,.63-7.68,1.12-1.95,1.95-3.07,1.95-3.07,.35,.04,1.29,.52,1.51,.84-1.58,.68-2.58,2.51-2.58,2.51,0,0,4.45,.33,2.93,6.15-1.21,4.62,.9,8.38,.9,8.38,0,0-2.71-.27-5.03-2.25-3.91-3.33-4.33-8.29-3.08-10.5Z" fill="#3dae2b"/></g></g></g><g><path d="M108.86,30.76c0,5.46-1.77,10.63-5.12,14.94-3.99,5.14-9.76,8.43-16.23,9.24-6.48,.82-12.88-.93-18.02-4.92-6-4.65-9.44-11.69-9.44-19.31,0-5.46,1.77-10.63,5.12-14.94,2.5-3.22,5.8-5.78,9.55-7.41-.03-.26-.05-.53-.05-.8,0,0,0-.14,0-.14,.03-1.5,.55-2.93,1.5-4.16C77.82,1.15,80.51-.06,83.37,0c4.4,.1,12.56,6.6,13.47,7.34l.34,.28c.09,.08,.15,.19,.15,.31h0c0,.13-.06,.25-.16,.32l-.35,.26c-.38,.28-9.29,6.82-13.8,6.72-3.68-.08-6.89-2.28-7.96-5.41-3.42,1.54-6.44,3.9-8.73,6.85-3.14,4.05-4.81,8.91-4.81,14.04,0,7.16,3.23,13.78,8.87,18.15,4.83,3.75,10.85,5.4,16.94,4.63,6.09-.77,11.51-3.85,15.26-8.69,3.15-4.05,4.81-8.91,4.81-14.04,0-7.16-3.23-13.78-8.87-18.15-.18-.14-.28-.35-.28-.58,0-.16,.05-.32,.15-.45,.25-.32,.71-.38,1.03-.13,6,4.65,9.44,11.69,9.44,19.31ZM76.42,9.25c.84,2.6,3.52,4.43,6.64,4.5,3.29,.08,9.95-4.37,12.11-5.87-2.08-1.6-8.53-6.34-11.82-6.42-1.89-.04-3.68,.56-5.04,1.7-1.35,1.13-2.11,2.65-2.15,4.28,0,.01,0,.25,0,.34,1.3-.47,2.64-.83,3.99-1.07,.11-.43,.37-1.2,.96-1.95,.72-.92,1.68-1.52,2.85-1.76,.19-.04,.39,0,.55,.1,.16,.11,.28,.27,.32,.46,0,.03,.02,.12,.02,.15,0,.35-.25,.65-.58,.72-1.45,.3-2.15,1.33-2.47,2.04,2.81-.32,5.62-.15,8.37,.51,.33,.08,.56,.37,.56,.71,0,.03-.01,.14-.02,.17-.09,.39-.49,.64-.88,.54-2.57-.61-5.2-.78-7.82-.49,.23,.52,.83,1.28,2.39,1.79,.3,.1,.5,.38,.5,.7,0,.04-.02,.19-.04,.22-.13,.39-.54,.6-.93,.47-2.35-.77-3.15-2.07-3.42-2.97-1.39,.25-2.76,.62-4.09,1.11Z" fill="#3dae2b"/><g><path d="M76.3,25.8h-1.42v-5.66h-1.75v-.95c.54,0,1.01-.11,1.39-.34,.43-.26,.7-.64,.79-1.13h.99v8.08Z" fill="#3dae2b"/><path d="M82.56,21.76v1.2c-.01,.93-.15,1.61-.41,2.05-.35,.61-.95,.91-1.78,.91s-1.45-.3-1.79-.9c-.27-.46-.41-1.14-.42-2.05v-2.45c0-.87,.15-1.54,.44-1.98,.35-.56,.94-.84,1.76-.84,.69,0,1.22,.19,1.59,.57,.37,.38,.55,.92,.55,1.61,.06,.61,.08,1.24,.07,1.87Zm-1.5,1.88v-3.51c0-.39-.03-.67-.09-.85-.1-.31-.31-.46-.61-.46s-.51,.14-.61,.41c-.04,.12-.08,.39-.12,.81v3.52c0,.38,.03,.66,.08,.83,.09,.32,.29,.47,.59,.47,.13,0,.27-.05,.43-.14s.25-.2,.28-.33c.04-.18,.05-.43,.05-.75Z" fill="#3dae2b"/><path d="M87.91,21.76v1.2c-.02,.93-.15,1.61-.41,2.05-.35,.61-.95,.91-1.78,.91s-1.45-.3-1.79-.9c-.27-.46-.41-1.14-.42-2.05v-2.45c0-.87,.15-1.54,.44-1.98,.35-.56,.94-.84,1.76-.84,.69,0,1.22,.19,1.59,.57,.37,.38,.55,.92,.55,1.61,.06,.61,.08,1.24,.07,1.87Zm-1.5,1.88v-3.51c0-.39-.03-.67-.09-.85-.1-.31-.31-.46-.61-.46s-.51,.14-.61,.41c-.04,.12-.08,.39-.12,.81v3.52c0,.38,.03,.66,.08,.83,.09,.32,.29,.47,.59,.47,.13,0,.28-.05,.43-.14,.16-.09,.25-.2,.28-.33,.04-.18,.05-.43,.05-.75Z" fill="#3dae2b"/><path d="M92.16,19.66c0,.24-.01,.44-.04,.58,0,.47-.17,.83-.51,1.09-.3,.24-.69,.36-1.18,.36-.46,0-.83-.12-1.12-.38-.27-.23-.42-.57-.44-1.04l-.03-.62c-.03-.61,.08-1.09,.33-1.43s.69-.52,1.33-.52c.99,0,1.53,.47,1.62,1.41,.03,.13,.04,.31,.04,.53Zm-1.07,.11v-.3c-.03-.63-.22-.95-.58-.95l-.21,.02c-.17,.01-.28,.15-.34,.42-.05,.21-.08,.45-.08,.73v.24c0,.15,.01,.32,.03,.51,.04,.32,.23,.47,.58,.47,.29,0,.48-.15,.55-.45,.04-.16,.06-.39,.04-.69Zm3.61-2.05l-3.68,8.21h-.77l3.68-8.21h.77Zm1.43,6.21c0,1.34-.56,2.01-1.69,2.01-.45,0-.83-.12-1.12-.36-.33-.26-.5-.61-.51-1.04v-.62c-.02-.59,.1-1.06,.35-1.42,.26-.36,.68-.53,1.28-.53,.62,0,1.07,.18,1.34,.53,.23,.31,.34,.79,.34,1.43Zm-1.05,.1v-.31c-.01-.36-.07-.61-.16-.74-.11-.15-.25-.22-.42-.21h-.22c-.23,.05-.36,.28-.39,.7,0,.1-.01,.26-.01,.46v.23c0,.66,.21,.99,.62,.99,.35,0,.54-.26,.57-.77,0-.17,.01-.29,.01-.35Z" fill="#3dae2b"/><path d="M67.46,34.88h-.95l-.24-1.19h-1.01l-.23,1.19h-.92l1.08-4.76h1.2l1.08,4.76Zm-1.32-1.9l-.38-2.01-.37,2.01h.75Z" fill="#3dae2b"/><path d="M70.78,34.88h-.91l-1.24-3.33,.02,3.33h-.83v-4.76h.91l1.25,3.34-.03-3.34h.84v4.76Z" fill="#3dae2b"/><path d="M74.48,34.88h-.95l-.24-1.19h-1.01l-.23,1.19h-.92l1.08-4.76h1.2l1.08,4.76Zm-1.32-1.9l-.38-2.01-.37,2.01h.75Z" fill="#3dae2b"/><path d="M77.86,34.88h-.98l-.86-1.97-.31,.54v1.44h-.88v-4.76h.88v1.99l1.07-1.99h1l-1.21,1.97,1.29,2.79Z" fill="#3dae2b"/><path d="M81.21,30.12l-1.24,2.75v2.02h-.89v-2.02l-1.26-2.75h.99l.73,1.79,.71-1.79h.97Z" fill="#3dae2b"/><path d="M84.58,34.88h-.98l-.86-1.97-.31,.54v1.44h-.88v-4.76h.88v1.99l1.07-1.99h1l-1.21,1.97,1.29,2.79Z" fill="#3dae2b"/><path d="M87.82,34.88h-.95l-.7-3.8-.65,3.8h-.94l1-4.76h1.18l1.06,4.76Z" fill="#3dae2b"/><path d="M91.42,34.87h-1.43v-.73c.27-.11,.4-.39,.4-.84,0-.15,0-.33,.02-.56v-1.03c-.01-.66-.22-.99-.63-.99-.25,0-.42,.11-.52,.33-.07,.15-.1,.37-.11,.66l-.02,1.08c0,.06,0,.14,0,.24,0,.12,0,.2,0,.25,0,.45,.14,.74,.41,.86v.73h-1.44v-.69h.68c-.26-.24-.42-.52-.5-.83-.05-.2-.07-.53-.07-.99,0-.72,.08-1.25,.25-1.6,.24-.5,.67-.75,1.3-.75,.49,0,.86,.14,1.11,.41,.29,.32,.43,.94,.43,1.86,0,.45-.03,.79-.08,1.02-.08,.35-.24,.65-.48,.88h.67v.69Z" fill="#3dae2b"/><path d="M94.68,34.88h-2.78v-.65l1.28-1.81-1.23-1.64v-.67h2.67v.8h-1.57l1.1,1.5-1.13,1.68h1.66v.78Z" fill="#3dae2b"/><path d="M96.09,34.88h-.89v-4.76h.89v4.76Z" fill="#3dae2b"/><path d="M100.78,34.88h-.84v-4.22l-.88,4.22h-.54l-.9-4.22,.03,4.22h-.86v-4.76h1.33l.65,3.08,.64-3.08h1.35v4.76Z" fill="#3dae2b"/><path d="M104.47,34.88h-.88v-2.16h-1.23v2.16h-.88v-4.76h.88v1.88h1.23v-1.88h.88v4.76Z" fill="#3dae2b"/><path d="M71.49,43.96h-2.78v-.65l1.28-1.81-1.23-1.64v-.67h2.67v.8h-1.57l1.1,1.5-1.13,1.68h1.66v.78Z" fill="#3dae2b"/><path d="M75.15,39.2l-1.24,2.75v2.02h-.89v-2.02l-1.26-2.75h.99l.73,1.79,.71-1.79h.97Z" fill="#3dae2b"/><path d="M78.3,43.96h-2.78v-.65l1.28-1.81-1.23-1.64v-.67h2.67v.8h-1.57l1.1,1.5-1.13,1.68h1.66v.78Z" fill="#3dae2b"/><path d="M81.95,43.96h-.98l-.86-1.97-.31,.54v1.44h-.88v-4.76h.88v1.99l1.07-1.99h1l-1.21,1.97,1.29,2.79Z" fill="#3dae2b"/><path d="M84.86,43.96h-2.48v-4.76h2.44v.8h-1.56v1.1h1.45v.75h-1.45v1.32h1.6v.8Z" fill="#3dae2b"/><path d="M88.55,39.2l-1.24,2.75v2.02h-.89v-2.02l-1.26-2.75h.99l.73,1.79,.71-1.79h.97Z" fill="#3dae2b"/><path d="M92,43.96h-.95l-.24-1.19h-1.01l-.23,1.19h-.92l1.08-4.76h1.2l1.08,4.76Zm-1.32-1.9l-.38-2.01-.37,2.01h.75Z" fill="#3dae2b"/><path d="M95.15,43.96h-2.78v-.65l1.28-1.81-1.23-1.64v-.67h2.67v.8h-1.57l1.1,1.5-1.13,1.68h1.66v.78Z" fill="#3dae2b"/><path d="M96.68,43.96h-.89v-4.76h.89v4.76Z" fill="#3dae2b"/><path d="M100.49,43.96h-.95l-.24-1.19h-1.01l-.23,1.19h-.92l1.08-4.76h1.2l1.08,4.76Zm-1.32-1.9l-.38-2.01-.37,2.01h.75Z" fill="#3dae2b"/></g></g></svg>