<!-- Generator: Adobe Illustrator 23.0.1, SVG Export Plug-In  -->
<svg version="1.1" xmlns="http://www.w3.org/2000/svg" xmlns:xlink="http://www.w3.org/1999/xlink" x="0px" y="0px" width="55.8px"
	 height="42.3px" viewBox="0 0 55.8 42.3" style="enable-background:new 0 0 55.8 42.3;" xml:space="preserve">
<style type="text/css">
	.st0{fill:#FFFFFF;}
</style>
<defs>
</defs>
<g>
	<g>
		<path class="st0" d="M12.2,12.3c0,3.5-3,6.3-6.5,6.1c-3.1-0.2-5.6-2.8-5.7-5.9c0-0.6,0-1.2,0.2-1.7c0,0,0,0,0,0
			c0.1-0.4,0.3-0.8,0.5-1.2l0.5-0.9L6.1,0L11,8.6l0.5,0.9c0.2,0.4,0.4,0.8,0.5,1.2c0,0,0,0,0,0C12.2,11.3,12.2,11.8,12.2,12.3z"/>
		<path class="st0" d="M26.7,12.3c0,3.5-3,6.3-6.5,6.1c-3.1-0.2-5.6-2.8-5.7-5.9c0-0.6,0-1.2,0.2-1.7c0,0,0,0,0,0
			c0.1-0.4,0.3-0.8,0.5-1.2l0.5-0.9L20.6,0l4.9,8.6L26,9.6c0.2,0.4,0.4,0.8,0.5,1.2c0,0,0,0,0,0C26.7,11.3,26.7,11.8,26.7,12.3z"/>
		<path class="st0" d="M41.2,12.3c0,3.5-3,6.3-6.5,6.1c-3.1-0.2-5.6-2.8-5.7-5.9c0-0.6,0-1.2,0.2-1.7c0,0,0,0,0,0
			c0.1-0.4,0.3-0.8,0.5-1.2l0.5-0.9L35.1,0L40,8.6l0.5,0.9c0.2,0.4,0.4,0.8,0.5,1.2c0,0,0,0,0,0C41.2,11.3,41.2,11.8,41.2,12.3z"/>
		<g>
			<path class="st0" d="M55.8,12.3c0,3.5-3,6.3-6.5,6.1c-3.1-0.2-5.6-2.8-5.7-5.9c0-0.6,0-1.2,0.2-1.7c0,0,0,0,0,0
				c0.1-0.4,0.3-0.8,0.5-1.2l0.5-0.9L49.6,0l4.9,8.6l0.5,0.9c0.2,0.4,0.4,0.8,0.5,1.2c0,0,0,0,0,0C55.7,11.3,55.8,11.8,55.8,12.3z"
				/>
		</g>
	</g>
	<g>
		<g>
			<path class="st0" d="M6.1,41.6c-0.1,0-0.2,0-0.4,0c-2.8-0.2-5-2.5-5.1-5.2c0-0.5,0-1,0.2-1.5c0.1-0.3,0.2-0.7,0.4-1.1l4.8-8.5
				l4.8,8.5c0.2,0.4,0.4,0.7,0.4,1.1c0.1,0.4,0.2,0.9,0.2,1.3C11.5,39.2,9.1,41.6,6.1,41.6z"/>
			<g>
				<path class="st0" d="M6.1,26.7l3.7,6.5l0.5,0.9c0.2,0.3,0.3,0.6,0.4,0.9c0.1,0.4,0.1,0.8,0.1,1.2c0,2.6-2.1,4.7-4.7,4.7
					c-0.1,0-0.2,0-0.3,0c-2.4-0.2-4.3-2.2-4.4-4.6c0-0.5,0-0.9,0.1-1.3c0.1-0.3,0.2-0.6,0.4-0.9l0.5-0.9L6.1,26.7 M6.1,23.9
					l-4.9,8.6l-0.5,0.9c-0.2,0.4-0.4,0.8-0.5,1.2c0,0,0,0,0,0C0,35.2,0,35.8,0,36.4c0.1,3.1,2.6,5.7,5.7,5.9c0.1,0,0.3,0,0.4,0
					c3.4,0,6.1-2.7,6.1-6.1c0-0.5-0.1-1-0.2-1.5c0,0,0,0,0,0c-0.1-0.4-0.3-0.8-0.5-1.2L11,32.5L6.1,23.9L6.1,23.9z"/>
			</g>
		</g>
		<g>
			<path class="st0" d="M20.6,41.6c-0.1,0-0.2,0-0.4,0c-2.8-0.2-5-2.5-5.1-5.2c0-0.5,0-1,0.2-1.5c0.1-0.3,0.2-0.7,0.4-1.1l4.8-8.5
				l4.8,8.5c0.2,0.4,0.4,0.7,0.4,1.1c0.1,0.4,0.2,0.9,0.2,1.3C26.1,39.2,23.6,41.6,20.6,41.6z"/>
			<path class="st0" d="M20.6,26.7l3.7,6.5l0.5,0.9c0.2,0.3,0.3,0.6,0.4,0.9c0.1,0.4,0.1,0.8,0.1,1.2c0,2.6-2.1,4.7-4.7,4.7
				c-0.1,0-0.2,0-0.3,0c-2.4-0.2-4.3-2.2-4.4-4.6c0-0.5,0-0.9,0.1-1.3c0.1-0.3,0.2-0.6,0.4-0.9l0.5-0.9L20.6,26.7 M20.6,23.9
				l-4.9,8.6l-0.5,0.9c-0.2,0.4-0.4,0.8-0.5,1.2c0,0,0,0,0,0c-0.1,0.5-0.2,1.1-0.2,1.7c0.1,3.1,2.6,5.7,5.7,5.9c0.1,0,0.3,0,0.4,0
				c3.4,0,6.1-2.7,6.1-6.1c0-0.5-0.1-1-0.2-1.5c0,0,0,0,0,0c-0.1-0.4-0.3-0.8-0.5-1.2l-0.5-0.9L20.6,23.9L20.6,23.9z"/>
		</g>
		<g>
			<path class="st0" d="M41.2,36.2c0,3.5-3,6.3-6.5,6.1c-3.1-0.2-5.6-2.8-5.7-5.9c0-0.6,0-1.2,0.2-1.7c0,0,0,0,0,0
				c0.1-0.4,0.3-0.8,0.5-1.2l0.5-0.9l4.9-8.6l4.9,8.6l0.5,0.9c0.2,0.4,0.4,0.8,0.5,1.2c0,0,0,0,0,0C41.2,35.2,41.2,35.7,41.2,36.2z"
				/>
		</g>
		<g>
			<g>
				<path class="st0" d="M49.6,26.7l3.7,6.5l0.5,0.9c0.2,0.3,0.3,0.6,0.4,0.9c0.1,0.4,0.1,0.8,0.1,1.2c0,2.6-2.1,4.7-4.7,4.7
					c-0.1,0-0.2,0-0.3,0c-2.4-0.2-4.3-2.2-4.4-4.6c0-0.5,0-0.9,0.1-1.3c0.1-0.3,0.2-0.6,0.4-0.9l0.5-0.9L49.6,26.7 M49.6,23.9
					l-4.9,8.6l-0.5,0.9c-0.2,0.4-0.4,0.8-0.5,1.2c0,0,0,0,0,0c-0.1,0.5-0.2,1.1-0.2,1.7c0.1,3.1,2.6,5.7,5.7,5.9c0.1,0,0.3,0,0.4,0
					c3.4,0,6.1-2.7,6.1-6.1c0-0.5-0.1-1-0.2-1.5c0,0,0,0,0,0c-0.1-0.4-0.3-0.8-0.5-1.2l-0.5-0.9L49.6,23.9L49.6,23.9z"/>
			</g>
		</g>
	</g>
</g>
</svg>
