<!-- Generator: Adobe Illustrator 23.0.1, SVG Export Plug-In  -->
<svg version="1.1" xmlns="http://www.w3.org/2000/svg" xmlns:xlink="http://www.w3.org/1999/xlink" x="0px" y="0px" width="512px"
	 height="512px" viewBox="0 0 512 512" style="enable-background:new 0 0 512 512;" xml:space="preserve">
<style type="text/css">
	.st0{fill:#fff;}
</style>
<defs>
</defs>
<path class="st0" d="M256,0C116.5,0,0,116.1,0,256c0,139.5,116.1,256,256,256c139.5,0,256-116.1,256-256C512,116.5,395.9,0,256,0z
	 M256,482c-57.2,0-114.5-22.3-159.1-66.9C11.3,329.5,7.8,197.2,86.6,107.9l126.9,126.9L86.3,362.1l63.6,63.6L256,319.6l21.2,21.2
	l21.2-21.2l105.7,105.7C361.3,463.1,308.7,482,256,482z M234.8,256l21.2,21.2L149.9,383.3l-21.2-21.2L234.8,256z M256,234.8
	l104.5-104.5c5,9.5,6.8,20.5,4.9,31.3c-6.8,38.6-25,73.6-52.7,101.4l-14.2,14.2L256,234.8z M425.4,404.1L319.6,298.4l14.2-14.2
	c32.1-32.1,53.2-72.7,61.1-117.4c4.5-25.4-3.7-51.4-21.9-69.5l-11-11L234.8,213.6L107.9,86.6C150.7,48.9,203.3,30,256,30
	c57.2,0,114.5,22.3,159.1,66.9C500.7,182.5,504.2,314.8,425.4,404.1z"/>
</svg>
