<!-- Generator: Adobe Illustrator 23.0.1, SVG Export Plug-In  -->
<svg version="1.1" xmlns="http://www.w3.org/2000/svg" xmlns:xlink="http://www.w3.org/1999/xlink" x="0px" y="0px" width="448.1px"
	 height="512px" viewBox="0 0 448.1 512" style="enable-background:new 0 0 448.1 512;" xml:space="preserve">
<style type="text/css">
	.st0{fill:#CCCCCB;}
	.st1{fill:#DDDDDD;}
</style>
<defs>
</defs>
<g>
	<g>
		<path class="st0" d="M388,465.2c-0.9-14.2-6-27.7-14.7-39.1L193.6,192.3c16.5-25.4,15.5-58.7-3.2-83l-61.9-81.2
			C116.5,12.4,98.2,2.3,78.4,0.3C58.3-1.6,39,4.7,23.8,18C-4.5,42.9-8,86.6,15.7,117.6L76.2,197c18.7,24.3,50.6,34,79.4,24.6
			l220.6,287.3c1.5,2,3.9,3.1,6.3,3.1c0.9,0,1.9-0.2,2.8-0.5c3.3-1.2,5.4-4.5,5.2-8L388,465.2z M47.7,68.8c0.8-6.4,4.1-12,9.2-15.9
			c4.2-3.2,9.3-4.9,14.5-4.9c1.1,0,2.1,0.1,3.2,0.2c6.4,0.8,12,4.1,15.9,9.1l61.9,81.2c8.1,10.5,6.1,25.6-4.4,33.7
			c-10.5,8-25.6,6.1-33.6-4.4L52.4,86.6C48.5,81.5,46.8,75.2,47.7,68.8z"/>
	</g>
	<g>
		<path class="st0" d="M424.3,18C409.1,4.7,389.8-1.6,369.7,0.3c-19.8,1.9-38.1,12.1-50.2,27.8l-61.8,81.2
			c-18.7,24.3-19.7,57.6-3.2,83L224,232c-22,0-39.9,18-39.9,40c0,3.4,0.5,6.9,1.4,10.2l-110.6,144c-8.7,11.3-13.8,24.8-14.7,39.1
			l-2.5,38.2c-0.2,3.5,1.9,6.8,5.2,8c0.9,0.4,1.9,0.5,2.8,0.5c2.4,0,4.8-1.1,6.3-3.1L223.1,312c0.3,0,0.6,0,1,0
			c22.1,0,40-17.9,40-40c0-3.8-0.5-7.6-1.6-11.2l30.1-39.2c28.8,9.4,60.7-0.2,79.4-24.6l60.5-79.4C456.1,86.6,452.6,42.9,424.3,18z
			 M395.7,86.6C395.7,86.6,395.7,86.6,395.7,86.6l-61.9,81.2c-8.1,10.5-23.1,12.5-33.7,4.4c-5.1-3.9-8.3-9.5-9.2-15.9
			c-0.8-6.4,0.9-12.7,4.8-17.8l61.8-81.2c3.9-5.1,9.5-8.3,15.9-9.2c1.1-0.1,2.1-0.2,3.2-0.2c5.2,0,10.3,1.7,14.5,4.9
			c5.1,3.9,8.3,9.5,9.2,15.9C401.3,75.2,399.6,81.5,395.7,86.6z"/>
	</g>
	<g>
		<path class="st1" d="M223.8,256c-8.8,0-16,7.2-16,16s7.2,16,16,16s16-7.2,16-16S232.7,256,223.8,256z"/>
	</g>
</g>

</svg>
