<!-- Generator: Adobe Illustrator 23.0.1, SVG Export Plug-In  -->
<svg version="1.1" xmlns="http://www.w3.org/2000/svg" xmlns:xlink="http://www.w3.org/1999/xlink" x="0px" y="0px" width="129.5px"
	 height="40.3px" viewBox="0 0 129.5 40.3" style="enable-background:new 0 0 129.5 40.3;" xml:space="preserve">
<style type="text/css">
	.st0{fill:#FFFFFF;}
	.st1{fill:#B0D236;}
	.st2{fill:#414042;}
	.st3{fill:#FFCF01;}
</style>
<defs>
</defs>
<path class="st0" d="M8.6,39.9c-2.4,0-4.5-2-4.7-4.4L0.4,4.7c-0.1-1.2,0.2-2.2,0.9-3C2,0.8,3.1,0.4,4.2,0.4h121.2
	c1.1,0,2.1,0.4,2.8,1.3c0.7,0.8,1,1.9,0.9,3l-3.4,30.8c-0.2,2.4-2.4,4.4-4.7,4.4H8.6z"/>
<path class="st1" d="M125.3,0.8c1,0,1.9,0.4,2.6,1.1c0.6,0.7,0.9,1.7,0.8,2.7l-3.4,30.8c-0.2,2.2-2.2,4-4.3,4H8.6
	c-2.1,0-4.1-1.8-4.3-4L0.8,4.7c-0.1-1,0.2-2,0.8-2.7c0.6-0.7,1.5-1.1,2.6-1.1H125.3 M125.3,0H4.2C1.6,0-0.2,2.1,0,4.8l3.4,30.8
	c0.3,2.6,2.6,4.8,5.1,4.8h112.4c2.5,0,4.9-2.1,5.1-4.8l3.4-30.8C129.8,2.1,127.9,0,125.3,0"/>
<path class="st2" d="M57,11.6h-7.9v5.1h6.6c0.6,0,1.1,0.1,1.4,0.4c0.3,0.3,0.5,0.6,0.5,1.1c0,0.5-0.2,0.8-0.5,1.1
	c-0.3,0.3-0.8,0.4-1.4,0.4h-6.6v6.5c0,0.8-0.2,1.4-0.6,1.8c-0.4,0.4-0.9,0.6-1.4,0.6c-0.6,0-1.1-0.2-1.5-0.6c-0.4-0.4-0.6-1-0.6-1.8
	V11c0-0.6,0.1-1,0.3-1.4c0.2-0.4,0.4-0.6,0.8-0.8c0.4-0.2,0.8-0.2,1.4-0.2H57c0.6,0,1.1,0.1,1.4,0.4c0.3,0.3,0.5,0.7,0.5,1.1
	c0,0.5-0.2,0.8-0.5,1.1C58.1,11.4,57.6,11.6,57,11.6"/>
<path class="st2" d="M63,23.3v3.1c0,0.7-0.2,1.3-0.5,1.7c-0.4,0.4-0.8,0.6-1.3,0.6c-0.5,0-1-0.2-1.3-0.6c-0.3-0.4-0.5-0.9-0.5-1.7
	V16.1c0-1.7,0.6-2.5,1.8-2.5c0.6,0,1.1,0.2,1.3,0.6c0.3,0.4,0.4,1,0.5,1.7c0.4-0.8,0.9-1.3,1.4-1.7c0.5-0.4,1.1-0.6,1.9-0.6
	c0.8,0,1.5,0.2,2.3,0.6c0.7,0.4,1.1,0.9,1.1,1.5c0,0.5-0.2,0.8-0.5,1.1c-0.3,0.3-0.7,0.4-1,0.4c-0.1,0-0.5-0.1-1-0.2
	c-0.5-0.2-1-0.3-1.4-0.3c-0.5,0-1,0.1-1.3,0.4c-0.3,0.3-0.6,0.7-0.8,1.3c-0.2,0.6-0.3,1.2-0.4,2C63,21.3,63,22.2,63,23.3"/>
<path class="st2" d="M83,21.2c0,1.1-0.2,2.1-0.5,3c-0.3,0.9-0.8,1.7-1.5,2.4c-0.6,0.7-1.4,1.2-2.3,1.5s-1.9,0.5-3,0.5
	c-1.1,0-2.1-0.2-3-0.5c-0.9-0.4-1.7-0.9-2.3-1.5c-0.7-0.7-1.2-1.5-1.5-2.4c-0.3-0.9-0.5-1.9-0.5-3c0-1.1,0.2-2.1,0.5-3.1
	c0.3-0.9,0.8-1.7,1.5-2.4c0.6-0.7,1.4-1.2,2.3-1.5c0.9-0.4,1.9-0.5,3-0.5c1.1,0,2.1,0.2,3,0.5c0.9,0.4,1.7,0.9,2.3,1.5
	c0.6,0.7,1.1,1.5,1.5,2.4C82.8,19,83,20.1,83,21.2 M79.2,21.2c0-1.5-0.3-2.7-1-3.5c-0.7-0.8-1.6-1.3-2.7-1.3c-0.7,0-1.4,0.2-1.9,0.6
	c-0.6,0.4-1,0.9-1.3,1.7c-0.3,0.7-0.4,1.6-0.4,2.6c0,1,0.1,1.8,0.4,2.5c0.3,0.7,0.7,1.3,1.3,1.7c0.5,0.4,1.2,0.6,1.9,0.6
	c1.1,0,2-0.4,2.7-1.3C78.9,23.8,79.2,22.7,79.2,21.2"/>
<path class="st2" d="M98.2,16.4v10.7c0,1.2-0.1,2.3-0.4,3.2c-0.3,0.9-0.7,1.6-1.3,2.2c-0.6,0.6-1.3,1-2.3,1.3
	c-0.9,0.3-2.1,0.4-3.5,0.4c-1.3,0-2.4-0.2-3.4-0.5c-1-0.4-1.8-0.8-2.3-1.4c-0.5-0.6-0.8-1.1-0.8-1.7c0-0.5,0.2-0.8,0.5-1.1
	c0.3-0.3,0.7-0.4,1.1-0.4c0.5,0,1,0.2,1.4,0.7c0.2,0.2,0.4,0.5,0.6,0.7c0.2,0.2,0.4,0.5,0.7,0.6c0.3,0.2,0.6,0.3,0.9,0.4
	c0.4,0.1,0.8,0.1,1.2,0.1c1,0,1.7-0.1,2.2-0.4c0.5-0.3,0.9-0.6,1.1-1.1c0.2-0.5,0.3-1,0.4-1.5c0-0.5,0.1-1.4,0.1-2.6
	c-0.6,0.8-1.2,1.4-2,1.8c-0.7,0.4-1.6,0.6-2.7,0.6c-1.2,0-2.3-0.3-3.2-0.9c-0.9-0.6-1.6-1.5-2.1-2.7c-0.5-1.1-0.7-2.5-0.7-3.9
	c0-1.1,0.2-2.1,0.5-3c0.3-0.9,0.7-1.6,1.3-2.3c0.6-0.6,1.2-1.1,1.9-1.4c0.7-0.3,1.5-0.5,2.4-0.5c1,0,2,0.2,2.7,0.6
	c0.8,0.4,1.5,1,2.1,1.9v-0.5c0-0.6,0.2-1.1,0.5-1.5c0.3-0.4,0.7-0.5,1.2-0.5c0.7,0,1.2,0.2,1.4,0.7C98.1,14.8,98.2,15.5,98.2,16.4
	 M87.5,21c0,1.5,0.3,2.6,1,3.4c0.7,0.8,1.5,1.2,2.5,1.2c0.6,0,1.2-0.2,1.7-0.5c0.5-0.3,1-0.8,1.3-1.5c0.3-0.7,0.5-1.5,0.5-2.4
	c0-1.5-0.3-2.7-1-3.5c-0.7-0.8-1.5-1.3-2.6-1.3c-1.1,0-1.9,0.4-2.5,1.2C87.8,18.4,87.5,19.6,87.5,21"/>
<path class="st2" d="M113.8,21.2c0,1.1-0.2,2.1-0.5,3c-0.3,0.9-0.8,1.7-1.5,2.4c-0.7,0.7-1.4,1.2-2.3,1.5c-0.9,0.4-1.9,0.5-3,0.5
	c-1.1,0-2.1-0.2-3-0.5c-0.9-0.4-1.7-0.9-2.3-1.5c-0.7-0.7-1.2-1.5-1.5-2.4c-0.3-0.9-0.5-1.9-0.5-3c0-1.1,0.2-2.1,0.5-3.1
	c0.3-0.9,0.8-1.7,1.5-2.4c0.6-0.7,1.4-1.2,2.3-1.5c0.9-0.4,1.9-0.5,3-0.5c1.1,0,2.1,0.2,3,0.5c0.9,0.4,1.7,0.9,2.3,1.5
	c0.7,0.7,1.1,1.5,1.5,2.4C113.6,19,113.8,20.1,113.8,21.2 M110.1,21.2c0-1.5-0.3-2.7-1-3.5c-0.7-0.8-1.6-1.3-2.7-1.3
	c-0.7,0-1.4,0.2-1.9,0.6c-0.6,0.4-1,0.9-1.3,1.7c-0.3,0.7-0.4,1.6-0.4,2.6c0,1,0.1,1.8,0.4,2.5c0.3,0.7,0.7,1.3,1.3,1.7
	c0.5,0.4,1.2,0.6,1.9,0.6c1.1,0,2-0.4,2.7-1.3C109.8,23.8,110.1,22.7,110.1,21.2"/>
<path class="st1" d="M39.1,16.1c0.2-0.1,0.4-0.3,0.6-0.4c0.1,0,0.2-0.1,0.3-0.1c0.3-0.1,0.6,0.1,0.6,0.5c0,0.1,0,0.2-0.1,0.3
	c-0.1,0.3-0.4,0.5-0.6,0.7c-0.5,0.5-1,0.9-1.5,1.4c-0.4,0.4-0.9,0.5-1.4,0.4c-0.6-0.2-0.8-0.6-0.9-1.2c-0.1-0.7-0.3-1.5-0.4-2.2
	c0-0.4-0.1-0.8,0-1.1c0-0.1,0-0.4,0.5-0.4c0.2,0,0.4,0.3,0.4,0.5c0.1,0.3,0.1,0.7,0.3,1.1c0,0.1,0.1,0.2,0.2,0.3
	c0.1,0.1,0.3,0.1,0.3,0c0.1-0.1,0.1-0.2,0.1-0.2c0.2-0.4,0.2-0.8,0.4-1.1c0.1-0.1,0.2-0.2,0.4-0.3c0.2-0.1,0.5,0,0.6,0.2
	c0.1,0.1,0.1,0.2,0.1,0.5c0,0.3-0.1,0.6-0.2,0.9C38.3,16.4,38.7,16.4,39.1,16.1"/>
<path class="st1" d="M17.1,16.1c-0.2-0.1-0.4-0.3-0.6-0.4c-0.1,0-0.2-0.1-0.3-0.1c-0.3-0.1-0.6,0.1-0.6,0.5c0,0.1,0,0.2,0.1,0.3
	c0.1,0.3,0.4,0.5,0.6,0.7c0.5,0.5,1,0.9,1.5,1.4c0.4,0.4,0.9,0.5,1.4,0.4c0.6-0.2,0.8-0.6,0.9-1.2c0.1-0.7,0.3-1.5,0.4-2.2
	c0-0.4,0.1-0.8,0-1.1c0-0.1,0-0.4-0.5-0.4c-0.2,0-0.4,0.3-0.4,0.5c-0.1,0.3-0.1,0.7-0.3,1.1c0,0.1-0.1,0.2-0.2,0.3
	c-0.1,0.1-0.3,0.1-0.3,0c-0.1-0.1-0.1-0.2-0.1-0.2c-0.2-0.4-0.2-0.8-0.4-1.1C18.3,14.1,18.1,14,18,14c-0.2-0.1-0.5,0-0.6,0.2
	c-0.1,0.1-0.1,0.2,0,0.5c0,0.3,0.1,0.6,0.2,0.9C17.8,16.4,17.5,16.4,17.1,16.1"/>
<path class="st1" d="M24.2,30L24.2,30c0.7-0.5,0.4-1.3,0-2.3c-0.9-2.1-2.1-4.7-3.4-6.4c-0.6-0.8-1.8-1.1-2.5-0.6
	c-0.7,0.5-1,1.6-0.5,2.6c0.9,1.8,3,4.5,4.4,5.8C23,29.8,23.5,30.5,24.2,30"/>
<path class="st1" d="M31.6,30L31.6,30c-0.7-0.5-0.4-1.3,0-2.3c0.9-2.1,2.1-4.7,3.4-6.4c0.6-0.8,1.8-1.1,2.5-0.6
	c0.7,0.5,1,1.6,0.5,2.6c-0.9,1.8-3,4.5-4.4,5.8C32.9,29.8,32.4,30.5,31.6,30"/>
<path class="st1" d="M34.4,16.3l-5-4.7c-0.8-0.9-2-0.9-2.8,0l-5,4.7c-0.8,0.8-0.4,1.9,0,3c0.9,3,2.6,6.6,4.1,8.9
	c0.4,0.6,1,1.2,1.8,1.2h1c0.8,0,1.3-0.5,1.8-1.2c1.6-2.3,3.2-5.9,4.1-8.9C34.8,18.2,35.2,17.2,34.4,16.3"/>
<path class="st3" d="M31.9,8.1c0.4,0,0.8-0.3,0.8-0.8c0-0.4-0.3-0.8-0.8-0.8c-0.4,0-0.8,0.3-0.8,0.8C31.1,7.8,31.5,8.1,31.9,8.1"/>
<path class="st3" d="M34.9,10c0.3,0,0.5-0.2,0.5-0.5c0-0.3-0.2-0.5-0.5-0.5c-0.3,0-0.5,0.2-0.5,0.5C34.4,9.8,34.6,10,34.9,10"/>
<path class="st3" d="M28.1,7.1c0.5,0,0.9-0.4,0.9-0.9c0-0.5-0.4-0.9-0.9-0.9c-0.5,0-0.9,0.4-0.9,0.9C27.2,6.7,27.6,7.1,28.1,7.1"/>
<path class="st3" d="M21.3,10c0.3,0,0.5-0.2,0.5-0.5c0-0.3-0.2-0.5-0.5-0.5c-0.3,0-0.5,0.2-0.5,0.5C20.8,9.8,21,10,21.3,10"/>
<path class="st3" d="M23.3,14.8h0.2c1.4-0.8,2.9-1.2,4.5-1.2c1.7,0,3.2,0.4,4.5,1.2h0.3c0-0.8,0.1-2.7,1.4-4.4
	c0.1-0.1,0.1-0.3,0-0.4C34.2,10,34,10,33.9,10c-0.8,0.5-1.8,1.3-2.3,1.3c-0.1,0-0.1,0-0.1-0.1c-0.2-0.2-0.1-1.1,0.2-2.5
	c0-0.1,0-0.3-0.2-0.3c-0.1-0.1-0.3,0-0.4,0.1c-1,1.6-1.5,1.9-1.7,1.9c-0.3,0-0.6-0.9-0.9-2.6c0-0.1-0.1-0.2-0.3-0.2v0h0h0v0
	c-0.1,0-0.3,0.1-0.3,0.2c-0.3,1.7-0.6,2.6-0.9,2.6c-0.2,0-0.7-0.3-1.7-1.9c-0.1-0.1-0.2-0.2-0.4-0.1c-0.1,0.1-0.2,0.2-0.2,0.3
	c0.3,1.4,0.4,2.3,0.2,2.5c0,0-0.1,0.1-0.2,0.1c-0.5,0-1.5-0.7-2.3-1.3c-0.1-0.1-0.3-0.1-0.4,0c-0.1,0.1-0.1,0.3,0,0.4
	C23.2,12.2,23.3,14,23.3,14.8"/>
<path class="st3" d="M24.2,8.1c0.4,0,0.8-0.3,0.8-0.8c0-0.4-0.3-0.8-0.8-0.8c-0.4,0-0.8,0.3-0.8,0.8C23.5,7.8,23.8,8.1,24.2,8.1"/>
</svg>
