<svg xmlns="http://www.w3.org/2000/svg" viewBox="0 0 46.3 20.09"><defs><style>.cls-1{fill:#fed402;}.cls-2{fill:#e9be1f;}.cls-3{fill:#bf9f2f;}</style></defs><title>Asset 7</title><g id="Layer_2" data-name="Layer 2"><g id="Layer_1-2" data-name="Layer 1"><path class="cls-1" d="M0,20.09H7.4c.9,0,1.6-.37,1.6-.85V.85C9,.37,8.3,0,7.4,0H0Z"/><rect class="cls-2" x="9" y="1.06" width="3" height="17.44"/><path class="cls-3" d="M36.85,8.35l.25,2.17c-.3.46.3.91,1.3.91l7.22-1a.76.76,0,0,0,.68-.75h0a.78.78,0,0,0-.7-.76l-8.85-1C36.15,7.89,37.05,8.09,36.85,8.35Z"/><path class="cls-1" d="M12,1s7,3.91,12.1,4.92c5.7,1.11,6.2,1,15.4,1.21.8,0,1.5.37,1.5.8v3.8c0,.42-.7.79-1.5.79-9.3.16-9.7.06-15.4,1.22C19,14.69,12,18.61,12,18.61Z"/></g></g></svg>