<svg xmlns="http://www.w3.org/2000/svg" viewBox="0 0 85.37 93.14"><defs><style>.cls-1{fill:#1d1d1b;fill-rule:evenodd;}</style></defs><title>catf</title><g id="Layer_2" data-name="Layer 2"><g id="Layer_1-2" data-name="Layer 1"><path class="cls-1" d="M18.41,92.34s8.25,1.81,9.21-1.82c0,0,.19-13.79,0-19.74,0,0,.19-3.07,2.5,0v7.48s.57,9.21,0,10.94c0,0-2.75,3.34.25,3.59,0,0,7.23,2,7.41-3.4,0,0-1.15-.77,0-12.85,0,0-.18-8.83,0-14,0,0,9.6,13,17.84,0,0,0,1.35-1.92,2.11,0,0,0,3.64,7.49,2.11,10.55,0,0-2.11,5.37-5.56,6.9,0,0-4,2.69.19,4,0,0,2.68,1.15,5.75-1.93,0,0,4.41-5.75,5.18-8.43,0,0,2.5-1.53,1.93,1.53l-.58,3.07s-1.71,3.63-5,4.41c0,0-1.73.77.19,2.12,0,0,4.61,2.1,6.72-.77,0,0,3.45-6.15,4-10.55a74.89,74.89,0,0,0,0-14.77s-.57-3.26,2.5-11.89c0,0,2.3-12.85,1.53-18.41a2.81,2.81,0,0,1,1.15-3.07S94.75,8.26,77.87.59c0,0-5.37-2.69-10.35,3.45,0,0-1.54,4.41-.77,7.48,0,0,1.15,4.21,3.64-.77,0,0-1-2.3,2.11-3.45,0,0,2.11-2.5,4.79.76,0,0,3.08,3.43-.18,8A45.18,45.18,0,0,1,71,21.11s-21.67-4-35.1,1.91c0,0-1.72,2.11-6.32,3.08,0,0-3.26,1.14-2.88-3.65,0,0-1.15-9.21,1.53-11.32,0,0-9.39,3.7-10.73,6.46,0,0-3.84-1-6.34,0,0,0-9-3.19-11.12-3,0,0,1.34,8.06,4.61,10.55,0,0-3.27,11.7,4,13.24,0,0,0,12.08,5,16.49,0,0,6.71,11.31,7.1,12.66a29.15,29.15,0,0,1,.57,5.56c0,1.15,1.15,11.13.19,13s-5.75,3.79-3.07,6.22"/></g></g></svg>