<svg xmlns="http://www.w3.org/2000/svg" viewBox="0 0 112.25 54.17"><defs><style>.cls-1{fill:#1d1d1b;fill-rule:evenodd;}</style></defs><title>cats</title><g id="Layer_2" data-name="Layer 2"><g id="Layer_1-2" data-name="Layer 1"><path class="cls-1" d="M28.22,48.18S29.84,41.43,27,37.81a16.51,16.51,0,0,0-3.12-4.38s-.38-.75-2.12-1.25c0,0-8.08-7.48-11-11,0,0-5.4,1.71-7.82-10.21A15,15,0,0,1,.24,4.17c0-.12,0-.25,0-.36S-.91,2.56,2,3.81c0,0,3.37,2,6.25,2,0,0,1.75-1.29,5.37-1.08,0,0,2.75-3.93,4.38-4.55a2,2,0,0,1,2.75,1.25,31.09,31.09,0,0,1,.12,8,12.77,12.77,0,0,0,2.62,4.5S58,7.81,73.72,24.09a84.5,84.5,0,0,0,10.5,0s6.12-1,9-4.16c0,0,13.75-17.28,14-17.52l-.25.24s2-2,3.75-.84c0,0,2.75.37.87,4.25,0,0-6.37,12.12-15.37,18.62a19.58,19.58,0,0,1-11.38,4.41l-8,1.46a17,17,0,0,1-9,8.5s4.25,3,4.76,4.13c0,0,.87.76-1.13,2.63,0,0-5,5.37-8.26,7.25,0,0-3.12,2.12-5.12.5a25.75,25.75,0,0,0-3.75-2.13s-3.46-2.25.84-3.13a14.61,14.61,0,0,0,3.91-1.5s1.84-1.35,2.14-2.19c0,0,1.37-1.29-.91-1.59,0,0-6.38-.92-9.34-5,0,0-.84-2-4.33-2.65a41.56,41.56,0,0,0-4.79-.84s-1.9-.46-1.9.69c0,0,.84,14.2.15,15.41a4.21,4.21,0,0,1-3.56,2.89s-3.8.61-4.1-1.52c0,0-1.06-2.12,2.74-2.88l.6-.23s.61-2.74-1.45-6.61c0,0-1.36-2.28-1.66-.07,0,0,0,5-.08,5.84,0,0,.08,2.51-3.65,4,0,0-2.58.77-3.87-.76,0,0-1.75-1.82.91-2.42,0,0,1.71-.54,2.23-.76"/></g></g></svg>