<svg xmlns="http://www.w3.org/2000/svg" viewBox="0 0 491.66 256"><g id="Layer_2" data-name="Layer 2"><g id="Layer_1-2" data-name="Layer 1"><g id="Layer_2-2" data-name="Layer 2"><g id="Layer_1-2-2" data-name="Layer 1-2"><path d="M128,256,256,128,128,0,0,128Z" style="fill:#ed2024"/><path d="M128,235.7,20.34,128,128,20.37,235.66,128Z" style="fill:#fff"/><path d="M80.28,133.94c-3.94,0-6.36-1.37-7.5-3.6H44.34v13h70.87v-13H89.43c-1.75,2.24-5.17,3.6-9.16,3.6"/><path d="M86.83,129.1c1.15,0,2.81-.56,4.15-3.23a6.43,6.43,0,0,0,.43-2.21,7.93,7.93,0,0,1,.19-1.37,4.6,4.6,0,0,1,.63-.31,4.45,4.45,0,0,0,2.43-2,4.07,4.07,0,0,0,.41-1.85,11.2,11.2,0,0,0-.1-1.29,10.86,10.86,0,0,1-.1-1.27,3.23,3.23,0,0,1,0-.44c.06-.75,1.37-2.37,2.55-3.41l-1.8-2c-.55.48-3.28,3-3.48,5.22a10.86,10.86,0,0,0,.1,2.28,3.06,3.06,0,0,1,0,1.59c-.13.25-.63.47-1.08.67a3.51,3.51,0,0,0-1.92,1.44,6.49,6.49,0,0,0-.54,2.53,6.17,6.17,0,0,1-.16,1.21,5.13,5.13,0,0,1-.73,1.12,8.42,8.42,0,0,1-1,1.87v1.45"/><path d="M83.27,127.4l1.56,2.24a8.26,8.26,0,0,0,2-2,8.85,8.85,0,0,0,1-1.87l.15-.44a3.73,3.73,0,0,0-.1-2.12,2.24,2.24,0,0,1-.08-1.51,3.17,3.17,0,0,1,1-1.12,5,5,0,0,0,1.58-1.77,4.91,4.91,0,0,0-.08-3.36,5.86,5.86,0,0,1-.29-2.24l-2.69-.48a4.27,4.27,0,0,0-.08.87,9.84,9.84,0,0,0,.42,2.52,8.13,8.13,0,0,1,.27,1.39.33.33,0,0,1,0,.14,2.48,2.48,0,0,1-.79.79,5.52,5.52,0,0,0-1.84,2.14,3.83,3.83,0,0,0-.34,1.6,7.43,7.43,0,0,0,.26,1.69,4.69,4.69,0,0,1,.14.65,5.12,5.12,0,0,1-2.07,2.84"/><path d="M71.29,121.81a4.48,4.48,0,0,1,.38,1,3.35,3.35,0,0,1,.74.56,5.8,5.8,0,0,1-.07,1.81,1.54,1.54,0,0,1-.07.57,11.1,11.1,0,0,0,2.23,1.69l-1,2a21.65,21.65,0,0,0,1.64,2.05l2-1.84A12,12,0,0,1,75,126.59v-.09a8.26,8.26,0,0,1,.1-1,15.45,15.45,0,0,0,.14-1.67,3.46,3.46,0,0,0-2.11-3.39c-.4-.26-.94-.6-1-.82v-.17a3.46,3.46,0,0,1,.23-1,8.77,8.77,0,0,0,.52-3v-.57l-2.73.16a6.24,6.24,0,0,1-.38,2.53A5.31,5.31,0,0,0,69.4,120v.14a4.18,4.18,0,0,1,1.87,1.73"/><path d="M65.53,116.16a3.86,3.86,0,0,1-.14,1.35,4,4,0,0,0,.25,2.91,4.37,4.37,0,0,0,2.19,1.92,2.2,2.2,0,0,1,1.06.77,1.82,1.82,0,0,1,.16,1.17,3.4,3.4,0,0,0,.38,2.23,11.22,11.22,0,0,0,3.85,3.33l.19-.38,1-2.06a11.05,11.05,0,0,1-2.23-1.68,3.56,3.56,0,0,1-.49-.6v-.59a5.21,5.21,0,0,0-.1-1.76,4,4,0,0,0-.38-1A4.18,4.18,0,0,0,69.4,120l-.38-.2c-.58-.29-.83-.43-1-.69s-.16-.49,0-1.1a7,7,0,0,0,.19-2.18c-.16-1.8-1.55-3.31-2.67-4.52l-.83-.93-2.12,1.73.94,1c.84.9,1.88,2,2,2.91"/><path d="M77.62,118c0,2.1.5,4.92,3,4.92s3.11-3.18,3.11-4.48-1.75-6-2.17-10.42a2.68,2.68,0,0,1-1.38-.41c-.38,4.94-2.54,8.48-2.54,10.38"/><path d="M116.12,78.26c-5.36.85-29.9,5.26-32.24,5.72-3.49.67-4.31-2.49-5.89-3.24,0,0,2.35,13.81,2.49,14.83.49,3.69-2,5.59-2,8.35a4.68,4.68,0,0,0,1.71,3.68,2.51,2.51,0,0,0,1.38.41h0c2.38,0,2.9-2.39,2.9-4.21,0-2.81-1.37-4.43-1.37-5.12s.57-1.47,2.73-1.82,29.19-5,33.46-5.72S126.72,87,126,83.37s-4.52-6-9.9-5.12M118,88.32c-3.64.23-35.45,3.3-35.45,3.3l-.68-4.49s31.47-5.46,35.16-6.08,6.32.85,6.32,3.18-1.71,3.87-5.33,4.1"/><path d="M174.68,106.24c-.73,3.8-2.31,7.44-2.31,8.44,0,1.3.38,4.55,2.84,4.55s3.24-2.89,3.24-5c0-1.65-1.45-4.33-2.06-8.21a3.08,3.08,0,0,1-1.23.25,2.42,2.42,0,0,1-.47,0"/><path d="M135.18,90.35c4.27.68,34.17,5.66,36.34,6,1.23.19,2.24,1,2.24,1.34s-1.32,1.6-1.32,3.82c0,1.69.27,4.36,2.23,4.72a2.42,2.42,0,0,0,.47,0,3.08,3.08,0,0,0,1.23-.25c1.47-.65,2-2.48,2-4.16,0-3.9-2-3.13-1.54-6.82C177,94,179,80.64,179,80.64c-1.6.74-2,3.5-5.51,2.83-2.38-.47-29.8-5.47-35.17-6.37s-9,1.94-9.71,5.52,2.31,7,6.57,7.72m3.2-10.57c3.7.6,37,6.43,37,6.43l-.69,4.5s-34.45-3-38.08-3.25-5.29-1.48-5.29-3.81,2.9-4.55,7.06-3.87"/><path d="M186.74,110.51a1.86,1.86,0,0,1-.18,1.06,3.66,3.66,0,0,1-2.14,2.23l.63,2.66c1.18-.28,2.84-1.15,4-3.77a4.41,4.41,0,0,0,.42-2.32,1.53,1.53,0,0,1,.33-1.18c.26-.4.33-.42.64-.5a3.15,3.15,0,0,0,2.2-1.78,4.86,4.86,0,0,0,.35-3.59,3.69,3.69,0,0,1-.12-1.28c.1-.61.53-1.08,1.35-1.92.51-.52,1-1.06,1.46-1.63l-2.13-1.69a17.13,17.13,0,0,1-1.28,1.41,6.34,6.34,0,0,0-2.08,3.4,5.93,5.93,0,0,0,.14,2.26,2.24,2.24,0,0,1-.08,1.74c-.19.35-.19.35-.49.43a3.49,3.49,0,0,0-2.25,1.68,4.17,4.17,0,0,0-.75,2.78"/><path d="M182.08,115.13a5.9,5.9,0,0,0,2.31-3.49,6,6,0,0,0,.23-2.73,3.71,3.71,0,0,1,.08-1.59c.09-.35.12-.36.51-.57a3.53,3.53,0,0,0,2-2.53,4.35,4.35,0,0,0-.38-3.24,2.25,2.25,0,0,1-.27-1.62l-2.69-.49a5,5,0,0,0,.48,3.24,1.78,1.78,0,0,1,.22,1.42,1,1,0,0,1-.64.8,3.31,3.31,0,0,0-1.85,2.27,6.42,6.42,0,0,0-.16,2.58,3.35,3.35,0,0,1-.12,1.63,3.41,3.41,0,0,1-1.51,2.25l-.64.56,1.83,2,.61-.55"/><path d="M161.85,106a3.71,3.71,0,0,0,2,2.41c.65.4.87.56,1,1a1.74,1.74,0,0,1,0,1.15,3.32,3.32,0,0,0,0,2.2c.51,1.81,1.06,2.4,2.88,4.22l1.93-1.94c-1.73-1.72-1.87-1.92-2.19-3a.64.64,0,0,1,0-.57,4.4,4.4,0,0,0,.1-2.59,4.11,4.11,0,0,0-2.2-2.74c-.56-.35-.71-.47-.76-.69a2.4,2.4,0,0,1,.24-1.42,6.6,6.6,0,0,0,.46-3.17l-2.71.32a3.93,3.93,0,0,1-.33,1.94,5,5,0,0,0-.32,2.93"/><path d="M160,105.32a5.12,5.12,0,0,0-.3-1.73,8.31,8.31,0,0,0-2-3.41l-.77-.87-2.1,1.75.86,1a5.5,5.5,0,0,1,1.48,2.44,2.73,2.73,0,0,1,.06,1.6,4.44,4.44,0,0,0,.28,3,3.6,3.6,0,0,0,2.33,2.11c.44.17.52.2.68.53a1.26,1.26,0,0,1,.16,1,2.85,2.85,0,0,0,.16,1.91c.49,1.11,1.87,3.72,4.1,4l.39-2.7c-.54-.08-1.42-1.16-2-2.45v-.25a5.16,5.16,0,0,0,.1-.88,4.44,4.44,0,0,0-.46-1.86,3.43,3.43,0,0,0-2.21-1.93c-.47-.18-.58-.22-.78-.66a1.92,1.92,0,0,1-.18-.75,5,5,0,0,1,.08-.66,6.78,6.78,0,0,0,.15-1.27"/><path d="M177.85,121.24c-2.68,2.17-8.67,2.34-11.84-.55l-.67-.61-.82.38a11.07,11.07,0,0,1-4.15.65c-1.66,0-3,.08-3.64,1.13a2.74,2.74,0,0,0,.13,2.84,3.46,3.46,0,0,0,.32.52h6a4.38,4.38,0,0,1-3.81-1.71h1.12a15.37,15.37,0,0,0,4.37-.6,11.88,11.88,0,0,0,5.65,2.22,7.58,7.58,0,0,1,5.39-2.36v2a10.36,10.36,0,0,0,3-1.29,48.73,48.73,0,0,1,4.9,2.71,17.66,17.66,0,0,0,2.24,1.27c1.24.48,6.4.9,9.6.9V126a47.73,47.73,0,0,1-8.61-.72c-.21-.09-1.1-.62-1.8-1a37.7,37.7,0,0,0-6.08-3.24l-.71-.23-.58.47"/><path d="M163.13,125.58H152.94c-4.58,0-5.08,2.81-5.08,3.8a4.22,4.22,0,0,0,.13,1h4.14c-1.21,0-1.6-.47-1.6-1s.46-1.07,2.41-1.07h16.35a4.94,4.94,0,0,1,1.06-2.73h-7.22"/><path d="M172.05,128.32h.39l8.17-1.91-4.66-.82h-.09v.23s-3.41.16-3.81,2.49"/><path d="M146.42,130.38a4.27,4.27,0,0,0-4.4,4,4.32,4.32,0,0,0,4.53,4.06h.85c.2-1.05,1-2.54,4.14-2.71h-5a2.06,2.06,0,0,1-1.81-1.33,1.59,1.59,0,0,1,1.67-1.27h17.74V130.4H146.43"/><path d="M147.38,138.42a2.88,2.88,0,0,0-.06.59c0,2.24,2,4.06,5.34,4.06h.06c.51-1.51,2.38-2.58,4.86-2.71h-4.92c-1.69,0-2.62-.88-2.62-1.34s1.05-.59,2.08-.59h12V135.7H151.51c-3.11.17-3.95,1.67-4.14,2.71"/><path d="M152.75,143.08a2.55,2.55,0,0,0-.15.86c0,1.71,1.54,3.55,5,3.85,2.49.21,13.2.55,15.16.55,1.6,0,8.3-.22,11.92-1.27a17.92,17.92,0,0,0,2.84-1.14,16.34,16.34,0,0,1,8-1.78v-2.73a18.9,18.9,0,0,0-9.19,2,16.46,16.46,0,0,1-2.46,1c-3,.89-9.24,1.16-11.15,1.16s-12.52-.33-14.93-.53c-1.74-.15-2.46-.81-2.46-1.13.06-.17.9-.86,2.82-.86h11l-2.63-2.74h-8.9c-2.49.14-4.35,1.2-4.86,2.72"/><path d="M170.45,125.44l-.11.14a4.93,4.93,0,0,0-1.05,2.73v.46c0,2.54,1.33,7,10.29,8.1l.34-2.7c-3-.38-7.89-1.58-7.89-5.4a1.77,1.77,0,0,1,0-.46c.4-2.35,3.78-2.49,3.81-2.49v-2.73a7.59,7.59,0,0,0-5.39,2.35"/><path d="M363.66,256l128-128L363.66,0l-128,128Z" style="fill:#ed2024"/><path d="M363.66,235.7,256,128,363.66,20.37,471.32,128Z" style="fill:#fff"/><path d="M312.53,127.93h100" style="stroke:#000;stroke-width:1.7999999523162842px"/><path d="M397.51,146l11.73,8.46-11.15,5.37,15,1.35-4,5.37h8.29l.19,6L313,172s17.5-5.18,20.38-3.07c3.84-1.73,31.93-13.65,31.93-12.87m-26.93-9.24.58-30.36-15.19-8.25a7,7,0,0,0-5.57-.57c-1.16.38-2.7.76-2.7.76s8.29-6.92,9.81-6.34,12.31,5.77,12.31,5.77-1.16-8.08-4-10.38-14-11.15-14-11.15V84.1l15.19,9.23s.58-8.84-2.49-14-5.37-9.81-5.37-9.81l1-.77,7.51,11.54,2.49-7.9,1.54-.38s-1.93,11.15-.58,14.61,6.34,22.31,6.34,22.31l7.5-10.78a53.65,53.65,0,0,0-.19-7.5c-.38-3.08-1-17.3-1-17.3h1.35L355,88.92l12.12-14v1.53s-11.91,15-11.34,18.28,1.15,5.19-1,9.81-3.46,7.89-3.46,7.89,6.35-7.5,9.23-8.07c2.89-.2,6.73.19,9.42-2.12s9.23-9.6,9.23-9.6L369,108.39s-4.81.19-6.73,2.31-9.8,11.15-9.8,11.15v20.76l13.07,6.54-16,2.31L345.66,157l-5.19-4.42L326,153.88Z" style="stroke:#000;stroke-width:1.440000057220459px"/><path d="M359.29,155.63c3.66-1.53,9.6-4,13.07-9,3.59-5.17,16.34-26.92,33.85-25.17a80.67,80.67,0,0,1-4,7.3l12.48-3.85s.19,16.54-23.46,27.1c-11,3.85-13.26,4-14.22,5.37s-5.37,8.07-5.37,8.07L352,156.77S357,156.59,359.29,155.63Z" style="fill:#fff;stroke:#000;stroke-width:1.7999999523162842px"/><ellipse cx="405.19" cy="134.54" rx="2.12" ry="1.82"/></g></g></g></g></svg>