<svg xmlns="http://www.w3.org/2000/svg" viewBox="0 0 77.96 90"><title>dog</title><g id="Layer_2" data-name="Layer 2"><g id="Layer_1-2" data-name="Layer 1"><g id="Capa_1" data-name="Capa 1"><path id="Zynga" d="M61.05.35s6.19-.59,11,2.61a4.17,4.17,0,0,1,4.1,2.35c1,1.69,2.65,5.69,1.31,8.15C77,14,76.12,12,76.12,12s-.67,2.43-1.93,3.36a19.07,19.07,0,0,1-2.42,9.74A2.61,2.61,0,0,0,72,27c.25.67,3.61,12.51,3.44,16.46s-2.18,8.66-3.77,10.25a12.55,12.55,0,0,1-1.93,7.4,45.24,45.24,0,0,0-2.85,8.73c-.42,2.36-.58,4.88-.08,5.64s2.76,3.1,2.6,4.28-2.6,2.52-3.77,2.52-3.61-.76-4.19-2.35a12.08,12.08,0,0,1-.25-6c.42-1.6,3.27-13.27,1.59-20.16-4.1,1.85-11,1.76-11,1.76a65.9,65.9,0,0,1-2.6,9.66c-.5.84-.41,6.56-.41,10.17A56.73,56.73,0,0,0,50,84.62s1.76,1.26,1.51,2.86S49.24,90,47.48,90s-4.1-1.34-4.1-3.53.33-7.14.16-10.75-.08-6-.67-8.24-2.26-8.23-2.42-12.85a2.4,2.4,0,0,1-1.18-.42s-2.76,3.19-4.69,5c.26,1.26.92,3.53.92,4s.51.93,1.35,1.26,3.43,1.77,3.34,3.19-3.35,1.69-6.19.43c-.67-.34-3.1-8.49-3.44-9.58S30,56.9,30.4,56s1.56-4,1.42-5.74-3.43-4.54-5.61-4.54c-1.67,0-4.23,2.57-6.11,4-2.26,1.76-4.86,4.45-5.53,4.87s-5.94,10-6.95,12.77C7.2,68.49,6.37,74,2,73.79c-2-.17-3.85-2.36,1.84-6.31,1.45-3.34,3.46-6.8,3.58-7.5a163.76,163.76,0,0,1,4.15-17.51c2.51-8.2,6.21-12.1,6.9-12.67s.88-.69.32-1-6.53-5.42-5.4-16.26c.19-1.26.75-.94,1.13,2s2.7,9.7,7.85,11.84c.5.19,4.21-2.64,23.11-4,.13-3.34.63-6.87.63-6.87a4.52,4.52,0,0,1-1.51-3c-.63,1-1,1.26-1.82,1.13s-.75-4-.56-6.8,3.39-4,4.58-4.1A6.72,6.72,0,0,1,50,2S52.88-1,61.05.35Z"/></g></g></g></svg>