<svg 
 xmlns="http://www.w3.org/2000/svg"
 xmlns:xlink="http://www.w3.org/1999/xlink" viewBox="0 0 242 301">
<path fill-rule="evenodd"  fill="rgb(230, 19, 19)"
 d="M-0.000,0.000 L241.380,0.000 L212.000,301.000 L29.380,301.000 L-0.000,0.000 Z"/>
<path fill-rule="evenodd"  fill="rgb(194, 24, 24)"
 d="M7.369,25.882 C10.044,25.882 12.462,28.677 12.770,32.107 L35.908,290.334 C36.097,292.440 34.562,294.141 32.480,294.141 C30.398,294.141 28.544,292.440 28.338,290.334 L3.134,32.107 C2.799,28.677 4.694,25.882 7.369,25.882 Z"/>
<path fill-rule="evenodd"  fill="rgb(194, 24, 24)"
 d="M24.803,25.882 C27.478,25.882 29.856,28.677 30.114,32.107 L49.534,290.334 C49.692,292.440 48.132,294.141 46.050,294.141 C43.969,294.141 42.139,292.440 41.964,290.334 L20.478,32.107 C20.193,28.677 22.128,25.882 24.803,25.882 Z"/>
<path fill-rule="evenodd"  fill="rgb(194, 24, 24)"
 d="M42.237,25.882 C44.912,25.882 47.250,28.677 47.458,32.107 L63.159,290.334 C63.288,292.440 61.703,294.141 59.621,294.141 C57.539,294.141 55.735,292.440 55.590,290.334 L37.822,32.107 C37.586,28.677 39.562,25.882 42.237,25.882 Z"/>
<path fill-rule="evenodd"  fill="rgb(194, 24, 24)"
 d="M59.671,25.882 C62.345,25.882 64.643,28.677 64.803,32.107 L76.785,290.334 C76.883,292.440 75.274,294.141 73.192,294.141 C71.110,294.141 69.330,292.440 69.215,290.334 L55.167,32.107 C54.980,28.677 56.996,25.882 59.671,25.882 Z"/>
<path fill-rule="evenodd"  fill="rgb(194, 24, 24)"
 d="M77.105,25.882 C79.779,25.882 82.037,28.677 82.147,32.107 L90.411,290.334 C90.478,292.440 88.845,294.141 86.763,294.141 C84.681,294.141 82.925,292.440 82.841,290.334 L72.511,32.107 C72.374,28.677 74.430,25.882 77.105,25.882 Z"/>
<path fill-rule="evenodd"  fill="rgb(194, 24, 24)"
 d="M94.539,25.882 C97.213,25.882 99.431,28.677 99.491,32.107 L104.036,290.334 C104.073,292.440 102.416,294.141 100.334,294.141 C98.252,294.141 96.520,292.440 96.466,290.334 L89.855,32.107 C89.768,28.677 91.864,25.882 94.539,25.882 Z"/>
<path fill-rule="evenodd"  fill="rgb(194, 24, 24)"
 d="M111.973,25.882 C114.647,25.882 116.824,28.677 116.835,32.107 L117.662,290.334 C117.669,292.440 115.986,294.141 113.904,294.141 C111.822,294.141 110.116,292.440 110.092,290.334 L107.200,32.107 C107.161,28.677 109.298,25.882 111.973,25.882 Z"/>
<path fill-rule="evenodd"  fill="rgb(194, 24, 24)"
 d="M129.407,25.882 C132.081,25.882 134.218,28.677 134.180,32.107 L131.287,290.334 C131.264,292.440 129.557,294.141 127.475,294.141 C125.393,294.141 123.711,292.440 123.718,290.334 L124.544,32.107 C124.555,28.677 126.732,25.882 129.407,25.882 Z"/>
<path fill-rule="evenodd"  fill="rgb(194, 24, 24)"
 d="M146.841,25.882 C149.515,25.882 151.612,28.677 151.524,32.107 L144.913,290.334 C144.859,292.440 143.128,294.141 141.046,294.141 C138.964,294.141 137.306,292.440 137.343,290.334 L141.888,32.107 C141.949,28.677 144.166,25.882 146.841,25.882 Z"/>
<path fill-rule="evenodd"  fill="rgb(194, 24, 24)"
 d="M164.275,25.882 C166.949,25.882 169.006,28.677 168.868,32.107 L158.539,290.334 C158.454,292.440 156.699,294.141 154.617,294.141 C152.535,294.141 150.901,292.440 150.969,290.334 L159.233,32.107 C159.342,28.677 161.600,25.882 164.275,25.882 Z"/>
<path fill-rule="evenodd"  fill="rgb(194, 24, 24)"
 d="M181.709,25.882 C184.383,25.882 186.399,28.677 186.213,32.107 L172.164,290.334 C172.050,292.440 170.269,294.141 168.187,294.141 C166.106,294.141 164.497,292.440 164.594,290.334 L176.577,32.107 C176.736,28.677 179.034,25.882 181.709,25.882 Z"/>
<path fill-rule="evenodd"  fill="rgb(194, 24, 24)"
 d="M199.143,25.882 C201.817,25.882 203.793,28.677 203.557,32.107 L185.790,290.334 C185.645,292.440 183.840,294.141 181.758,294.141 C179.676,294.141 178.092,292.440 178.220,290.334 L193.921,32.107 C194.130,28.677 196.468,25.882 199.143,25.882 Z"/>
<path fill-rule="evenodd"  fill="rgb(194, 24, 24)"
 d="M216.577,25.882 C219.251,25.882 221.187,28.677 220.901,32.107 L199.415,290.334 C199.240,292.440 197.411,294.141 195.329,294.141 C193.247,294.141 191.687,292.440 191.846,290.334 L211.266,32.107 C211.524,28.677 213.902,25.882 216.577,25.882 Z"/>
<path fill-rule="evenodd"  fill="rgb(194, 24, 24)"
 d="M234.011,25.882 C236.685,25.882 238.580,28.677 238.246,32.107 L213.041,290.334 C212.835,292.440 210.982,294.141 208.900,294.141 C206.818,294.141 205.283,292.440 205.471,290.334 L228.610,32.107 C228.917,28.677 231.336,25.882 234.011,25.882 Z"/>
<path fill-rule="evenodd"  fill="rgb(194, 24, 24)"
 d="M-0.000,-0.000 L241.380,-0.000 L237.994,34.686 L3.386,34.686 L-0.000,-0.000 Z"/>
</svg>