<svg id="Layer_1" data-name="Layer 1" xmlns="http://www.w3.org/2000/svg" viewBox="0 0 320 106.53"><path d="M57.81,106.53h-43a2.8,2.8,0,0,1-2.74-1.69L.67,29.84A1.65,1.65,0,0,1,2.3,27.93H70.36A1.67,1.67,0,0,1,72,29.84l-11.45,75A2.8,2.8,0,0,1,57.81,106.53Z" style="fill:#ed1c24"/><path d="M19.26,75.15a4.78,4.78,0,0,1-5.06-3.86l2.46-.5a2.49,2.49,0,0,0,2.68,2,2.3,2.3,0,0,0,2.56-2.18c0-1.44-1.06-2.17-2.93-2.17H17.86V66.33h1c1.5,0,2.69-.72,2.69-2s-.85-1.87-2.25-1.87A2.33,2.33,0,0,0,17,64.23l-2.42-.52a4.64,4.64,0,0,1,4.83-3.56c2.63,0,4.79,1.23,4.79,3.85a3.38,3.38,0,0,1-2.7,3.25,3.46,3.46,0,0,1,3.08,3.56C24.53,73.58,22.3,75.15,19.26,75.15Z" style="fill:#fff"/><path d="M25.7,67.65c0-4.25,2.16-7.5,5.66-7.5S37,63.38,37,67.65s-2.13,7.5-5.65,7.5S25.7,71.94,25.7,67.65Zm8.68,0c0-2.9-1-5.19-3-5.19s-3,2.25-3,5.19,1,5.18,3,5.18S34.38,70.58,34.38,67.65Z" style="fill:#fff"/><path d="M38.78,64.42h2.41v1.31h0a3.52,3.52,0,0,1,3-1.52,3.08,3.08,0,0,1,2.9,1.67h0a3.71,3.71,0,0,1,3.38-1.67,3.83,3.83,0,0,1,3.91,4.14v6.59H52.07V68.88c0-1.67-.73-2.57-2.09-2.57s-2.14,1-2.14,2.65v6h-2.4v-6c0-1.65-.71-2.61-2.06-2.61s-2.19,1.07-2.19,2.79v5.84H38.78Z" style="fill:#fff"/><path d="M56.3,59.31h2.42V74.94H56.3Z" style="fill:#fff"/><rect y="27.93" width="72.66" height="9.85" rx="1.61" style="fill:#c60024"/><path d="M149.54,106.53h-43a2.79,2.79,0,0,1-2.74-1.69l-11.45-75A1.67,1.67,0,0,1,94,27.93h68.06a1.65,1.65,0,0,1,1.63,1.91l-11.45,75A2.78,2.78,0,0,1,149.54,106.53Z" style="fill:#ed1c24"/><path d="M111,75.15a4.79,4.79,0,0,1-5.07-3.86l2.46-.5a2.5,2.5,0,0,0,2.69,2,2.3,2.3,0,0,0,2.56-2.18c0-1.44-1.06-2.17-2.94-2.17h-1.1V66.33h1c1.5,0,2.69-.72,2.69-2s-.86-1.87-2.25-1.87a2.34,2.34,0,0,0-2.38,1.77l-2.41-.52a4.63,4.63,0,0,1,4.83-3.56c2.62,0,4.79,1.23,4.79,3.85a3.39,3.39,0,0,1-2.71,3.25,3.46,3.46,0,0,1,3.08,3.56C116.25,73.58,114,75.15,111,75.15Z" style="fill:#fff"/><path d="M117.42,67.65c0-4.25,2.17-7.5,5.67-7.5s5.64,3.23,5.64,7.5-2.12,7.5-5.64,7.5S117.42,71.94,117.42,67.65Zm8.69,0c0-2.9-1-5.19-3-5.19s-3,2.25-3,5.19,1,5.18,3,5.18S126.11,70.58,126.11,67.65Z" style="fill:#fff"/><path d="M130.5,64.42h2.42v1.31h0a3.51,3.51,0,0,1,3-1.52,3.1,3.1,0,0,1,2.9,1.67h0a3.71,3.71,0,0,1,3.37-1.67,3.84,3.84,0,0,1,3.92,4.14v6.59h-2.42V68.88c0-1.67-.73-2.57-2.08-2.57s-2.15,1-2.15,2.65v6h-2.39v-6c0-1.65-.71-2.61-2.06-2.61s-2.19,1.07-2.19,2.79v5.84H130.5Z" style="fill:#fff"/><path d="M148,59.31h2.41V74.94H148Z" style="fill:#fff"/><rect x="91.73" y="27.93" width="72.66" height="9.85" rx="1.61" style="fill:#c60024"/><path d="M295.91,106.53H238.62c-1.71,0-3.34-1-3.65-2.25L219.7,4.26a2.21,2.21,0,0,1,2.18-2.54h90.76a2.2,2.2,0,0,1,2.18,2.54l-15.26,100C299.25,105.53,297.62,106.53,295.91,106.53Z" style="fill:#40ceed"/><path d="M250.45,60.92A4.77,4.77,0,0,0,255,64a4.65,4.65,0,0,0,4.67-5,4.57,4.57,0,0,0-4.95-4.9,14.93,14.93,0,0,0-6,1.52l-3.65-2.4.74-15.49h19.83v6.34H252l-.19,4.39a19.13,19.13,0,0,1,4.26-.42c6.28,0,11.18,3.79,11.18,11.23,0,6.84-5.08,11.28-12.52,11.28-5.37,0-9.29-2.54-11-7.39Z" style="fill:#fff"/><path d="M270.72,37.71h7.21V63.32h14.7v6.75H270.72Z" style="fill:#fff"/><rect x="214.53" width="105.47" height="12" rx="6" style="fill:#28c1ea"/><polyline points="187.07 54.12 200.18 67.23 187.07 80.34" style="fill:none;stroke:#000;stroke-miterlimit:10;stroke-width:4.2789699308076985px"/></svg>