<svg xmlns="http://www.w3.org/2000/svg" viewBox="0 0 113 28"><defs><style>.cls-1{fill:#0d71ba;}.cls-2{fill:#0168a1;}.cls-3{fill:#3196d3;}</style></defs><title>kapkb</title><g id="Layer_2" data-name="Layer 2"><g id="Layer_1-2" data-name="Layer 1"><path class="cls-1" d="M37,27.9V.3l72.7,3.6A3.73,3.73,0,0,1,113,7.7V20.5a3.73,3.73,0,0,1-3.3,3.8Z"/><path class="cls-2" d="M86.7,28H37V0H86.7A5.34,5.34,0,0,1,92,5.3V22.7A5.34,5.34,0,0,1,86.7,28Z"/><path class="cls-3" d="M66,23H9a9,9,0,0,1-9-9H0A9,9,0,0,1,9,5H66a9,9,0,0,1,9,9h0A9,9,0,0,1,66,23Z"/></g></g></svg>