<svg xmlns="http://www.w3.org/2000/svg" viewBox="0 0 19.23 19.05"><defs><style>.cls-1{fill:none;stroke:#fff;stroke-linecap:round;stroke-linejoin:round;stroke-width:0.75px;}</style></defs><title>kaps</title><g id="Layer_2" data-name="Layer 2"><g id="Layer_1-2" data-name="Layer 1"><path class="cls-1" d="M17,16.23H8.46c-1.94,0-3.88,0-5.83,0-.33,0-.43-.1-.39-.43.22-1.77.42-3.54.62-5.31.15-1.35.29-2.71.43-4.07.09-.83.19-1.67.27-2.5,0-.29.13-.4.44-.39H15.28c.23,0,.4,0,.43.32.12,1.28.28,2.56.42,3.85.17,1.51.33,3,.5,4.54.13,1.16.26,2.33.38,3.5A3.59,3.59,0,0,1,17,16.23Zm-7.41,1H1.08c-.36,0-.66.15-.7.5a1,1,0,0,0,.25.75,1.08,1.08,0,0,0,.69.16H17.86a1.55,1.55,0,0,0,.43,0,.64.64,0,0,0,.56-.61c0-.53-.2-.77-.79-.77Zm5.6-14.81c-.93-.53-1.88-1-2.77-1.61a3,3,0,0,0-1.9-.46,15.79,15.79,0,0,1-1.82,0,2.89,2.89,0,0,0-2,.5c-.27.19-.57.34-.85.5L4.06,2.47l0,.08H15.18Z"/></g></g></svg>