<!-- Generator: Adobe Illustrator 25.2.1, SVG Export Plug-In  -->
<svg version="1.1" xmlns="http://www.w3.org/2000/svg" xmlns:xlink="http://www.w3.org/1999/xlink" x="0px" y="0px" width="60.5px"
	 height="52.8px" viewBox="0 0 60.5 52.8" style="overflow:visible;enable-background:new 0 0 60.5 52.8;" xml:space="preserve">
<style type="text/css">
	.st0{fill-rule:evenodd;clip-rule:evenodd;fill:#DA1F33;}
	.st1{fill-rule:evenodd;clip-rule:evenodd;fill:#F47920;}
</style>
<defs>
</defs>
<path class="st0" d="M30.2,14.9c6.3,0,11.5,5.2,11.4,11.5s-5.2,11.5-11.5,11.4c-6.3,0-11.5-5.2-11.4-11.5
	C18.8,20,23.9,14.8,30.2,14.9z"/>
<path class="st1" d="M30.2,52.8c14.5,0,26.4-11.7,26.4-26.3c0-4-0.9-8-2.6-11.6H37.4c6.4,3.9,8.4,12.2,4.5,18.5
	c-2.5,4.1-6.9,6.5-11.7,6.5H0v12.8H30.2z M30.2,0L30.2,0C15.7,0,3.9,11.8,3.8,26.4c0,4,0.9,7.9,2.6,11.5h16.6
	c-6.4-3.9-8.4-12.2-4.5-18.5c2.5-4.1,6.9-6.5,11.7-6.5h30.2V0H30.2z"/>
</svg>
