<svg id="Layer_1" data-name="Layer 1" xmlns="http://www.w3.org/2000/svg" viewBox="0 0 423.47 52.75"><path d="M30.25,14.85A11.47,11.47,0,1,1,18.76,26.3,11.48,11.48,0,0,1,30.25,14.85Z" style="fill:#da1a32;fill-rule:evenodd"/><path d="M30.23,52.75A26.34,26.34,0,0,0,54,14.92H37.37a13.48,13.48,0,0,1-7.14,25H0V52.75ZM30.25,0h0A26.44,26.44,0,0,0,3.84,26.35,26.09,26.09,0,0,0,6.47,37.83H23.11a13.48,13.48,0,0,1,7.14-25H60.47V0Z" style="fill:#f47920;fill-rule:evenodd"/><path d="M423.47,43.15h-27.6V38.49L409,25.71,396.54,14.57v-5h25.82v5.85H407.15L418,25.78,406.56,37.35h16.91Zm-31.63,0h-7.37V28.23H369.53V43.15h-7.45V9.6h7.45V22.1h14.94V9.6h7.45ZM357.36,15.64h-10.7V43.15h-7.5V15.64H328.47v-6h28.89ZM323.52,43.15h-7.45V9.6h7.45Zm-15.18,0h-7.69l-14.75-23v23h-7.36V9.6h7.76L301,32.69V9.6h7.31Zm-35.84,0H245.3V9.6h26.25v5.85H252.63v7.12H270v5.8H252.63V37h19.84ZM232.4,32.93h0a3.82,3.82,0,0,0-1.69-3.42,7.84,7.84,0,0,0-4.43-1.14h-8.81V37.1h8.83a8.28,8.28,0,0,0,4.12-.87,3.57,3.57,0,0,0,2-3.31Zm-1.05-14h0a3,3,0,0,0-1.69-2.9,8.35,8.35,0,0,0-3.69-.64h-8.5v7.17h8.59a7.35,7.35,0,0,0,3.57-.73,3.07,3.07,0,0,0,1.69-2.9Zm8.78,13.9h0a9,9,0,0,1-3.92,7.86c-2.34,1.64-5.46,2.45-9.33,2.45h-16.5V9.6h17.09a14.4,14.4,0,0,1,7.95,2,7.69,7.69,0,0,1,3.43,6.78,7.36,7.36,0,0,1-1.12,4,6.58,6.58,0,0,1-3.21,2.68,8.63,8.63,0,0,1,4.18,3,7.92,7.92,0,0,1,1.43,4.78ZM195,30.67h0l-5.11-14.35-5,14.35Zm12.26,12.47h-7.83l-2.45-6.91h-14l-2.47,6.92h-7.81L185.59,9.6h8.52Zm-36.72,0h-8.14l-7.89-25-7.94,25.09h-8.06L150.84,9.6h7.23Zm-33.11,0h-9L116.52,27.82l-3.85,3.55V43.15h-7.45V9.6h7.45V23.41L126.8,9.6h9.28L121.69,23.17Zm-35.6,0H74.19V38.49L87.34,25.71,74.83,14.57v-5h25.82v5.85H85.47L96.34,25.81,84.87,37.35h16.92Z" style="fill:#f2f2f2;fill-rule:evenodd"/></svg>