<svg xmlns="http://www.w3.org/2000/svg" viewBox="0 0 49.28 38"><defs><style>.cls-1{fill:#fed402;}.cls-2{fill:#e9be1f;}.cls-3{fill:#bf9f2f;}</style></defs><title>mitiy_1</title><g id="Layer_2" data-name="Layer 2"><g id="Layer_1-2" data-name="Layer 1"><path class="cls-1" d="M0,38H7.4A1.58,1.58,0,0,0,9,36.4V1.6A1.58,1.58,0,0,0,7.4,0H0Z"/><rect class="cls-2" x="9" y="2" width="3" height="33"/><path class="cls-3" d="M47.6,21.1l1.6-4.3A1.34,1.34,0,0,0,47.9,15H40v7h6.3A1.42,1.42,0,0,0,47.6,21.1Z"/><path class="cls-1" d="M12,1.8s7,7.4,12.1,9.3c5.7,2.1,6.2,1.9,15.4,2.3A1.54,1.54,0,0,1,41,14.9v7.2a1.54,1.54,0,0,1-1.5,1.5c-9.3.3-9.7.1-15.4,2.3C19,27.8,12,35.2,12,35.2Z"/></g></g></svg>