<!-- Generator: Adobe Illustrator 24.3.0, SVG Export Plug-In  -->
<svg version="1.1" xmlns="http://www.w3.org/2000/svg" xmlns:xlink="http://www.w3.org/1999/xlink" x="0px" y="0px" width="50px"
	 height="37px" viewBox="0 0 50 37" style="overflow:visible;enable-background:new 0 0 50 37;" xml:space="preserve">
<style type="text/css">
	.st0{fill:#4D4D4D;}
	.st1{fill:#333333;}
</style>
<defs>
</defs>
<g id="XMLID_1_">
	<path id="XMLID_3_" class="st0" d="M44.6,24H33.4c-3,0-5.4-2.4-5.4-5.4v-0.2c0-3,2.4-5.4,5.4-5.4h11.2c3,0,5.4,2.4,5.4,5.4v0.2
		C50,21.6,47.6,24,44.6,24z"/>
	<path id="XMLID_2_" class="st1" d="M27.1,7L24,4.3v-1C24,2.6,23.4,2,22.6,2H11V0H0v19.3V21v16h11v-3h11c0.8-0.2,2-1.5,2-1.5v0.2
		l3.1-2.7h4.7c1.2,0,2.2-1,2.2-2.2V22v-1.8v-11C34,8,33,7,31.8,7H27.1z"/>
</g>
</svg>
