<svg 
 xmlns="http://www.w3.org/2000/svg"
 xmlns:xlink="http://www.w3.org/1999/xlink"
 width="34px" height="46px">
<path fill-rule="evenodd"  fill="rgb(85, 85, 85)"
 d="M4.000,16.000 L30.000,16.000 C32.209,16.000 34.000,17.791 34.000,20.000 L34.000,34.000 C34.000,40.627 28.627,46.000 22.000,46.000 L12.000,46.000 C5.373,46.000 0.000,40.627 0.000,34.000 L0.000,20.000 C0.000,17.791 1.791,16.000 4.000,16.000 Z"/>
<path fill-rule="evenodd"  fill="rgb(85, 85, 85)"
 d="M9.000,-0.000 L9.000,-0.000 C10.657,-0.000 12.000,1.343 12.000,3.000 L12.000,16.000 L6.000,16.000 L6.000,3.000 C6.000,1.343 7.343,-0.000 9.000,-0.000 Z"/>
<path fill-rule="evenodd"  fill="rgb(85, 85, 85)"
 d="M25.000,-0.000 L25.000,-0.000 C26.657,-0.000 28.000,1.343 28.000,3.000 L28.000,16.000 L22.000,16.000 L22.000,3.000 C22.000,1.343 23.343,-0.000 25.000,-0.000 Z"/>
</svg>