<svg xmlns="http://www.w3.org/2000/svg" viewBox="0 0 566.7 566.66"><g id="Layer_2" data-name="Layer 2"><g id="Layer_1-2" data-name="Layer 1"><g id="Layer_2-2" data-name="Layer 2"><g id="Layer_1-2-2" data-name="Layer 1-2"><path d="M19.3,283.33l264,264L547.4,283.28q-132.07-131.92-264-264Z" style="fill:#fff"/><path d="M0,283.33,283.33,566.66,566.7,283.28,283.38,0Zm521.82-.05L283.33,521.76,45,283.26,283.38,44.88Z" style="fill:#ed2024"/><path d="M283.17,136.48a18.47,18.47,0,0,0-1.92.05c-12.36.85-23.29,5.22-30.15,12.05a22.74,22.74,0,0,0-4.77,6.53,18.22,18.22,0,0,0-1.65,4.75,12.61,12.61,0,0,0-.28,3.52,15.66,15.66,0,0,0,.25,3.68c.25,1.38,19.5,131.43,19.78,133.57a21.89,21.89,0,0,0,1.25,4.85,21.23,21.23,0,0,0,16.72,13.38,29.38,29.38,0,0,0,5.93,0,21.34,21.34,0,0,0,18-18.25c.34-2.62,19.53-132.37,19.78-133.65a16,16,0,0,0,.22-3.53,14.91,14.91,0,0,0-.5-4.7,22.8,22.8,0,0,0-4.12-7.92,33.47,33.47,0,0,0-6.45-5.9,49.61,49.61,0,0,0-20.61-7.8,50.84,50.84,0,0,0-8.54-.63h-2.94Zm2.1,201.13h-1.42a30.27,30.27,0,0,0-20.17,9.1,28.51,28.51,0,0,0-4.08,5,33.78,33.78,0,0,0-5.52,15.13,62.81,62.81,0,0,0,0,8,34.24,34.24,0,0,0,7.25,17.53,39.2,39.2,0,0,0,4.15,4.3,30.75,30.75,0,0,0,12.4,6.52,31.38,31.38,0,0,0,14.8,0A31.71,31.71,0,0,0,311.13,390a34.11,34.11,0,0,0,5.62-16.32,49.91,49.91,0,0,0-.15-7.13,34.6,34.6,0,0,0-3.22-10.9,31.72,31.72,0,0,0-23.9-17.8,34.66,34.66,0,0,0-4.2-.22Z"/></g></g></g></g></svg>