<svg xmlns="http://www.w3.org/2000/svg" viewBox="0 0 121.89 58.71"><title>anthelalogo_1</title><g id="Layer_2" data-name="Layer 2"><g id="Layer_1-2" data-name="Layer 1"><rect width="121.89" height="58.71" style="fill:#ad923d"/><rect x="2.83" width="116.22" height="55.87" style="fill:#fdfad9"/><path d="M105.6,28.05c-.37-.66-.71-1.31-1-2a2.4,2.4,0,0,0-2-1.22,1.68,1.68,0,0,0-1.19.63,2.9,2.9,0,0,0-.68,1.43,12.22,12.22,0,0,0-.16,2v.81c0,.53,0,1,0,1.52a15,15,0,0,0,.09,1.59,4.24,4.24,0,0,0,.28,1.68,1.42,1.42,0,0,0,1.37,1,1.52,1.52,0,0,0,1.46-1,8.16,8.16,0,0,0,.5-1.65l1.3-4.85Zm6.38,5.1a6.35,6.35,0,0,1-.28,2.12,1.61,1.61,0,0,1-1.58,1.34,2.1,2.1,0,0,1-1.59-.72,3.61,3.61,0,0,1-.75-1.49A8.6,8.6,0,0,1,105.42,36a6.89,6.89,0,0,1-2.93.62,6.58,6.58,0,0,1-4.91-1.84,6.13,6.13,0,0,1-1.65-4.39A7.09,7.09,0,0,1,97.45,26a5.69,5.69,0,0,1,4.67-2.24,3.75,3.75,0,0,1,2.27.69,4.9,4.9,0,0,1,1.53,1.65l1-2H111l-2.43,9a1.63,1.63,0,0,0,.37,1,1.3,1.3,0,0,0,1.06.46,1.19,1.19,0,0,0,1-.59,2.52,2.52,0,0,0,.34-1.21H112l0,.43Zm-17.76-.84a6.27,6.27,0,0,1-.5,2.74,2.48,2.48,0,0,1-2.46,1.56,2.62,2.62,0,0,1-2.33-1.21A10.19,10.19,0,0,1,88,33L87,29.45l-3.42,6.88H78.82L85.23,23.5a8.39,8.39,0,0,0-.5-1.86A1.84,1.84,0,0,0,81.87,21a2.87,2.87,0,0,0-.56,1.71H80.22a6.94,6.94,0,0,1,.53-3,2.7,2.7,0,0,1,2.67-1.78,2.39,2.39,0,0,1,2.15,1.21,11.9,11.9,0,0,1,.81,2.31l2.86,9.74A13.68,13.68,0,0,0,89.86,33,1.75,1.75,0,0,0,91.48,34a1.41,1.41,0,0,0,1.37-.82,3.58,3.58,0,0,0,.28-1.55h1.06l0,.65ZM77.85,33.87A8.12,8.12,0,0,1,75,35.92a8.78,8.78,0,0,1-3.61.75,7.81,7.81,0,0,1-3.92-.93,3.18,3.18,0,0,1-1.86-2.87,3,3,0,0,1,.65-1.9,3.72,3.72,0,0,1,1.83-1.24,4.15,4.15,0,0,1-1.36-1.12,2.43,2.43,0,0,1-.5-1.43,2.94,2.94,0,0,1,2-2.68A8.59,8.59,0,0,1,72,23.69a10,10,0,0,1,3.33.5c1.31.47,2,1.15,2,2a1.21,1.21,0,0,1-.46,1,1.77,1.77,0,0,1-1.16.37,1.93,1.93,0,0,1-1.89-1.4c-.34-.93-.81-1.4-1.43-1.4a1.46,1.46,0,0,0-1.31.56,2.68,2.68,0,0,0-.37,1.46,2.72,2.72,0,0,0,.4,1.59,1.11,1.11,0,0,0,1,.44,7.62,7.62,0,0,0,.9,0c.22,0,.46-.07.75-.1.93,0,1.4.38,1.4,1.09a.84.84,0,0,1-.47.78,2.15,2.15,0,0,1-1.15.25,7.37,7.37,0,0,1-.87-.1,8.9,8.9,0,0,0-1-.09,1.2,1.2,0,0,0-1.09.59,2.55,2.55,0,0,0-.31,1.25,2.41,2.41,0,0,0,.65,1.77,2.77,2.77,0,0,0,2,.66,5,5,0,0,0,2.21-.56A12.89,12.89,0,0,0,77,33.06l.84.81Zm1.22-15.16h0a1.51,1.51,0,0,0-.1-.53,1.31,1.31,0,0,0-1.27-.62,2.2,2.2,0,0,0-1.18.31,10.41,10.41,0,0,0-.94.72l-4.32,3.64h1.43l5-2.15.74-.31a1.08,1.08,0,0,0,.53-.53,1.15,1.15,0,0,0,.13-.53ZM57.79,27.77H53.15c0,.75,0,1.71.09,2.92s.1,1.94.1,2.15a4,4,0,0,0,.4,1.9,1.89,1.89,0,0,0,1.78,1.09,2,2,0,0,0,1.15-.37,1.88,1.88,0,0,0,.68-1A5.83,5.83,0,0,0,57.6,33a17.4,17.4,0,0,0,.09-1.81l.1-3.39Zm-.1-1.37V24.22a11.72,11.72,0,0,0-.34-3.39c-.34-1.31-1-2-2-2a1.85,1.85,0,0,0-1.28.46,3.38,3.38,0,0,0-.65,1.09,6.69,6.69,0,0,0-.25,2v4Zm5,.93a11.86,11.86,0,0,1-1.49,6,6.3,6.3,0,0,1-5.76,3.3,6.14,6.14,0,0,1-5.72-3.39,12.09,12.09,0,0,1-1.5-6.14,11.28,11.28,0,0,1,1.53-5.88A6.09,6.09,0,0,1,55.27,18a6.4,6.4,0,0,1,5.81,3.27,11.41,11.41,0,0,1,1.59,6.1ZM46.25,25.12a1.86,1.86,0,0,1-.32,1c-.18.37-.4.71-.59,1l-5.85,9.19H38.25l-3.49-8.5c-.15-.25-.25-.53-.37-.78a.87.87,0,0,0-.72-.53.88.88,0,0,0-.68.35,3,3,0,0,0-.4,1.18H31.53a5.36,5.36,0,0,1,.71-2.9A3.06,3.06,0,0,1,35,23.63a3.63,3.63,0,0,1,2.37.74,5.25,5.25,0,0,1,1.31,1.9l2.14,5.23a12.85,12.85,0,0,0,1.25-2.36,7.44,7.44,0,0,0,.49-2.55l-.12-1.53A1.22,1.22,0,0,1,43,24a1.9,1.9,0,0,1,1.27-.4,2.25,2.25,0,0,1,1.4.4,1.28,1.28,0,0,1,.57,1.09ZM21.88,30l-3.2-6.29-3,6.29Zm9.68,6.38v-.75a2.65,2.65,0,0,1-1.87-1s-.37-.6-1-1.72L21,17.81h-.84L12.58,33.43a7.7,7.7,0,0,1-.71,1.12,2.39,2.39,0,0,1-2,1v.75h6.47v-.75h-.62a3.68,3.68,0,0,1-.57-.06c-.9-.12-1.33-.53-1.33-1.15a3.49,3.49,0,0,1,.46-1.62c.31-.59.63-1.15.94-1.71h7.12c.31.59.65,1.21,1,1.89a3.55,3.55,0,0,1,.49,1.56c0,.47-.3.78-1,1a7.4,7.4,0,0,1-1.65.12v.75Z" style="fill:#004027;fill-rule:evenodd"/></g></g></svg>