<svg xmlns="http://www.w3.org/2000/svg" viewBox="0 0 261.28 86.23"><title>bakermasterl</title><g id="Layer_2" data-name="Layer 2"><g id="Layer_1-2" data-name="Layer 1"><path d="M260.94,9.13A1017.61,1017.61,0,0,0,46.73,3.71V56.33H260.94Z" style="fill:#295135"/><polygon points="0.34 9.13 0.34 56.33 17.64 56.33 17.7 6.68 0.34 9.13" style="fill:#295135"/><path d="M260.94,9.13A1017.61,1017.61,0,0,0,46.73,3.71V56.33H260.94Z" style="fill:none;stroke:#295135;stroke-linecap:round;stroke-linejoin:round;stroke-width:0.6800000071525574px"/><polygon points="0.34 9.13 0.34 56.33 17.64 56.33 17.7 6.68 0.34 9.13" style="fill:none;stroke:#295135;stroke-linecap:round;stroke-linejoin:round;stroke-width:0.6800000071525574px"/><path d="M65.07,35a2.81,2.81,0,0,1-.95,1.17,3.16,3.16,0,0,1-1.41.55,11,11,0,0,1-1.52.11H59.57V30.38h1.56a13.58,13.58,0,0,1,1.41.07,3.49,3.49,0,0,1,1.35.42A2.53,2.53,0,0,1,65,32a3.31,3.31,0,0,1,.37,1.55,3.63,3.63,0,0,1-.3,1.46m-1.68-7.75a3.69,3.69,0,0,1-1.41.65,7.06,7.06,0,0,1-1.54.17h-.87V22.45H61l1.21,0a2.91,2.91,0,0,1,1.16.32,2.11,2.11,0,0,1,.88.87,2.46,2.46,0,0,1,.31,1.2,3,3,0,0,1-1.16,2.4m5.18,3.85a4.25,4.25,0,0,0-1.79-1.63A4.73,4.73,0,0,0,65.52,29a11.14,11.14,0,0,0-1.29-.19A6.05,6.05,0,0,0,67,27.2a4.19,4.19,0,0,0,1.09-3,3.69,3.69,0,0,0-.55-2,3.75,3.75,0,0,0-1.47-1.38,5.29,5.29,0,0,0-2.24-.64c-.78,0-1.56-.07-2.36-.07H55.85v19h5.43A23.42,23.42,0,0,0,63.91,39a6.67,6.67,0,0,0,2.53-.79,5.18,5.18,0,0,0,2.81-4.74,4.34,4.34,0,0,0-.68-2.35" style="fill:#fff"/><path d="M81.76,31.59H76.49l2.79-7.68Zm6.62,7.54-7.16-19H78.34l-7.78,19h3.16l2-5.19H82.5l1.8,5.19Z" style="fill:#fff"/><polygon points="102.27 39.41 94.92 29.5 94.92 39.13 91.15 39.13 91.15 20.12 94.92 20.12 94.92 28.39 101.87 19.82 104.87 20.93 98.4 28.64 106.15 38.38 102.27 39.41" style="fill:#fff"/><polygon points="108.53 39.13 108.53 20.15 118.75 20.15 118.75 22.66 112.31 22.66 112.31 27.86 118.61 27.86 118.61 30.38 112.31 30.38 112.31 36.62 119.89 36.62 119.89 39.13 108.53 39.13" style="fill:#fff"/><path d="M131.89,27a2.92,2.92,0,0,1-.72,1.15,2.63,2.63,0,0,1-1.37.75,8.2,8.2,0,0,1-1.57.16h-1.15V22.56h1.48a4.64,4.64,0,0,1,2.64.62,2.83,2.83,0,0,1,.92,2.49,4.15,4.15,0,0,1-.23,1.34m5.34,11.71-4.65-8A7.14,7.14,0,0,0,135,28.45a5.5,5.5,0,0,0,.88-3.13,5.81,5.81,0,0,0-.48-2.37,4.48,4.48,0,0,0-1.54-1.87,4.4,4.4,0,0,0-1.16-.55,9,9,0,0,0-1.25-.27c-.44-.05-.87-.09-1.3-.1h-6.85v19h3.77V31.42h2.32l3.92,8Z" style="fill:#fff"/><path d="M165.12,39.13V28.6a35.09,35.09,0,0,1,.44-5.51c-.27.87-.55,1.75-.83,2.62s-.63,1.72-1,2.57L158.8,39.13H157l-4.64-10.85c-.26-.64-.5-1.29-.71-1.93l-.63-2c0-.21-.12-.43-.18-.65s-.13-.43-.19-.64c.13.91.23,1.83.28,2.74s.09,1.84.09,2.77V39.13h-3v-19h4.32l6.06,14.11,6.32-14.11h4.14v19Z" style="fill:#fff"/><path d="M182.78,31.59H177.5l2.79-7.68Zm6.61,7.54-7.16-19h-2.88l-7.78,19h3.17l2-5.19h6.81l1.8,5.19Z" style="fill:#fff"/><path d="M202.47,34.28a4.31,4.31,0,0,1-.56,2.22,5.28,5.28,0,0,1-1.5,1.62,7.22,7.22,0,0,1-2.07,1,8.25,8.25,0,0,1-2.29.34,10.54,10.54,0,0,1-3-.43,9.21,9.21,0,0,1-2.77-1.34l1.46-2.29a8.57,8.57,0,0,0,1.9,1.13,5.68,5.68,0,0,0,2.2.41,2.66,2.66,0,0,0,1.92-.72,2.55,2.55,0,0,0,.76-1.9,2.79,2.79,0,0,0-.3-1.27A4.7,4.7,0,0,0,197.4,32a9.85,9.85,0,0,0-1-.92l-1-.77-1.49-1.14a9.68,9.68,0,0,1-2-2,4.4,4.4,0,0,1-.8-2.67,3.55,3.55,0,0,1,.56-2A4.75,4.75,0,0,1,193.08,21,6.69,6.69,0,0,1,195,20.1a8.48,8.48,0,0,1,2.06-.28,8.27,8.27,0,0,1,2.59.39A9.32,9.32,0,0,1,202,21.37l-1.46,2.08a7.74,7.74,0,0,0-1.46-.8,4.16,4.16,0,0,0-1.61-.31,2.76,2.76,0,0,0-.9.13,2.65,2.65,0,0,0-.8.36,1.85,1.85,0,0,0-.58.63,1.77,1.77,0,0,0-.23.9,1.84,1.84,0,0,0,.3,1,3.9,3.9,0,0,0,.73.9,11.18,11.18,0,0,0,.9.78c.32.23.6.45.84.64l1.38,1.07c.46.37.9.75,1.33,1.15a7.57,7.57,0,0,1,1.13,1.33,5.43,5.43,0,0,1,.88,3.06" style="fill:#fff"/><polygon points="213.02 22.66 213.02 39.13 209.19 39.13 209.19 22.66 203.35 22.66 203.35 20.15 218.87 20.15 218.87 22.66 213.02 22.66" style="fill:#fff"/><polygon points="221.3 39.13 221.3 20.15 231.52 20.15 231.52 22.66 225.07 22.66 225.07 27.86 231.37 27.86 231.37 30.38 225.07 30.38 225.07 36.62 232.65 36.62 232.65 39.13 221.3 39.13" style="fill:#fff"/><path d="M244.64,27a2.9,2.9,0,0,1-.71,1.15,2.63,2.63,0,0,1-1.37.75,8.3,8.3,0,0,1-1.58.16h-1.14V22.56h1.49a4.65,4.65,0,0,1,2.63.62,2.83,2.83,0,0,1,.91,2.49,3.9,3.9,0,0,1-.23,1.34M250,38.72l-4.66-8a7,7,0,0,0,2.43-2.22,5.51,5.51,0,0,0,.89-3.13,6,6,0,0,0-.49-2.37,4.41,4.41,0,0,0-1.54-1.87,4.12,4.12,0,0,0-1.16-.55,8.4,8.4,0,0,0-1.25-.27c-.43-.05-.87-.09-1.3-.1h-6.85v19h3.78V31.42h2.32l3.91,8Z" style="fill:#fff"/><path d="M252.07,19.81a1.38,1.38,0,1,1-2.75,0,1.34,1.34,0,0,1,.4-1,1.3,1.3,0,0,1,1-.4,1.34,1.34,0,0,1,1,.4,1.38,1.38,0,0,1,.4,1m-.18,0a1.16,1.16,0,0,0-.36-.85,1.1,1.1,0,0,0-.84-.35,1.13,1.13,0,0,0-.85.35,1.2,1.2,0,0,0,.85,2,1.21,1.21,0,0,0,1.2-1.19m-.53-.37a.42.42,0,0,1-.36.42l.36.7H251l-.32-.66h-.3v.66h-.3V19h.6c.43,0,.65.14.65.43m-.3,0c0-.18-.14-.27-.41-.27h-.24v.52h.25c.26,0,.4-.09.4-.25" style="fill:#fff"/><path d="M231.58,86.11c-.07-.76-.12-1.54-.16-2.33s0-1.49,0-2.1l0-4.64c0-.41,0-.81,0-1.21a3.18,3.18,0,0,0-.27-1.15,2.66,2.66,0,0,0-1.1-1.24,3.45,3.45,0,0,0-1.76-.43,2.82,2.82,0,0,0-2.39,1.24,2.73,2.73,0,0,0-.27.48,3.32,3.32,0,0,0-.22.55,2.15,2.15,0,0,0-.69-1.65A3.33,3.33,0,0,0,222.5,73l-.22,1.57a1.24,1.24,0,0,1,.53.22,1,1,0,0,1,.28.37,1.53,1.53,0,0,1,.11.51c0,.19,0,.41,0,.65v5.46h2.22V79.73c0-.67,0-1.26.05-1.79a7.07,7.07,0,0,1,.19-1.36,3.5,3.5,0,0,1,.69-1.5,1.24,1.24,0,0,1,1-.49,1.64,1.64,0,0,1,1.61.85,2.05,2.05,0,0,1,.2.8c0,.29,0,.58,0,.89l0,5.58v.73c0,.29,0,.59,0,.9s0,.64,0,1,0,.61,0,.88Zm-12.84-5.68a1,1,0,0,1-.5-.23.92.92,0,0,1-.27-.45,3.84,3.84,0,0,1-.1-.66c0-.25,0-.53,0-.84v-5h-2.23v1.55a24.88,24.88,0,0,1-.16,3.22,5.33,5.33,0,0,1-.53,1.85,1.44,1.44,0,0,1-1.22.8,1.55,1.55,0,0,1-.95-.28,1.75,1.75,0,0,1-.56-.68,3.14,3.14,0,0,1-.26-.87c0-.31-.06-.6-.06-.86V73.21h-2.23V80c0,.54,0,1.13,0,1.76s0,1.24,0,1.81,0,1.12,0,1.59,0,.82.05,1L212,86a7.36,7.36,0,0,1-.12-.77c0-.29-.05-.59-.07-.89s0-.6,0-.89,0-.55,0-.8V80.77a2.27,2.27,0,0,0,.79,1,2,2,0,0,0,1.15.26,1.91,1.91,0,0,0,.9-.26,2.22,2.22,0,0,0,.63-.63,2.83,2.83,0,0,0,.39-.8,4.29,4.29,0,0,0,.19-.81,2.35,2.35,0,0,0,.7,2,2.88,2.88,0,0,0,2,.5ZM204.25,70l-1.33-1.09-3,3.37H201Zm.37,5.55c0-.31-.07-.62-.11-.93s-.09-.61-.14-.89a5.11,5.11,0,0,0-.14-.67l-2.22.22a12.67,12.67,0,0,1,.32,1.24c.09.39.16.83.24,1.34a14.9,14.9,0,0,1,.13,1.56,6.47,6.47,0,0,1-.15,1.5A2.6,2.6,0,0,1,202,80.1a1.56,1.56,0,0,1-1.15.49,1.6,1.6,0,0,1-1.39-.56,3.14,3.14,0,0,1-.49-2V73.26h-2.22V78a4.11,4.11,0,0,0,6,3.52A3.4,3.4,0,0,0,204,80.28a5.58,5.58,0,0,0,.56-1.8,14.34,14.34,0,0,0,.11-2.09c0-.23,0-.51,0-.81M193.8,69.19h-7v1.34h4.25a16.47,16.47,0,0,0-2.1,1.8,14.44,14.44,0,0,0-1.64,2,10.85,10.85,0,0,0-1.06,2.05,5.41,5.41,0,0,0-.38,1.86,4.85,4.85,0,0,0,.17,1.33,2.41,2.41,0,0,0,.65,1.11,3.33,3.33,0,0,0,1.34.77,7.38,7.38,0,0,0,2.23.32A1.94,1.94,0,0,1,191,82a1,1,0,0,1,.55.89,1.19,1.19,0,0,1-.09.47,1.06,1.06,0,0,1-.47.44,2.8,2.8,0,0,1-1,.21l.25,1.31a5.52,5.52,0,0,0,1.29-.27,3,3,0,0,0,.81-.43,3,3,0,0,0,.47-.58,2.07,2.07,0,0,0,.32-.77,3.7,3.7,0,0,0,.05-.9,2,2,0,0,0-.26-1,2.23,2.23,0,0,0-.81-.77,3.11,3.11,0,0,0-1.54-.34,3.35,3.35,0,0,1-1.2-.21,1.87,1.87,0,0,1-.75-.52,1.81,1.81,0,0,1-.39-.77,4.37,4.37,0,0,1-.1-1,4.85,4.85,0,0,1,.52-2.06,11.31,11.31,0,0,1,1.35-2.18,14.69,14.69,0,0,1,1.81-2,11.59,11.59,0,0,1,1.92-1.43ZM174,86.11c-.07-.76-.12-1.54-.15-2.33s-.06-1.49-.06-2.1l0-4.64c0-.41,0-.81,0-1.21a3.39,3.39,0,0,0-.26-1.15,2.68,2.68,0,0,0-1.11-1.24,3.43,3.43,0,0,0-1.76-.43,2.79,2.79,0,0,0-1.34.32,2.91,2.91,0,0,0-1.05.92,3.57,3.57,0,0,0-.28.48c-.08.17-.15.36-.22.55a2.07,2.07,0,0,0-.67-1.65,3.36,3.36,0,0,0-2.16-.59l-.22,1.57a1.24,1.24,0,0,1,.53.22,1,1,0,0,1,.28.37,1.32,1.32,0,0,1,.11.51c0,.19,0,.41,0,.65v5.46h2.23V79.73c0-.67,0-1.26,0-1.79a8,8,0,0,1,.19-1.36,3.5,3.5,0,0,1,.69-1.5,1.25,1.25,0,0,1,1-.49,1.64,1.64,0,0,1,1.61.85,2.06,2.06,0,0,1,.21.8c0,.29,0,.58,0,.89l0,5.58c0,.21,0,.45,0,.73s0,.59,0,.9,0,.64,0,1,0,.61,0,.88ZM161.4,74.52V73.21h-6l-.54,0-.56,0a2.31,2.31,0,0,0-.43,0L154,74.7a4,4,0,0,1,.95-.16l.89,0h.69l-.07,4.27a8.16,8.16,0,0,0,0,1.21,2.29,2.29,0,0,0,.42,1.11,2,2,0,0,0,1,.72A3.53,3.53,0,0,0,159,82a5.46,5.46,0,0,0,1.2-.14,7,7,0,0,0,1.11-.41L161,80.37a2.3,2.3,0,0,1-1.08.29.91.91,0,0,1-.7-.21,1.47,1.47,0,0,1-.38-.59,2.7,2.7,0,0,1-.13-.77c0-.27,0-.51,0-.73l.07-3.84Zm-10.74,0V73.21h-5.15a4.93,4.93,0,0,0-1.83.34,4.37,4.37,0,0,0-1.43.91,4,4,0,0,0-.93,1.39,4.34,4.34,0,0,0-.34,1.73,5.1,5.1,0,0,0,.29,1.7,4,4,0,0,0,.86,1.43,4.31,4.31,0,0,0,1.42,1,5,5,0,0,0,2,.36,4.77,4.77,0,0,0,1.9-.36,4.3,4.3,0,0,0,1.4-1,4,4,0,0,0,.87-1.42,5,5,0,0,0,.3-1.71,4.85,4.85,0,0,0-.08-.83,4.15,4.15,0,0,0-.27-.87,3.32,3.32,0,0,0-.46-.79,2.76,2.76,0,0,0-.71-.6Zm-3.14,4.27a3.92,3.92,0,0,1-.37,1,2.18,2.18,0,0,1-.67.74,1.62,1.62,0,0,1-1,.28,1.77,1.77,0,0,1-1-.28,2.08,2.08,0,0,1-.67-.74,3.59,3.59,0,0,1-.37-1,5.26,5.26,0,0,1-.12-1.12,5.14,5.14,0,0,1,.13-1.18,3.05,3.05,0,0,1,.4-1,2.2,2.2,0,0,1,.68-.71,1.63,1.63,0,0,1,1-.28,1.56,1.56,0,0,1,.92.28,2.29,2.29,0,0,1,.67.71,3.29,3.29,0,0,1,.41,1,5.76,5.76,0,0,1,.13,1.18,4.7,4.7,0,0,1-.13,1.12M130.79,70l-1.33-1.09-3,3.37h1.12Zm-.94,10.35a1.24,1.24,0,0,1-.79-.19,1.11,1.11,0,0,1-.39-.54,2.23,2.23,0,0,1-.14-.7c0-.25,0-.49,0-.72v-5h-2.22v5.31a9.77,9.77,0,0,0,.09,1.35,2.47,2.47,0,0,0,.44,1.12,2.18,2.18,0,0,0,1,.77,4.67,4.67,0,0,0,1.86.25Zm-8.54-4.68a4.36,4.36,0,0,0-1-1.47,4.74,4.74,0,0,0-1.44-.9,4.56,4.56,0,0,0-1.74-.32,4.73,4.73,0,0,0-1.78.32,4.32,4.32,0,0,0-1.43.91,4.18,4.18,0,0,0-1,1.41,4.57,4.57,0,0,0-.35,1.79,5,5,0,0,0,.33,1.82,4.32,4.32,0,0,0,.92,1.46,4.11,4.11,0,0,0,1.41,1,4.51,4.51,0,0,0,1.82.36,4.88,4.88,0,0,0,1.88-.36,4.15,4.15,0,0,0,1.48-1.06,4.34,4.34,0,0,0,.86-1.41,4.9,4.9,0,0,0,0-3.51m-2.1,3a3.84,3.84,0,0,1-.39,1.09,1.73,1.73,0,0,1-.69.77,2,2,0,0,1-1,.28,1.59,1.59,0,0,1-1-.33,2.1,2.1,0,0,1-.65-.82,4.33,4.33,0,0,1-.34-1.09,6,6,0,0,1-.1-1.08,5.33,5.33,0,0,1,.11-1.1,3.62,3.62,0,0,1,.36-1,2.31,2.31,0,0,1,.68-.78,1.72,1.72,0,0,1,1-.31,1.66,1.66,0,0,1,1.05.32,2.36,2.36,0,0,1,.64.82,3.77,3.77,0,0,1,.32,1.08,6,6,0,0,1,.09,1.09,6.27,6.27,0,0,1-.1,1.11m-9.91,2.61-3.45-4.33,1.09-1.48a1,1,0,0,1,.37-.32.83.83,0,0,1,.44-.13,2.06,2.06,0,0,1,.85.18l.59-1.7a3,3,0,0,0-.67-.37,2.2,2.2,0,0,0-.77-.11,2.12,2.12,0,0,0-1,.21A2.46,2.46,0,0,0,106,74l-2,2.66h-.26v-3.4h-2.22v8.6h2.22V77.25L107.22,82Zm-12-.89a1.24,1.24,0,0,1-.79-.19,1.11,1.11,0,0,1-.39-.54A2,2,0,0,1,96,79c0-.26,0-.5,0-.73v-5H93.71v5.33a9.77,9.77,0,0,0,.09,1.35A2.4,2.4,0,0,0,94.24,81a2.18,2.18,0,0,0,1,.77,4.59,4.59,0,0,0,1.85.25Zm-8.6-4.5a3.76,3.76,0,0,0-1-1.34,4.13,4.13,0,0,0-.83-.55c-.3-.17-.62-.33-.93-.47l-.94-.45a5.59,5.59,0,0,1-.81-.48,2.55,2.55,0,0,1-.54-.55,1.06,1.06,0,0,1-.16-.68.78.78,0,0,1,.55-.7,3.65,3.65,0,0,1,1.28-.13,2.77,2.77,0,0,1,.56.07l.55.17c.17.07.33.14.46.21a2.79,2.79,0,0,1,.34.2L87.71,70a5.62,5.62,0,0,0-1.39-.57,7.47,7.47,0,0,0-1.42-.25,8.82,8.82,0,0,0-1.49.06,3.44,3.44,0,0,0-1.16.34,2.2,2.2,0,0,0-.74.68,2,2,0,0,0,.16,2.24,3.8,3.8,0,0,0,1.33,1,4.29,4.29,0,0,0-2.25,1.64A4.38,4.38,0,0,0,80,77.76a4.19,4.19,0,0,0,.34,1.72,3.79,3.79,0,0,0,.93,1.35,4.13,4.13,0,0,0,1.43.87,5.54,5.54,0,0,0,1.86.3,4.93,4.93,0,0,0,1.84-.34,4.34,4.34,0,0,0,1.5-1,4.06,4.06,0,0,0,.87-1.31,4.28,4.28,0,0,0,.3-1.59,4.54,4.54,0,0,0-.37-1.9m-2.07,2.9a3.38,3.38,0,0,1-.38,1,2.22,2.22,0,0,1-.69.74,1.72,1.72,0,0,1-1,.29,1.76,1.76,0,0,1-1-.27,2.43,2.43,0,0,1-.68-.71,3.33,3.33,0,0,1-.38-1,5.19,5.19,0,0,1-.11-1,4.53,4.53,0,0,1,.13-1.07,4.22,4.22,0,0,1,.41-1.07,3.29,3.29,0,0,1,.68-.89,2.35,2.35,0,0,1,1-.56,4,4,0,0,1,1.11.71,3.39,3.39,0,0,1,.68.9,3.52,3.52,0,0,1,.32,1,4.77,4.77,0,0,1,.1,1,4.47,4.47,0,0,1-.12,1m-10.2,1.6a1.24,1.24,0,0,1-.79-.19,1.13,1.13,0,0,1-.4-.54,3.1,3.1,0,0,1-.13-.7c0-.26,0-.5,0-.73v-5H72.84v5.33a11.67,11.67,0,0,0,.08,1.35A2.52,2.52,0,0,0,73.37,81a2.23,2.23,0,0,0,1,.77,4.59,4.59,0,0,0,1.85.25ZM68,79.87a4.19,4.19,0,0,1-1.2.55,5.57,5.57,0,0,1-1.3.14,2.3,2.3,0,0,1-.64-.09,1.87,1.87,0,0,1-.58-.24,1.4,1.4,0,0,1-.42-.42,1.05,1.05,0,0,1-.15-.57,1.27,1.27,0,0,1,.67-1.15,2.63,2.63,0,0,1,1-.27,7.13,7.13,0,0,1,1.52,0V76.67a8.49,8.49,0,0,1-1.34,0,2.72,2.72,0,0,1-.86-.23,1,1,0,0,1-.48-.42,1.09,1.09,0,0,1-.14-.58.79.79,0,0,1,.15-.51,1.16,1.16,0,0,1,.4-.33,2.15,2.15,0,0,1,.54-.19,2.38,2.38,0,0,1,.59-.07,4.7,4.7,0,0,1,1.16.13,4.33,4.33,0,0,1,1,.38l.61-1.1A4.57,4.57,0,0,0,67,73.16,7.85,7.85,0,0,0,65.31,73a6.21,6.21,0,0,0-1.38.14,4.1,4.1,0,0,0-1.16.43,2.32,2.32,0,0,0-.81.74,1.9,1.9,0,0,0-.3,1.08,1.83,1.83,0,0,0,.39,1.14,2.08,2.08,0,0,0,1.26.72,3,3,0,0,0-.82.32,2.45,2.45,0,0,0-.62.51,2,2,0,0,0-.39.63,1.74,1.74,0,0,0-.14.66,2.35,2.35,0,0,0,.34,1.28,2.55,2.55,0,0,0,.91.81,4.05,4.05,0,0,0,1.27.44,8.64,8.64,0,0,0,1.43.13,5.61,5.61,0,0,0,1.79-.27A5.26,5.26,0,0,0,68.51,81Zm-17.78.51a1.24,1.24,0,0,1-.79-.19,1.05,1.05,0,0,1-.39-.54,2.29,2.29,0,0,1-.14-.7c0-.26,0-.5,0-.73v-5H46.61v5.33a9.74,9.74,0,0,0,.1,1.35A2.4,2.4,0,0,0,47.15,81a2.18,2.18,0,0,0,1,.77A4.59,4.59,0,0,0,50,82Zm-8.9-7.14A6,6,0,0,0,40,71.31,5.92,5.92,0,0,0,38.12,70a6.08,6.08,0,0,0-2.4-.46,6.16,6.16,0,0,0-2.41.47,6,6,0,0,0-1.91,1.29,6.25,6.25,0,0,0-1.26,1.94,6.51,6.51,0,0,0-.44,2.39,7.25,7.25,0,0,0,.42,2.5,6,6,0,0,0,1.21,2,5.71,5.71,0,0,0,1.91,1.35,6,6,0,0,0,2.48.5,6.11,6.11,0,0,0,2.51-.5,5.54,5.54,0,0,0,1.89-1.37,5.79,5.79,0,0,0,1.19-2,7.29,7.29,0,0,0,.42-2.5,6.33,6.33,0,0,0-.45-2.4M39,77.43a4.67,4.67,0,0,1-.59,1.47,3.32,3.32,0,0,1-1.07,1,3,3,0,0,1-1.6.4,3,3,0,0,1-1.61-.4,3.1,3.1,0,0,1-1.06-1,4.67,4.67,0,0,1-.59-1.47,7.38,7.38,0,0,1,0-3.24A4.52,4.52,0,0,1,33,72.73a3.22,3.22,0,0,1,1.06-1,3.42,3.42,0,0,1,3.21,0,3.49,3.49,0,0,1,1.07,1.06A4.67,4.67,0,0,1,39,74.19a7,7,0,0,1,0,3.24" style="fill:#502c1e"/><path d="M25.49,28.29C29.06,18.69,38,7.89,31.67.2,46,5.93,28,20.7,25.49,28.29" style="fill:#502c1e"/><path d="M27.58,19.37C32.52,6.26,28.45,2,24.36.06c5.08-.59,11.23,3.16,3.22,19.31" style="fill:#502c1e"/><path d="M29.59,64.14C4.78,35,45.92,14.72,40.22,3.61c17.77,10-33,26.53-10.63,60.53" style="fill:#502c1e"/></g></g></svg>