<svg id="Layer_1" data-name="Layer 1" xmlns="http://www.w3.org/2000/svg" width="19" height="22"><path d="M2,0H2V22H2a2,2,0,0,1-2-2V2A2,2,0,0,1,2,0Z" style="fill:#4e4e4e"/><rect x="3" width="2" height="19" style="fill:#4e4e4e"/><rect x="3" y="20" width="8" height="2" style="fill:#4e4e4e"/><path d="M12,20h7a2,2,0,0,1-2,2H12Z" style="fill:#4e4e4e"/><rect x="6" width="3" height="19" style="fill:#4e4e4e"/><rect x="10" width="1" height="19" style="fill:#4e4e4e"/><rect x="12" width="2" height="19" style="fill:#4e4e4e"/><rect x="15" width="1" height="19" style="fill:#4e4e4e"/><path d="M17,0h0a2,2,0,0,1,2,2V19H17Z" style="fill:#4e4e4e"/></svg>