<svg xmlns="http://www.w3.org/2000/svg" viewBox="0 0 137.78 35.73"><defs><style>.cls-1{fill:#be492c;}</style></defs><title>barron</title><g id="Layer_2" data-name="Layer 2"><g id="Layer_1-2" data-name="Layer 1"><path class="cls-1" d="M12,35.73c-5.09,0-9.09-.69-11.9-2.06L0,33.6V2.13l.12-.06C2.85.73,7,0,11.67,0,20.61,0,26,3.61,26,9.64a7.82,7.82,0,0,1-5,7.19l-.48.2.48.21c2.69,1.17,5.84,4,5.84,8.2,0,6.73-5.11,10.29-14.78,10.29m-.6-15.86h-.59l-1,0v9.3l.16.05a6.53,6.53,0,0,0,1.86.23c3.28,0,4.68-1.35,4.68-4.51,0-3.59-1.53-5.12-5.13-5.12m.35-14A7,7,0,0,0,10,6.07l-.16,0v8.64l1,0h.51a5.06,5.06,0,0,0,3.74-1.13,4.7,4.7,0,0,0,1-3.44c0-3-1.33-4.36-4.33-4.36"/><path class="cls-1" d="M40,35.73c-10.56,0-12.77-4.86-12.77-8.94,0-7.35,7.93-9.07,14.84-9.76h.21v-.85c0-1.79-1.14-2.52-3.93-2.52a19,19,0,0,0-7.21,1.63l-.22.1L28.76,9.62l.2-.08A29.19,29.19,0,0,1,40.15,7.43C47.7,7.43,51.52,11,51.52,18V33.6l-.12.06C48.87,35,44.7,35.73,40,35.73m2-14c-3.31.33-5.51,1.25-5.51,4.67,0,2.46,1.32,3.71,3.93,3.71a5.39,5.39,0,0,0,1.67-.21l.16-.05V21.7Z"/><path class="cls-1" d="M53.88,35.23V9.55L54,9.49c2.8-1.37,6.91-2.07,12.21-2.07,1.18,0,2.44,0,3.75.11h.27l-1.78,7.11-.25-.12a6.76,6.76,0,0,0-2.9-.71A5,5,0,0,0,64,14l-.17,0V35.23Z"/><path class="cls-1" d="M70.23,35.23V9.55l.12-.06c2.8-1.37,6.91-2.07,12.21-2.07,1.18,0,2.44,0,3.75.11h.27L84.8,14.65l-.24-.12a6.81,6.81,0,0,0-2.91-.71,5.05,5.05,0,0,0-1.31.17l-.16,0V35.23Z"/><path class="cls-1" d="M98.45,35.73c-7.76,0-12.77-5.56-12.77-14.18s5-14.12,12.77-14.12S111.28,13,111.28,21.55s-5,14.18-12.83,14.18m0-22c-2,0-2.93,2.29-2.93,7.65s.88,7.51,2.93,7.51,2.93-2.18,2.93-7.51-.88-7.65-2.93-7.65"/><path class="cls-1" d="M127.83,35.23V16.52c0-1.84-1-2.82-3-2.82a7.75,7.75,0,0,0-2,.24l-.16.05V35.23h-10V9.55l.13-.06A31,31,0,0,1,125,7.43c8.51,0,12.83,3,12.83,9V35.23Z"/></g></g></svg>