<svg xmlns="http://www.w3.org/2000/svg" xmlns:xlink="http://www.w3.org/1999/xlink" viewBox="0 0 384.1 145.85"><defs><linearGradient id="Gold" x1="105.36" y1="16.92" x2="278.74" y2="190.3" gradientUnits="userSpaceOnUse"><stop offset="0.01" stop-color="#f9c539"/><stop offset="0.25" stop-color="#fff9c7"/><stop offset="0.31" stop-color="#f7ecb6"/><stop offset="0.42" stop-color="#e1ca89"/><stop offset="0.58" stop-color="#be9441"/><stop offset="0.6" stop-color="#ba8e39"/><stop offset="0.87" stop-color="#e7d187"/><stop offset="1" stop-color="#fff9c7"/></linearGradient><linearGradient id="Gold-2" x1="262.4" y1="58.8" x2="285.22" y2="81.62" xlink:href="#Gold"/><linearGradient id="Gold-3" x1="288.24" y1="61.55" x2="310.28" y2="83.59" xlink:href="#Gold"/><linearGradient id="Gold-4" x1="309.66" y1="65.32" x2="332.96" y2="88.61" xlink:href="#Gold"/><linearGradient id="Gold-5" x1="337.07" y1="69.77" x2="353.14" y2="85.84" xlink:href="#Gold"/><linearGradient id="Gold-6" x1="25.42" y1="39.06" x2="69.36" y2="83" xlink:href="#Gold"/><linearGradient id="Gold-7" x1="74.71" y1="48.53" x2="112.59" y2="86.41" xlink:href="#Gold"/><linearGradient id="Gold-8" x1="113.62" y1="50.21" x2="142.49" y2="79.08" xlink:href="#Gold"/><linearGradient id="Gold-9" x1="140.12" y1="50.21" x2="168.99" y2="79.08" xlink:href="#Gold"/><linearGradient id="Gold-10" x1="172.94" y1="50.82" x2="204.76" y2="82.64" xlink:href="#Gold"/><linearGradient id="Gold-11" x1="210.41" y1="48.79" x2="251.52" y2="89.9" xlink:href="#Gold"/></defs><title>barronplusl</title><g id="Layer_2" data-name="Layer 2"><g id="Layer_1-2" data-name="Layer 1"><rect width="384.1" height="145.85" style="fill:#414042"/><rect x="29.13" y="93.14" width="325.84" height="20.93" style="fill:url(#Gold)"/><path d="M291.72,64.91c0,7.59-6.45,10.41-13,10.41a28.2,28.2,0,0,1-3.9-.28v8.55c0,4.13,3.54,3,3.54,4.45,0,.95-.86,1-1.73,1s-1.9,0-2.95,0-1.86-.05-2.09-.05c-.5,0-1.59.05-2.63.05s-1.91,0-2,0h-.41c-.5,0-1.22-.22-1.22-1,0-1.27,2.4-.9,2.9-3.22a6.91,6.91,0,0,0,.19-1.77V60.82c0-3.77-3.64-2.18-3.64-4,0-.14,0-.23,0-.28.13-.5.9-.86,1.77-.86,0,0,1,.05,2.13.05s2.5,0,3.41,0c.18,0,1.32,0,2.59,0s2.73-.05,3.59-.05C284.4,55.69,291.72,57.42,291.72,64.91Zm-6.77.55c0-2.5-1.68-7.27-7.13-7.27a6.11,6.11,0,0,0-1.64.18c-1.27.32-1.36,1.68-1.36,3V72.68C280.77,73.64,285,70,285,65.46Z" style="fill:url(#Gold-2)"/><path d="M305.26,88.18c0,.68-.37.95-1.41.95-.55,0-4-.14-4.86-.14-.64,0-3.41.14-4,.14-.86,0-1.31-.27-1.31-.86,0-1.68,2.68,0,2.68-4V59.87c0-2.86-3-1.41-3-3.23,0-.68,1-.9,3.54-1.77,2.73-.95,3.5-1.54,4.36-1.54s.87,1,.87,3.81V84.36C302.17,87.72,305.26,86.72,305.26,88.18Z" style="fill:url(#Gold-3)"/><path d="M333.88,87.31c0,.68-.45.73-.95.91-.68.55-6.36,1.45-6.73,1.45-.91-.36-.91-1.54-.91-4-1.9,2.14-4.13,4-7.81,4-6.54,0-7.5-5-7.5-10.17V71.23c0-3-2.81-1.46-2.81-3.09,0-1.41,3.4-1.32,6-2.18a4.81,4.81,0,0,1,1.32-.37c.86,0,1.23.55,1.23,2.23v13c0,3.14.82,5.86,4.4,5.86,3.23,0,4.77-2.77,4.77-5.54V71.23c0-3-2.77-1.46-2.77-3.09,0-1.27,3.41-1.45,6-2.18a6.6,6.6,0,0,1,1.31-.37c.87,0,1.23.55,1.23,2.23V84C330.61,87.49,333.88,85.86,333.88,87.31Z" style="fill:url(#Gold-4)"/><path d="M353.92,82c0,5.68-5.09,7.72-9.45,7.72-2.37,0-6.68-.45-7.77-2.63a1.84,1.84,0,0,1-.41-1.32v-.54a7,7,0,0,1,.59-3.14c.18-.32.32-.5.73-.5,1.63,0,1.86,6.18,7.31,6.18,2.18,0,4.09-1.32,4.09-3.63,0-2.91-3.68-3.64-7.86-5.32-2.68-1.09-4.27-2.45-4.27-5.86,0-4.91,4.18-7.32,8.68-7.32a14.76,14.76,0,0,1,6.27,1.19c1.32.72.91,3.13.91,4.63,0,.5-.32.73-.91.73-1.68,0-1.91-4.59-6.73-4.59-1.81,0-3.81,1-3.81,3.13,0,2.68,2.81,3,6.72,4.41C351.33,76.18,353.92,77.82,353.92,82Z" style="fill:url(#Gold-5)"/><path d="M48.75,89.67c-8.25,0-14.73-1.12-19.28-3.34l-.2-.1v-51l.2-.1c4.42-2.16,11.06-3.35,18.72-3.35,14.48,0,23.13,5.84,23.13,15.63A12.65,12.65,0,0,1,63.25,59l-.79.33.78.33C67.6,61.61,72.7,66.24,72.7,73,72.7,83.91,64.42,89.67,48.75,89.67Zm-1-25.7-1,0-1.59.07V79.13l.26.07a10.51,10.51,0,0,0,3,.38c5.31,0,7.58-2.18,7.58-7.31C56.09,66.45,53.6,64,47.78,64Zm.57-22.67a11.29,11.29,0,0,0-2.85.31l-.27.07v14l1.59.07h.83c2.87,0,4.85-.6,6.05-1.83s1.66-2.93,1.66-5.57C55.36,43.48,53.2,41.3,48.35,41.3Z" style="fill:url(#Gold-6)"/><path d="M94,89.67c-17.11,0-20.7-7.88-20.7-14.49,0-11.9,12.86-14.7,24.06-15.8l.33,0V58c0-2.9-1.84-4.08-6.36-4.08a31,31,0,0,0-11.69,2.63l-.35.16-3.41-9.33.32-.14a47.4,47.4,0,0,1,18.13-3.41c12.23,0,18.43,5.77,18.43,17.15V86.22l-.2.1C108.47,88.45,101.7,89.67,94,89.67ZM97.3,67c-5.36.54-8.92,2-8.92,7.57,0,4,2.14,6,6.36,6a8.65,8.65,0,0,0,2.71-.34l.25-.08V66.93Z" style="fill:url(#Gold-7)"/><path d="M116.58,88.87V47.25l.21-.1c4.53-2.22,11.19-3.35,19.78-3.35,1.91,0,4,.06,6.08.17l.44,0L140.2,55.51l-.4-.2a10.93,10.93,0,0,0-4.71-1.14,8,8,0,0,0-2.12.27l-.27.08V88.87Z" style="fill:url(#Gold-8)"/><path d="M143.08,88.87V47.25l.2-.1c4.54-2.22,11.2-3.35,19.79-3.35,1.91,0,4,.06,6.08.17l.44,0L166.7,55.51l-.4-.2a10.93,10.93,0,0,0-4.71-1.14,8,8,0,0,0-2.12.27l-.27.08V88.87Z" style="fill:url(#Gold-9)"/><path d="M188.82,89.67c-12.57,0-20.7-9-20.7-23s8.13-22.89,20.7-22.89,20.79,9,20.79,22.89S201.45,89.67,188.82,89.67Zm0-35.61c-3.32,0-4.74,3.71-4.74,12.4,0,8.52,1.42,12.16,4.74,12.16s4.75-3.53,4.75-12.16S192.15,54.06,188.82,54.06Z" style="fill:url(#Gold-10)"/><path d="M236.43,88.87V58.54c0-3-1.67-4.56-4.82-4.56a12,12,0,0,0-3.26.39l-.27.07V88.87H212V47.24l.22-.09C217,45,224,43.81,231.77,43.81c13.79,0,20.79,4.9,20.79,14.57V88.87Z" style="fill:url(#Gold-11)"/></g></g></svg>