<svg xmlns="http://www.w3.org/2000/svg" viewBox="0 0 170.08 57.85"><title>bonoralogo</title><g id="Layer_2" data-name="Layer 2"><g id="Layer_1-2" data-name="Layer 1"><path d="M8.42,0H161.66a8.44,8.44,0,0,1,8.42,8.41v41a8.44,8.44,0,0,1-8.42,8.41H8.42A8.44,8.44,0,0,1,0,49.44v-41A8.44,8.44,0,0,1,8.42,0" style="fill:#f47920;fill-rule:evenodd"/><path d="M42.77,25.35s-.24,0-.24.15.06.05.21.11S48.4,27.92,48.91,34A12.43,12.43,0,0,1,36.46,47.38a11.18,11.18,0,0,1-8.09-3.75.21.21,0,0,0-.21-.11.35.35,0,0,0-.2.1,17.77,17.77,0,0,1-11.18,5c-.2,0-.26-.1-.26-.15a.17.17,0,0,1,.09-.16C22.15,43,24.93,34.79,27.2,27.6c4.53-14.32,11-14.68,11-14.68a.44.44,0,0,1,.19-.05.12.12,0,0,1,.11.1.33.33,0,0,1-.08.25s-2.33,4.06-4.78,16.85c0,0-1.47,7.45-4,11a4.2,4.2,0,0,0,3.29,1.56c3.69,0,9-4.92,8.55-11.49a6.27,6.27,0,0,0-5-5.77c-.05-.06-.11-.11-.11-.16s.14-.2.14-.2a8.63,8.63,0,0,0,6.39-9.15c-.44-6-8.46-6.08-8.46-6.08-5.51-.08-11,3-10.86,5.4a.54.54,0,0,0,.6.56c1.31,0,3.15.35,3.36,3.23a5.86,5.86,0,0,1-5.77,6.69c-3.78-.06-4.92-3.68-5-5.48-.31-9,10.58-13.15,18.38-13,.5,0,14.24.2,14.9,9.25.12,1.67-.5,7.06-7.33,8.88" style="fill:#fff"/><path d="M57.47,46.27c-4.41,0-5.84-3.26-6-6.7C51,31.48,55.15,18.29,64.69,18.05c1.06,0,6.11.45,6.34,6.75.29,7.8-3.46,21.52-13.56,21.47m7.45-27.11c-4.91,1.72-8,16.92-8.85,24.51,0,0,.56,1.54,1.25,1.29,4.72-1.77,8.85-17.54,8.95-24.57,0-1.06-1.26-1.26-1.35-1.23" style="fill:#fff"/><path d="M94.24,33.32a30.59,30.59,0,0,1-6.07,9.45c-3.08,3.34-5.52,3.59-6.14,3.55a2.14,2.14,0,0,1-2.18-2.15c.29-6.5,5.39-15,5.87-21.17,0-.26-.34-.51-.64-.52-2.12,0-4.6,4.07-5.41,6.74-1.59,5.23-2.39,7.84-4,13.07-1.22,4-5.48,4.37-7.09,4.39-.1,0-.15,0-.16-.1q3.69-12,7.38-24c1.22-4,5.33-4.32,6.84-4.35.1,0,.26,0,.26.11-.65,2-1,3-1.65,5.08a1.62,1.62,0,0,0,0,.25.06.06,0,0,0,.06,0s.09-.06.19-.2c.56-.84,4.72-5,8.36-5a2.12,2.12,0,0,1,2.27,2.16,7.85,7.85,0,0,1-.41,2.62c-1.8,5.83-2.69,8.74-4.49,14.57a2.59,2.59,0,0,0-.13.91.92.92,0,0,0,.77.92.82.82,0,0,0,.26.06c.4,0,1.29-.29,2.51-2.14a30.11,30.11,0,0,0,3.59-6.82s.31.16.36.77a4.08,4.08,0,0,1-.33,1.71" style="fill:#fff"/><path d="M99.16,46.87c-4.4,0-5.83-3.26-6-6.7-.48-8.09,3.72-21.28,13.26-21.52,1.06,0,6.11.46,6.34,6.76.28,7.8-3.46,21.51-13.57,21.46m7.46-27.11c-4.91,1.73-8,16.92-8.86,24.52,0,0,.57,1.53,1.26,1.28,4.72-1.77,8.85-17.54,9-24.57,0-1.06-1.26-1.26-1.35-1.23" style="fill:#fff"/><path d="M125.07,31.44l2.13-6.78a2.84,2.84,0,0,0,.18-.91.65.65,0,0,0-.69-.57c-2.73,0-4.43,4.33-5.16,6.75l-4,13c-1.31,4.17-6,4.46-7.13,4.49-.1,0-.16,0-.16-.1Q114,35.17,117.7,23.05c1.31-4.17,5.79-4.31,6.9-4.34,0,0,.25,0,.26.1-.69,2.14-1,3.2-1.73,5.33a.89.89,0,0,0,0,.25c0,.05,0,.11.05.11s.1-.06.19-.2c.54-.84,4.33-5,7.1-5,.41,0,1.93.13,2.1,2.45.25,3.39-2.22,9.67-7.47,9.69" style="fill:#fff"/><path d="M153.37,34.17c-3.12,7.22-7.88,13-11.31,13a2.1,2.1,0,0,1-2.08-2.2,8.11,8.11,0,0,1,.4-2.77c0-.15.09-.2,0-.2s-.19.14-.19.14c-2.21,5-5.43,5.08-5.94,5.07-2.68,0-3.89-2.08-4.06-5.21-.44-7.89,4.29-22,13.08-22.59a2.84,2.84,0,0,1,2.86,1.81c.06.11.11.16.16.16s.09-.1.09-.1A8.09,8.09,0,0,1,152.21,19a.15.15,0,0,1,.17.15q-3,9.93-6.07,19.86a1.87,1.87,0,0,0-.1.71,1,1,0,0,0,1,.92c.36,0,1.41-.13,2.38-1.93a29.23,29.23,0,0,0,3.78-7s.32.11.36.71a3.5,3.5,0,0,1-.33,1.71m-9.1-13.46c-5.69,4.83-8.17,15.38-8.13,22.1,0,.71.24,1.22.64,1.22s2.2-.32,3.75-5.34c1.91-6.26,2.86-9.39,4.76-15.64a3.67,3.67,0,0,0,.18-1.11,1.3,1.3,0,0,0-1.2-1.23" style="fill:#fff"/></g></g></svg>