<svg xmlns="http://www.w3.org/2000/svg" viewBox="0 0 264.88 82.25"><title>buenaslogo</title><g id="Layer_2" data-name="Layer 2"><g id="Layer_1-2" data-name="Layer 1"><path d="M42.88,27.86A16.82,16.82,0,0,0,53.31,15.52C55.73,2.17,44,0,36.63,0H15.43L4.34,58.23H25.53c7.09,0,21.77-2.25,24.69-17.35C51.48,34.62,48.47,29.86,42.88,27.86Zm-6.67,12.6c-.84,5.26-6.34,6.59-11.68,6.59H20.44l2.67-13.76H27.2C32.79,33.29,37.38,34.37,36.21,40.46ZM39,16.93c-.92,4.43-5.42,5.59-10.43,5.59H25.11l2.17-11.34h3.17C35.71,11.18,40.13,11.76,39,16.93Zm46.72-1.67-4,21.11c-1.08,5.34-4.17,12.27-10.59,12.27-6.17,0-4.76-6.09-3.84-10.51l4.34-22.87H58.15L53,42.13c-1.83,9.43,1.43,17.1,12.27,17.1a22.44,22.44,0,0,0,13.51-4.67v.17a7.67,7.67,0,0,0-.08,3.58H91.6A65.28,65.28,0,0,1,93,48.05l6.26-32.79Zm51.8,12.6c0-8.42-6.59-13.51-14.93-13.51-15.35,0-25.11,13.35-25.11,26.44,0,11.77,6.59,18.36,18.61,18.36,4.25,0,12-.75,17.34-3.42l-.58-10.35a33.19,33.19,0,0,1-13.26,3.17c-4.76,0-8.34-.41-8.76-6C127.47,43.13,137.48,38.29,137.48,27.86Zm-16.6-3c1.92,0,3.76.92,3.76,3,0,3-3.34,4.26-12,4.18A8.42,8.42,0,0,1,120.88,24.86Zm48.47-10.59a21.08,21.08,0,0,0-13.84,4.59l.16-3.68H142.91a69.89,69.89,0,0,1-1.25,10.26L135.4,58.23h13.43l4-21.1c1.08-5.35,4.25-12.27,10.67-12.27,6.18,0,4.67,6.09,3.76,10.51l-4.34,22.86h13.51l5.18-26.86C183.45,21.94,180.2,14.27,169.35,14.27Zm38.71.08C192.29,14.35,182.28,28,182.28,43c0,10.93,6.09,16.19,12.77,16.19,4.34,0,9.51-2.5,13.1-8.43h.16l-1.75,7.51h12.76c2.68-16.93,3.09-19.35,6.77-40C221.16,14.85,212.57,14.35,208.06,14.35Zm1.09,22.78c-1.42,7.58-4.93,10.42-7.68,10.42-2.58,0-4.84-2-4.84-7.09,0-7.09,4.18-15.18,10.43-15.18a6.57,6.57,0,0,1,4,1.42ZM248.28,32c-2.09-.76-4.34-1.34-5.93-2.09-1.42-.58-2-1.34-1.83-2.25.58-2.34,2.83-3.34,5.75-3.34,3.76,0,5.26.5,9.76,1.83l4.51-9.84a48.66,48.66,0,0,0-13.77-2.08c-8.93,0-18.6,4.08-20.35,13.84-1.75,9.1,4.17,11,11.34,13.27,2,.67,4.84,1.42,4.34,3.92-.42,2.84-3.84,3.84-6.51,3.84-3.59,0-6.42-.92-10.42-2.92L220,56.9a57.26,57.26,0,0,0,14.52,2.33c9.34,0,19.69-4,21.69-14.43C257.78,36.79,253,33.62,248.28,32Z" style="fill:#e1251b"/><path d="M61.46,62.23c47.91,0,99.26,14.23,137.12,13.5S264.88,66,264.88,66s-33,15.08-65.95,16.15c-40.3,1.32-109.4-14-138-14-28,0-56.53,8.52-60.91,9.47C0,77.59,26.28,62.23,61.46,62.23Z" style="fill:#e1251b"/></g></g></svg>