<svg id="Layer_1" data-name="Layer 1" xmlns="http://www.w3.org/2000/svg" width="19" height="22"><rect width="19" height="22" rx="2" style="fill:#4e4e4e"/><rect x="2" y="2" width="15" height="3" style="fill:#fff"/><rect x="2" y="6" width="2" height="2" style="fill:#fff"/><rect x="5" y="6" width="2" height="2" style="fill:#fff"/><rect x="8" y="6" width="2" height="2" style="fill:#fff"/><rect x="13" y="6" width="4" height="2" style="fill:#fff"/><rect x="2" y="9" width="3" height="3" style="fill:#fff"/><rect x="6" y="9" width="3" height="3" style="fill:#fff"/><rect x="10" y="9" width="3" height="3" style="fill:#fff"/><rect x="14" y="9" width="3" height="3" style="fill:#fff"/><rect x="2" y="13" width="3" height="3" style="fill:#fff"/><rect x="6" y="13" width="3" height="3" style="fill:#fff"/><rect x="10" y="13" width="3" height="3" style="fill:#fff"/><rect x="2" y="17" width="3" height="3" style="fill:#fff"/><rect x="6" y="17" width="3" height="3" style="fill:#fff"/><rect x="10" y="17" width="3" height="3" style="fill:#fff"/><rect x="14" y="13" width="3" height="7" style="fill:#fff"/></svg>