<?xml version="1.0" encoding="utf-8"?>
<!-- Generator: Adobe Illustrator 23.0.3, SVG Export Plug-In . SVG Version: 6.00 Build 0)  -->
<svg version="1.1" id="Layer_1" xmlns="http://www.w3.org/2000/svg" xmlns:xlink="http://www.w3.org/1999/xlink" x="0px" y="0px"
	 viewBox="0 0 24 24" style="enable-background:new 0 0 24 24;" xml:space="preserve">
<style type="text/css">
	.st0{fill:#F15A24;}
	.st1{fill:#FFFFFF;}
</style>
<title>find</title>
<g id="XMLID_1_">
	<g id="Layer_1-2">
		<path id="XMLID_5_" class="st0" d="M12,0L12,0c6.6,0,12,5.4,12,12l0,0c0,6.6-5.4,12-12,12l0,0C5.4,24,0,18.6,0,12l0,0
			C0,5.4,5.4,0,12,0z"/>
		<path id="XMLID_2_" class="st1" d="M10.2,14.4v-0.5c0-1.2,0.4-2.3,1.2-3.1c0.6-0.6,1-1.3,1.2-2.1c0-0.7-0.5-1.2-1.5-1.2
			c-0.7,0-1.4,0.2-2,0.6L8.4,5.9c1-0.6,2.2-0.8,3.3-0.8c2.6,0,3.9,1.5,3.9,3.1c-0.1,1.3-0.7,2.5-1.7,3.4c-0.6,0.7-1,1.6-1,2.5v0.4
			L10.2,14.4z M10,17.1c-0.1-0.9,0.7-1.8,1.6-1.8c0.1,0,0.1,0,0.2,0c1,0,1.8,0.7,1.8,1.7c0,0.1,0,0.1,0,0.2c0.1,1-0.7,1.8-1.6,1.8
			c-0.1,0-0.1,0-0.2,0c-1,0-1.8-0.7-1.8-1.7C10,17.2,10,17.1,10,17.1z"/>
	</g>
</g>
</svg>
