<!-- Generator: Adobe Illustrator 25.2.1, SVG Export Plug-In  -->
<svg version="1.1" xmlns="http://www.w3.org/2000/svg" xmlns:xlink="http://www.w3.org/1999/xlink" x="0px" y="0px" width="20px"
	 height="20px" viewBox="0 0 20 20" style="overflow:visible;enable-background:new 0 0 20 20;" xml:space="preserve">
<style type="text/css">
	.st0{fill:orange;}
</style>
<defs>
</defs>
<path class="st0" d="M8.1,15c2.9-0.1,4.2-1.4,4.8-2c2-1.9,2-3.9,2-4.8c-0.1-2.9-1.4-4.2-2-4.8c-1.9-2-3.9-2-4.8-2
	c-2.9,0.1-4.2,1.4-4.8,2c-2,1.9-2,3.9-2,4.8c0.1,2.9,1.4,4.2,2,4.8C5.2,14.9,7.1,15,8.1,15z M0,8.1c0.1-3.4,1.6-5,2.4-5.7
	C4.7,0.1,7,0,8.1,0c3.4,0.1,5,1.6,5.7,2.4c2.3,2.3,2.4,4.6,2.4,5.7c0,3.1-1.3,4.5-2,5.3l5.5,5.5c0.4,0.4,0.1,0.7,0,0.9
	c-0.4,0.4-0.7,0.1-0.9,0l-5.5-5.5c-2.2,2-4.2,2-5.3,2c-3.4-0.1-5-1.6-5.7-2.4C0.1,11.6,0,9.3,0,8.1z M12.3,7.7
	c0.4,0.4,0.1,0.7,0,0.9l-3.1,3.1c-0.4,0.4-0.7,0.1-0.9,0c-0.4-0.4-0.1-0.7,0-0.9l2-2.1h-6c-0.6,0-0.6-0.4-0.6-0.6
	c0-0.6,0.4-0.6,0.6-0.6h6l-2-2.1C7.9,5,8.2,4.7,8.3,4.6c0.4-0.4,0.7-0.1,0.9,0L12.3,7.7z"/>
</svg>

