<svg id="Layer_1" data-name="Layer 1" xmlns="http://www.w3.org/2000/svg" viewBox="0 0 64 56"><path d="M57.89,4A2.11,2.11,0,0,1,60,6.09v43.8A2.1,2.1,0,0,1,57.89,52H6.11A2.1,2.1,0,0,1,4,49.89V6.11A2.1,2.1,0,0,1,6.11,4H58m-.14-4H6.14A6.14,6.14,0,0,0,0,6.14V49.86A6.14,6.14,0,0,0,6.14,56H57.86A6.14,6.14,0,0,0,64,49.86V6.08A6.11,6.11,0,0,0,57.86,0Z" fill="orange"/><path d="M16.05,12.46a3.87,3.87,0,1,0,3.87,3.87,3.87,3.87,0,0,0-3.87-3.87Z" fill="orange"/><path d="M51.1,14H24.91a.91.91,0,0,0-.91.91v3.18a.91.91,0,0,0,.91.91H51.09a.91.91,0,0,0,.91-.91V15a.94.94,0,0,0-.9-1Z" fill="orange"/><path d="M16.05,24.52a3.87,3.87,0,1,0,3.87,3.87,3.86,3.86,0,0,0-3.87-3.87Z" fill="orange"/><path d="M51.1,26H24.91a.91.91,0,0,0-.91.91v3.18a.91.91,0,0,0,.91.91H51.09a.91.91,0,0,0,.91-.91V27a.94.94,0,0,0-.9-1Z" fill="orange"/><path d="M16.05,36.58a3.87,3.87,0,1,0,3.87,3.87,3.86,3.86,0,0,0-3.87-3.87Z" fill="orange"/><path d="M51.1,38H24.91a.91.91,0,0,0-.91.91v3.18a.91.91,0,0,0,.91.91H51.09a.91.91,0,0,0,.91-.91V39a.94.94,0,0,0-.9-1Z" fill="orange"/></svg>