<svg xmlns="http://www.w3.org/2000/svg" viewBox="0 0 66.04 43.53"><title>maratalogo</title><g id="Layer_2" data-name="Layer 2"><g id="Layer_1-2" data-name="Layer 1"><path d="M9.18,43.21A8.88,8.88,0,0,1,.31,34.37V9.21A8.91,8.91,0,0,1,9.21.31H56.86a8.88,8.88,0,0,1,8.87,8.87V34.32a8.9,8.9,0,0,1-8.9,8.89Z" style="fill:#fff"/><path d="M56.86.88H9.21A8.34,8.34,0,0,0,.88,9.21V34.35a8.32,8.32,0,0,0,8.3,8.3H56.83a8.34,8.34,0,0,0,8.33-8.33V9.18A8.31,8.31,0,0,0,56.86.88Z" style="fill:none"/><path d="M65.16,5.29A9.18,9.18,0,0,0,56.86,0H9.21A9.22,9.22,0,0,0,.88,5.31,9.07,9.07,0,0,0,0,9.21V34.34a9.07,9.07,0,0,0,.88,3.9,9.18,9.18,0,0,0,8.3,5.29H56.83A9.25,9.25,0,0,0,66,34.32V9.18A9.06,9.06,0,0,0,65.16,5.29Zm0,9.12V34.32a8.34,8.34,0,0,1-8.33,8.33H9.18a8.32,8.32,0,0,1-8.3-8.3h0V29.12h0V9.21A8.34,8.34,0,0,1,9.21.88H56.86a8.31,8.31,0,0,1,8.3,8.3h0v5.23Z" style="fill:#a6a6a6"/><path d="M46.26,32.08A.18.18,0,0,0,46,32h0a27.74,27.74,0,0,1-12.72,3.18h-.37A27.78,27.78,0,0,1,20.19,32h0a.2.2,0,0,0-.24,0,.19.19,0,0,0,0,.26,19.37,19.37,0,0,0,6.12,3.12,24.08,24.08,0,0,0,6.8,1.18h.43a24.15,24.15,0,0,0,6.8-1.18,19.22,19.22,0,0,0,6.11-3.12A.18.18,0,0,0,46.26,32.08Z" style="fill:#231f20"/><path d="M15.49,25.52H14V16a6,6,0,0,1-.26,1l-2.88,8.55H9.37L6.54,17a9.82,9.82,0,0,1-.26-1v9.52H4.85V14.37H7.08l3.07,9.45.13-.56a1.59,1.59,0,0,1,.12-.35l2.91-8.54h2.18Z" style="fill:#231f20"/><path d="M25,25.55a5.08,5.08,0,0,1-.7.12,1.39,1.39,0,0,1-1.52-1.22,2.94,2.94,0,0,1-2.61,1.32,3.19,3.19,0,0,1-2.71-1.35,4.85,4.85,0,0,1-.89-3,4.89,4.89,0,0,1,.87-3,3.21,3.21,0,0,1,2.72-1.31,3,3,0,0,1,2.59,1.34V17.4H24.1v6.29q0,.81.75.81l.14,0ZM22.8,21.44a3.67,3.67,0,0,0-.55-2.07,2,2,0,0,0-1.8-1,2.22,2.22,0,0,0-1.87.92A3.37,3.37,0,0,0,18,21.35a3.91,3.91,0,0,0,.57,2.2,2.17,2.17,0,0,0,1.94,1,2,2,0,0,0,1.8-1A3.93,3.93,0,0,0,22.8,21.44Z" style="fill:#231f20"/><path d="M34,21.39a4.45,4.45,0,0,1-1.24,3.43,3.57,3.57,0,0,1-2.49.95,3.75,3.75,0,0,1-2.74-1.17v4.56H26.23V21.53a4.76,4.76,0,0,1,.94-3.1,3.55,3.55,0,0,1,2.94-1.27,3.72,3.72,0,0,1,2.53.92A4.08,4.08,0,0,1,34,20.49,5.62,5.62,0,0,1,34,21.39Zm-1.39.11a5.16,5.16,0,0,0,0-.75A2.74,2.74,0,0,0,31.83,19a2.35,2.35,0,0,0-1.73-.65,2.18,2.18,0,0,0-1.9,1,3.55,3.55,0,0,0-.58,2.11,3.73,3.73,0,0,0,.58,2.15,2.19,2.19,0,0,0,1.92,1,2.45,2.45,0,0,0,1.74-.66,2.2,2.2,0,0,0,.71-1.68A7.07,7.07,0,0,0,32.62,21.5Z" style="fill:#231f20"/><path d="M43.53,25.55a5.08,5.08,0,0,1-.7.12,1.4,1.4,0,0,1-1.52-1.22,2.94,2.94,0,0,1-2.61,1.32A3.2,3.2,0,0,1,36,24.42a4.84,4.84,0,0,1-.88-3,4.89,4.89,0,0,1,.87-3,3.19,3.19,0,0,1,2.71-1.31,3,3,0,0,1,2.59,1.34V17.4h1.36v6.29c0,.54.26.81.75.81l.14,0Zm-2.18-4.11a3.68,3.68,0,0,0-.56-2.07,2,2,0,0,0-1.8-1,2.2,2.2,0,0,0-1.86.92,3.37,3.37,0,0,0-.62,2.05,3.91,3.91,0,0,0,.57,2.2,2.19,2.19,0,0,0,1.94,1,2,2,0,0,0,1.81-1A4,4,0,0,0,41.35,21.44Zm-.79-7.16-1.43,2.48h-.66l.88-2.48Z" style="fill:#231f20"/><path d="M51.69,18.63H48.8v4.93c0,.63.28.94.85.92h.48v1.06a4.49,4.49,0,0,1-1,.13c-.86,0-1.37-.3-1.55-.9A7.68,7.68,0,0,1,47.44,23V18.63H44.58V17.4h7.11Z" style="fill:#231f20"/><path d="M61.19,25.55a4.84,4.84,0,0,1-.7.12A1.38,1.38,0,0,1,59,24.45a3,3,0,0,1-2.62,1.32,3.17,3.17,0,0,1-2.7-1.35,4.78,4.78,0,0,1-.89-3,4.89,4.89,0,0,1,.87-3,3.19,3.19,0,0,1,2.71-1.31A3.06,3.06,0,0,1,59,18.5V17.4h1.36v6.29c0,.54.26.81.74.81l.14,0ZM59,21.44a3.75,3.75,0,0,0-.55-2.07,2,2,0,0,0-1.81-1,2.21,2.21,0,0,0-1.86.92,3.37,3.37,0,0,0-.61,2.05,3.91,3.91,0,0,0,.56,2.2,2.19,2.19,0,0,0,1.94,1,2,2,0,0,0,1.81-1A4,4,0,0,0,59,21.44Z" style="fill:#231f20"/></g></g></svg>