<svg xmlns="http://www.w3.org/2000/svg" xmlns:xlink="http://www.w3.org/1999/xlink" viewBox="0 0 461.76 116.01"><defs><clipPath id="clip-path"><path d="M77.74,105.66c-.82,0-12.49-.4-19.31-2.67-4.4-1.46-9.36-3.35-14.61-5.35L43,97.32c-2.32-.88-4.62-1.76-6.92-2.61-10-3.7-22.26-4.49-29.33-4.61V25.91c7.09-.12,19.41-.92,29.33-4.61,2.2-.81,4.39-1.64,6.55-2.47l1.1-.41C49,16.4,54,14.49,58.43,13c7.05-2.34,19.28-2.67,19.4-2.67h.24c.46,0,12.17.4,19,2.67,4.43,1.48,9.37,3.36,14.61,5.36l1,.4c2.25.85,4.48,1.7,6.7,2.52,10,3.7,22.26,4.49,29.34,4.61v64.2c-7.1.12-19.41.92-29.34,4.6-2.47.92-4.94,1.86-7.37,2.79l-.37.14c-5.27,2-10.22,3.89-14.61,5.35C90.24,105.26,78.56,105.64,77.74,105.66Z" style="fill:none"/></clipPath></defs><title>meathousel</title><g id="Layer_2" data-name="Layer 2"><g id="Layer_1-2" data-name="Layer 1"><path d="M77.74,112c-.13,0-13.26-.28-21.58-3-4.5-1.49-9.52-3.41-14.83-5.43-2.55-1-5.15-2-7.76-2.93-10.15-3.78-23.52-4.18-28.8-4.18-1.37,0-2.17,0-2.2,0L0,96.5v-77l2.57.09s.83,0,2.21,0c5.27,0,18.64-.41,28.79-4.18,2.59-1,5.17-1.94,7.71-2.91,5.33-2,10.37-4,14.88-5.45,8.32-2.77,21.47-3,21.6-3h.31c.6,0,13.21.36,21.27,3,4.51,1.5,9.54,3.41,14.87,5.45,2.54,1,5.13,1.95,7.72,2.91,10.14,3.77,23.52,4.18,28.79,4.18,1.38,0,2.18,0,2.2,0l2.58-.09v77l-2.58-.1s-.82,0-2.2,0c-5.27,0-18.65.4-28.79,4.17-2.6,1-5.18,2-7.73,2.92-5.32,2-10.36,4-14.86,5.45-8.32,2.76-21.47,3-21.6,3Z" style="fill:#931a1d"/><path d="M153,22.09s-18.56.67-31.95-4.3c-8-3-15.89-6.14-22.51-8.34C90.76,6.86,78.07,6.54,78.07,6.54h-.31c-.2,0-13,.32-20.82,2.91-6.61,2.2-14.54,5.38-22.51,8.34-13.38,5-31.95,4.3-31.95,4.3V93.93s18.57-.68,32,4.3c8,3,15.9,6.13,22.51,8.33,7.8,2.59,20.61,2.91,20.8,2.91s13-.32,20.81-2.91c6.62-2.2,14.55-5.37,22.51-8.33,13.39-5,31.95-4.31,31.95-4.31Z" style="fill:#931a1d"/><path d="M77.74,107.64c-.58,0-12.75-.37-20-2.78-4.42-1.47-9.41-3.37-14.7-5.39-2.55-1-5.14-2-7.73-2.92-10.89-4-25-4.48-30.5-4.48H4.61V24h.17c5.54,0,19.61-.44,30.5-4.48L43,16.55c5.29-2,10.28-3.92,14.7-5.39,7.47-2.48,19.95-2.79,20.08-2.79h.28c.06,0,12.36.35,19.72,2.79,4.42,1.47,9.41,3.37,14.7,5.39,2.54,1,5.13,1.95,7.73,2.92,10.89,4,25,4.48,30.5,4.48h.16V92.07h-.16c-5.54,0-19.61.43-30.5,4.48-2.6,1-5.19,2-7.73,2.92-5.29,2-10.29,3.92-14.7,5.39C90.5,107.28,78.32,107.63,77.74,107.64Z" style="fill:#fff"/><path d="M77.74,106.73c-.7,0-12.65-.4-19.65-2.73-4.4-1.46-9.38-3.36-14.65-5.37-2.61-1-5.17-2-7.74-2.92-10.52-3.91-23.9-4.51-30-4.56V24.86c6.32-.06,19.58-.67,30-4.55,2.57-1,5.13-1.93,7.64-2.89,5.37-2,10.35-3.94,14.75-5.41,7.26-2.41,19.6-2.72,19.72-2.73h.26c.47,0,12.31.4,19.33,2.73,4.43,1.47,9.4,3.37,14.66,5.37,2.61,1,5.17,2,7.73,2.93,10.52,3.91,23.91,4.5,30,4.55v66.3c-6.32,0-19.58.67-30,4.55-2.47.92-4.93,1.86-7.36,2.78l-.37.14c-5.26,2-10.23,3.9-14.66,5.37C90.41,106.33,78.44,106.71,77.74,106.73Z" style="fill:#931a1d"/><g style="clip-path:url(#clip-path)"><rect width="154.96" height="116.01" style="fill:#931a1d"/><rect x="7.48" width="9.62" height="116.01" style="fill:#b92025"/><rect x="26.42" width="9.62" height="116.01" style="fill:#b92025"/><rect x="45.36" width="9.62" height="116.01" style="fill:#b92025"/><rect x="64.3" width="9.62" height="116.01" style="fill:#b92025"/><rect x="83.24" width="9.62" height="116.01" style="fill:#b92025"/><rect x="102.18" width="9.62" height="116.01" style="fill:#b92025"/><rect x="121.12" width="9.62" height="116.01" style="fill:#b92025"/><rect x="140.06" width="9.62" height="116.01" style="fill:#b92025"/></g><path d="M58.4,39.41a2.93,2.93,0,0,0-1.51.6,2.4,2.4,0,0,0-.49,1.76c0,1.68,0,3.19,0,4.52s0,2.56,0,3.68.05,2.17.08,3.18.07,2,.11,3.05c0,.37.05.7.09,1a2.28,2.28,0,0,0,.19.73,1.17,1.17,0,0,0,.43.48,2,2,0,0,0,.77.25l1,.13a.85.85,0,0,1,.2.62c0,.29-.09.46-.27.53-.76,0-1.5-.08-2.23-.09H52.2q-1.28,0-2.46.09a.61.61,0,0,1-.32-.56.56.56,0,0,1,.23-.59l1-.13a3.51,3.51,0,0,0,.87-.2.88.88,0,0,0,.46-.41,1.71,1.71,0,0,0,.16-.75c0-.32,0-.73,0-1.23l-.07-8.53V43.8H52l-3.71,8q-1.87,4.05-3.51,8.25a1.05,1.05,0,0,1-.65.23,2.31,2.31,0,0,1-.46,0,1.11,1.11,0,0,1-.4-.15c-.32-1-.78-2.25-1.37-3.67S40.68,53.54,40,52s-1.37-3-2-4.44-1.23-2.7-1.69-3.77H36.2c-.07,1.07-.12,2-.15,2.72S36,48.07,36,48.92c0,.52,0,1.11,0,1.77s0,1.31,0,2,0,1.32,0,1.95V56.3a9.55,9.55,0,0,0,.05,1,1.65,1.65,0,0,0,.22.66,1.12,1.12,0,0,0,.46.39,2.36,2.36,0,0,0,.78.21l1.28.2a.67.67,0,0,1,.17.59.75.75,0,0,1-.23.56q-.93-.07-1.92-.09H33q-1,0-1.95.09a.38.38,0,0,1-.25-.2,1.06,1.06,0,0,1-.09-.36.62.62,0,0,1,.05-.36.41.41,0,0,1,.16-.23l.59-.1a5.72,5.72,0,0,0,1-.23,1.21,1.21,0,0,0,.56-.38,1.62,1.62,0,0,0,.28-.7c.05-.31.1-.71.15-1.22.08-.8.17-1.88.24-3.21s.17-2.79.28-4.36c.07-1.12.12-2.27.17-3.48s.06-2.25.06-3.15A2.68,2.68,0,0,0,33.71,40a2.86,2.86,0,0,0-1.51-.67l-.72-.13a.8.8,0,0,1-.18-.64q0-.43.27-.51c1.12.07,2.5.1,4.14.1h1.57c.5,0,1,0,1.64-.09a6.24,6.24,0,0,0,.2,1.53,11,11,0,0,0,.56,1.64c.24.58.51,1.19.83,1.84s.65,1.34,1,2.11l2.17,4.62c.06.16.17.38.32.68l.5.93c.17.33.35.65.52,1l.43.77c.22-.39.47-.87.75-1.43s.65-1.33,1.08-2.31L49,45.83l1-2.24c.3-.65.56-1.26.79-1.84s.44-1.16.64-1.74.38-1.22.56-1.92c.76.07,1.4.1,1.93.1h3.43c.69,0,1.32,0,1.92-.09a.62.62,0,0,1,.27.53.93.93,0,0,1-.18.62Z" style="fill:#fff"/><path d="M80.15,54.69A10.8,10.8,0,0,1,80,56.1c-.11.52-.23,1-.36,1.52s-.28,1-.43,1.37a9.81,9.81,0,0,1-.39.95c-.44,0-1,0-1.54,0l-1.89,0H64.45c-.86,0-1.92,0-3.16.09a.76.76,0,0,1-.2-.6.63.63,0,0,1,.2-.55l1.54-.23a6.05,6.05,0,0,0,.89-.22.87.87,0,0,0,.5-.45,2.63,2.63,0,0,0,.23-1c0-.44,0-1,0-1.78V42.88c0-.74,0-1.33,0-1.75a2.57,2.57,0,0,0-.23-1,1.08,1.08,0,0,0-.5-.49,3.62,3.62,0,0,0-.89-.24L62,39.24a.63.63,0,0,1-.21-.57.65.65,0,0,1,.28-.58c1.55.07,3.12.1,4.72.1h9.77a10.28,10.28,0,0,0,1.58-.09c0,.14,0,.37,0,.71s.08.74.12,1.21.09,1,.13,1.53.09,1.09.13,1.64c-.06.17-.24.28-.52.31a.86.86,0,0,1-.69-.18,11.81,11.81,0,0,0-.59-1.54,4.35,4.35,0,0,0-.66-1.05A3.2,3.2,0,0,0,74.88,40a5.78,5.78,0,0,0-2-.28H70.27a5,5,0,0,0-.62,0,.57.57,0,0,0-.33.15.69.69,0,0,0-.11.38c0,.17,0,.41,0,.72v5.74a1.66,1.66,0,0,0,.13.84,1.33,1.33,0,0,0,.79.14h2.26a7.64,7.64,0,0,0,1.07-.06,1.71,1.71,0,0,0,.67-.25,1.15,1.15,0,0,0,.41-.54,6.23,6.23,0,0,0,.28-1l.17-.82a.51.51,0,0,1,.26-.15,1.36,1.36,0,0,1,.36,0A1,1,0,0,1,76,45a.52.52,0,0,1,.23.16c-.07,1-.1,2.21-.1,3.48s0,2.42.1,3.48a.62.62,0,0,1-.23.16,1,1,0,0,1-.36.06,1.37,1.37,0,0,1-.36,0A.71.71,0,0,1,75,52.1l-.17-.82a5.9,5.9,0,0,0-.28-1,1.26,1.26,0,0,0-.41-.56,1.45,1.45,0,0,0-.67-.26,6.21,6.21,0,0,0-1.07-.07H70.11l-.51,0a.48.48,0,0,0-.28.11.52.52,0,0,0-.11.31c0,.15,0,.34,0,.58v3.9a12.73,12.73,0,0,0,.12,1.92,2.77,2.77,0,0,0,.41,1.2,2,2,0,0,0,.37.39,1.65,1.65,0,0,0,.61.26,5.5,5.5,0,0,0,1,.15c.4,0,.89,0,1.48,0s1.34,0,1.85-.07a3.37,3.37,0,0,0,1.43-.44,4,4,0,0,0,1.23-1.15,14.79,14.79,0,0,0,1.26-2.15.64.64,0,0,1,.66-.19A.61.61,0,0,1,80.15,54.69Z" style="fill:#fff"/><path d="M102.18,58.79a.77.77,0,0,1,.19.55.67.67,0,0,1-.22.6c-.78,0-1.61-.08-2.47-.09H94.84c-.68,0-1.4,0-2.17.09a.69.69,0,0,1-.29-.56.61.61,0,0,1,.23-.59l1-.17a1.54,1.54,0,0,0,.72-.24.41.41,0,0,0,.16-.31,3.49,3.49,0,0,0-.16-.74c-.11-.38-.26-.88-.46-1.49L93,53a.7.7,0,0,0-.42-.5,4.74,4.74,0,0,0-1.15-.09H87.79a2,2,0,0,0-.76.09,1.17,1.17,0,0,0-.33.56l-1.21,3.81a5.32,5.32,0,0,0-.2.73,3.77,3.77,0,0,0,0,.45c0,.11.08.2.25.29a3.29,3.29,0,0,0,.93.26l1,.17a.91.91,0,0,1,.18.59.56.56,0,0,1-.25.56c-.57,0-1.18-.07-1.84-.07l-2,0c-.57,0-1.08,0-1.54,0s-1.07,0-1.83,0a.61.61,0,0,1-.27-.56.9.9,0,0,1,.17-.59l.88-.1A2.45,2.45,0,0,0,82,58.31a2.88,2.88,0,0,0,.91-1.26c.29-.65.59-1.4.9-2.23s.7-1.84,1.14-3l3-8c.37-1,.69-1.86,1-2.49a3.7,3.7,0,0,0,.33-1.68,3.2,3.2,0,0,0,1.1-.45,7.46,7.46,0,0,0,.88-.66,7.09,7.09,0,0,0,.61-.59,1.3,1.3,0,0,1,.26-.26.74.74,0,0,1,.75.65c.14.48.31,1.06.53,1.72s.53,1.6,1,2.78l4.46,12.85.46,1.25a3.91,3.91,0,0,0,.44.87,2.3,2.3,0,0,0,.54.54,1.8,1.8,0,0,0,.76.26ZM91.1,47.08q-.36-1-.66-2a14,14,0,0,0-.52-1.46c-.18.37-.38.87-.62,1.51s-.49,1.33-.73,2.09l-.82,2.46c-.15.44-.18.71-.08.82a1.14,1.14,0,0,0,.77.17H91.3a1.07,1.07,0,0,0,.7-.15c.1-.1.08-.37,0-.8Z" style="fill:#fff"/><path d="M123,37.6a8,8,0,0,0-.23,1.1c-.06.45-.12.93-.16,1.44s-.08,1-.1,1.6,0,1,0,1.5c-.09.16-.29.24-.61.27s-.52,0-.6-.17c-.14-.52-.28-1-.43-1.46a4,4,0,0,0-.59-1.15,2.64,2.64,0,0,0-1-.75,3.48,3.48,0,0,0-1.51-.28h-2a1.17,1.17,0,0,0-.74.15,1.4,1.4,0,0,0-.14.8V55.11c0,.77,0,1.37,0,1.81a2.64,2.64,0,0,0,.23,1,1,1,0,0,0,.5.5,3.88,3.88,0,0,0,.89.19l1.31.17a.81.81,0,0,1,.17.59.78.78,0,0,1-.17.56c-1.07,0-2-.08-2.87-.09H110.2q-1.32,0-3.06.09a.7.7,0,0,1-.2-.56.73.73,0,0,1,.2-.59l1.47-.17a3.76,3.76,0,0,0,.89-.19A1,1,0,0,0,110,58a2.85,2.85,0,0,0,.23-1c0-.44.05-1,.05-1.82V40.65a2,2,0,0,0-.1-.77q-.1-.18-.69-.18h-2A4,4,0,0,0,106,40a3,3,0,0,0-1.07.7,4.78,4.78,0,0,0-.79,1.17c-.23.47-.46,1-.7,1.59a1,1,0,0,1-.67.1.71.71,0,0,1-.54-.4,19.55,19.55,0,0,0,.72-3.16c.13-1,.25-1.78.36-2.42a.83.83,0,0,1,.46-.16.78.78,0,0,1,.46.13,2.32,2.32,0,0,0,.14.35.53.53,0,0,0,.36.21,5.52,5.52,0,0,0,.81.1q.52,0,1.44,0h13.55a4.18,4.18,0,0,0,.83-.09,1.06,1.06,0,0,0,.49-.21.88.88,0,0,0,.28-.41,1,1,0,0,1,.43-.1.61.61,0,0,1,.3.08Z" style="fill:#fff"/><path d="M51,83.71c-1.35-.06-2.65-.08-3.9-.08s-2.66,0-4,.08a.59.59,0,0,1-.16-.46.63.63,0,0,1,.16-.48l.59-.08a2.86,2.86,0,0,0,.74-.18.8.8,0,0,0,.42-.41,2.43,2.43,0,0,0,.17-.85c0-.37,0-.86,0-1.49V75.89c0-.19,0-.34,0-.44a.33.33,0,0,0-.12-.23.66.66,0,0,0-.34-.09l-.65,0H38.39l-.63,0a.69.69,0,0,0-.34.09.38.38,0,0,0-.13.23,2.44,2.44,0,0,0,0,.44v3.87c0,.63,0,1.12,0,1.49a2.38,2.38,0,0,0,.19.85.82.82,0,0,0,.42.4,2.76,2.76,0,0,0,.72.16l.86.11a.59.59,0,0,1,.16.48.56.56,0,0,1-.16.46c-1.52-.06-2.88-.08-4.08-.08s-2.62,0-4,.08a.56.56,0,0,1-.16-.46.59.59,0,0,1,.16-.48l.64-.08a2.86,2.86,0,0,0,.74-.18.8.8,0,0,0,.42-.41,2.69,2.69,0,0,0,.17-.85c0-.37,0-.86,0-1.49v-10c0-.63,0-1.12,0-1.49a2.69,2.69,0,0,0-.17-.85.8.8,0,0,0-.42-.41,2.86,2.86,0,0,0-.74-.18l-.64-.08a.55.55,0,0,1-.16-.45.6.6,0,0,1,.16-.49c.66,0,1.33.06,2,.07h3.87c.64,0,1.26,0,1.85-.07a.6.6,0,0,1,.16.49.55.55,0,0,1-.16.45l-.56.08a2.44,2.44,0,0,0-.69.18.88.88,0,0,0-.4.41,2.38,2.38,0,0,0-.19.85c0,.37,0,.86,0,1.49v3.12a2.64,2.64,0,0,0,0,.45.35.35,0,0,0,.13.24.6.6,0,0,0,.34.1h6.87a.57.57,0,0,0,.34-.1.31.31,0,0,0,.12-.24c0-.11,0-.26,0-.45V69.77c0-.63,0-1.12,0-1.48a2.41,2.41,0,0,0-.17-.83.72.72,0,0,0-.42-.4,3.92,3.92,0,0,0-.74-.19L43,66.76a.55.55,0,0,1-.16-.45.6.6,0,0,1,.16-.49c.75,0,1.46.06,2.12.07h2c1.29,0,2.55,0,3.79-.08a.6.6,0,0,1,.16.49.55.55,0,0,1-.16.45l-.54.08a5.2,5.2,0,0,0-.74.19.8.8,0,0,0-.43.4,2.38,2.38,0,0,0-.19.85c0,.37,0,.86,0,1.49v10c0,.63,0,1.12,0,1.48a2.31,2.31,0,0,0,.19.83.76.76,0,0,0,.43.4,4.13,4.13,0,0,0,.74.19l.65.11a.63.63,0,0,1,.16.48A.59.59,0,0,1,51,83.71Z" style="fill:#fff"/><path d="M72.6,74.69a10.59,10.59,0,0,1-.69,3.93,8.38,8.38,0,0,1-2,2.94,8.74,8.74,0,0,1-3.06,1.85,11.58,11.58,0,0,1-4,.65,10.51,10.51,0,0,1-3.73-.65,8.57,8.57,0,0,1-3-1.82,8.24,8.24,0,0,1-1.93-2.89,10.38,10.38,0,0,1,0-7.52,8.93,8.93,0,0,1,2-3,9.07,9.07,0,0,1,3-2,10.18,10.18,0,0,1,3.87-.73,10.43,10.43,0,0,1,3.82.68A8.47,8.47,0,0,1,71.92,71,10,10,0,0,1,72.6,74.69ZM68.31,75a13.45,13.45,0,0,0-.37-3.24,8.91,8.91,0,0,0-1.06-2.65,5.64,5.64,0,0,0-1.68-1.78A3.91,3.91,0,0,0,63,66.71a4.29,4.29,0,0,0-2.19.55,4.73,4.73,0,0,0-1.59,1.56,7.49,7.49,0,0,0-1,2.39,13.22,13.22,0,0,0-.32,3.07A14.89,14.89,0,0,0,58.34,78,10.39,10.39,0,0,0,59,79.77a6.07,6.07,0,0,0,1,1.56,4.58,4.58,0,0,0,1.45,1.09,4.35,4.35,0,0,0,1.93.4,4,4,0,0,0,2.24-.6,4.75,4.75,0,0,0,1.52-1.65A8.16,8.16,0,0,0,68,78.1,16.44,16.44,0,0,0,68.31,75Z" style="fill:#fff"/><path d="M93.31,66.84a5.24,5.24,0,0,0-.9.3,1.07,1.07,0,0,0-.55.59,6.72,6.72,0,0,0-.31,1.91q-.09,1.36-.09,3v3c0,.63,0,1.24-.07,1.84a15.34,15.34,0,0,1-.24,1.73,7.51,7.51,0,0,1-.51,1.56,5.21,5.21,0,0,1-3.19,2.78,9,9,0,0,1-3,.5,13.08,13.08,0,0,1-2.87-.31,6.1,6.1,0,0,1-2.45-1.2,4.77,4.77,0,0,1-1.51-2.36,12.33,12.33,0,0,1-.48-3.71V69.77c0-.63,0-1.12,0-1.48a2.08,2.08,0,0,0-.18-.82.9.9,0,0,0-.42-.4,3,3,0,0,0-.73-.2l-.67-.13a.61.61,0,0,1-.16-.46.49.49,0,0,1,.22-.46c1.29.06,2.59.08,3.92.08s2.63,0,3.92-.08a.56.56,0,0,1,.16.46.57.57,0,0,1-.16.46l-.64.1a3.52,3.52,0,0,0-.73.2.9.9,0,0,0-.42.42,2.18,2.18,0,0,0-.18.83c0,.36,0,.85,0,1.48V76a23.51,23.51,0,0,0,.12,2.37,6.43,6.43,0,0,0,.56,2.12A3.71,3.71,0,0,0,83,82a4.35,4.35,0,0,0,2.42.59,4,4,0,0,0,2.14-.52,3.92,3.92,0,0,0,1.39-1.44,6.69,6.69,0,0,0,.74-2.13,15.38,15.38,0,0,0,.21-2.6V72.64q0-1.64-.09-3a7.55,7.55,0,0,0-.31-1.91,1.07,1.07,0,0,0-.61-.59,5.15,5.15,0,0,0-1-.27l-.72-.13a.61.61,0,0,1-.15-.48.66.66,0,0,1,.15-.44c.73,0,1.37.06,1.93.07h1.66c1,0,2,0,3-.08a.66.66,0,0,1,.15.44.61.61,0,0,1-.15.48Z" style="fill:#fff"/><path d="M107.38,78.61a5.14,5.14,0,0,1-.48,2.24,5.07,5.07,0,0,1-1.37,1.72,6.46,6.46,0,0,1-2.14,1.1,9.29,9.29,0,0,1-2.78.39,9.46,9.46,0,0,1-3-.39A10.61,10.61,0,0,1,96.05,83a2.12,2.12,0,0,1-.35-.68,6.27,6.27,0,0,1-.27-1c-.07-.4-.13-.82-.17-1.28a12.46,12.46,0,0,1-.07-1.35.5.5,0,0,1,.49-.28.55.55,0,0,1,.53.2A7.86,7.86,0,0,0,96.84,80a6.51,6.51,0,0,0,1,1.37,5.71,5.71,0,0,0,1.36,1,3.35,3.35,0,0,0,1.61.41,3.16,3.16,0,0,0,1.29-.24A2.82,2.82,0,0,0,103,82a2.26,2.26,0,0,0,.53-.86,2.8,2.8,0,0,0,.18-1,3.09,3.09,0,0,0-.35-1.46,4.86,4.86,0,0,0-.87-1.19,7.09,7.09,0,0,0-1.17-.92,13.45,13.45,0,0,0-1.26-.7A14.52,14.52,0,0,1,98.63,75a6.74,6.74,0,0,1-1.31-1.13,5.92,5.92,0,0,1-.94-1.45A4.32,4.32,0,0,1,96,70.6a5.12,5.12,0,0,1,.42-2.08,4.29,4.29,0,0,1,1.22-1.62,5.79,5.79,0,0,1,2-1.05,8.54,8.54,0,0,1,2.62-.38,11,11,0,0,1,1.46.1,9.1,9.1,0,0,1,1.6.33c.31.09.61.16.92.22a10.38,10.38,0,0,1,.32,1.46,14.93,14.93,0,0,1,.16,2.38.51.51,0,0,1-.48.27.69.69,0,0,1-.57-.19,6.59,6.59,0,0,0-.47-1.1,4.8,4.8,0,0,0-.75-1.09,4,4,0,0,0-1-.82,3,3,0,0,0-3.34.42,2.45,2.45,0,0,0-.7,1.76,2.57,2.57,0,0,0,.71,1.73,6.09,6.09,0,0,0,1.73,1.33l1.77.94a10.19,10.19,0,0,1,1.29.79,6.23,6.23,0,0,1,1.23,1.13,6,6,0,0,1,.91,1.52A5,5,0,0,1,107.38,78.61Z" style="fill:#fff"/><path d="M124.54,79.41a8,8,0,0,1-.16,1.16c-.09.43-.19.84-.29,1.25s-.23.77-.35,1.11-.24.6-.33.78l-1.26,0-1.54,0h-8.92c-.71,0-1.57,0-2.59.07a.59.59,0,0,1-.16-.48c0-.24,0-.39.16-.46l1.26-.19a4.71,4.71,0,0,0,.73-.17.76.76,0,0,0,.41-.38,2.2,2.2,0,0,0,.19-.82c0-.36,0-.84,0-1.45v-10c0-.6,0-1.09,0-1.43a2.19,2.19,0,0,0-.19-.81.84.84,0,0,0-.41-.4,3,3,0,0,0-.73-.2l-.67-.14a.49.49,0,0,1-.17-.47.52.52,0,0,1,.22-.47c1.28.06,2.56.08,3.87.08h8a9,9,0,0,0,1.29-.07c0,.11,0,.3,0,.58s.06.61.1,1,.07.8.1,1.25.08.9.11,1.34c0,.15-.2.23-.43.26a.66.66,0,0,1-.56-.15,10.72,10.72,0,0,0-.48-1.26,3.56,3.56,0,0,0-.54-.86,2.69,2.69,0,0,0-1-.6,4.64,4.64,0,0,0-1.62-.23h-2.15a3.3,3.3,0,0,0-.51,0,.35.35,0,0,0-.27.12.53.53,0,0,0-.1.3c0,.15,0,.35,0,.6v4.7a1.27,1.27,0,0,0,.11.68c.07.08.29.12.64.12h1.86a6.69,6.69,0,0,0,.87,0,1.38,1.38,0,0,0,.55-.21,1,1,0,0,0,.34-.44,4.54,4.54,0,0,0,.22-.78l.14-.67a.53.53,0,0,1,.21-.12,1,1,0,0,1,.3,0,.88.88,0,0,1,.29.05.43.43,0,0,1,.19.14c-.05.86-.08,1.81-.08,2.85s0,2,.08,2.84a.36.36,0,0,1-.19.14.88.88,0,0,1-.29,0,1,1,0,0,1-.3,0,.53.53,0,0,1-.21-.12l-.14-.67a5.14,5.14,0,0,0-.22-.78,1.18,1.18,0,0,0-.34-.46,1.24,1.24,0,0,0-.55-.21,5.14,5.14,0,0,0-.87-.06h-1.86l-.41,0a.37.37,0,0,0-.23.09.45.45,0,0,0-.1.26c0,.11,0,.27,0,.47v3.19a9.84,9.84,0,0,0,.1,1.57,2.3,2.3,0,0,0,.33,1,1.4,1.4,0,0,0,.31.33,1.3,1.3,0,0,0,.5.21,6,6,0,0,0,.8.12c.33,0,.73,0,1.21,0s1.1,0,1.52,0a3,3,0,0,0,1.17-.36,3.5,3.5,0,0,0,1-.94,11.85,11.85,0,0,0,1-1.76.5.5,0,0,1,.54-.16A.48.48,0,0,1,124.54,79.41Z" style="fill:#fff"/><path d="M170.71,43.92c-.39-.38-.39-1.54.14-1.68,1.63.1,3.7.14,6.05.14,1.58,0,3,0,4.7-.14,0,3,1.68,5.9,3.8,10.42l3.16,6.76c.44,1,1.92,3.7,2.59,4.9.63-1.15,1.4-2.64,2.7-5.47l2.44-5.28c2.31-5,3.36-7.2,4.42-11.33,2.21.19,3.69.14,5.13.14,1.59,0,3.8,0,5.52-.14a1.2,1.2,0,0,1,.15,1.68l-1.39.24c-2,.34-2.93.91-2.93,3.46,0,9.88.09,15.07.38,21.12.1,2.2.29,3.36,2.16,3.59l1.54.2c.38.38.38,1.49-.1,1.68-2.21-.1-4.27-.15-6.62-.15-2.16,0-4.8,0-7.11.15a1.1,1.1,0,0,1-.14-1.68l1.44-.2c2.21-.28,2.21-.86,2.21-3.79l-.1-12.48V50.59h-.09c-3.56,7.68-7.4,15.7-10.56,23.81a1.57,1.57,0,0,1-1,.34,2.54,2.54,0,0,1-1.25-.29c-1.87-6-7.59-17.62-10.27-23.86h-.1c-.19,3.12-.29,5-.34,7.49,0,3.12-.09,7.92-.09,10.8,0,2.4.29,3.07,2.21,3.36l1.87.29a1.36,1.36,0,0,1-.1,1.68c-1.77-.1-3.84-.15-5.66-.15-1.54,0-3.51,0-5.43.15-.62-.19-.62-1.44-.19-1.68l.87-.15c2.44-.43,2.59-.72,2.88-3.69.24-2.35.48-6.53.76-11.09.2-3.22.34-7.11.34-9.7s-1.06-3.45-3-3.79Z" style="fill:#b92025"/><path d="M224.4,54.86c0,1.35,0,1.44,1.34,1.44h3.31c2.5,0,3.08-.33,3.56-2.64l.24-1.2c.33-.38,1.53-.38,1.77,0-.1,1.54-.14,3.27-.14,5.09s0,3.55.14,5.09a1.37,1.37,0,0,1-1.77.05l-.24-1.2c-.48-2.31-1.06-2.69-3.56-2.69h-3.31c-1.29,0-1.34,0-1.34,1.49v5.71c0,2.21.19,3.74.77,4.56s1.53,1.25,5,1.25c4.17,0,5.8-.15,8.44-5.57a1.17,1.17,0,0,1,1.78.24,27,27,0,0,1-2,7.68c-2.54-.1-7.15-.15-11.08-.15h-6.24c-2.31,0-4.66,0-8.26.15a1.38,1.38,0,0,1,0-1.68l2.26-.34c2.16-.33,2.44-.62,2.44-5V49.25c0-4.37-.28-4.66-2.44-5.09l-1.21-.24a1.21,1.21,0,0,1,.1-1.68c2.26.1,4.61.14,6.91.14h10.18c3.07,0,5.81,0,6.43-.14.05.77.39,4.22.63,7.44-.2.53-1.3.62-1.78.19a11,11,0,0,0-1.83-3.79c-.91-.91-2.35-1.49-4.7-1.49H226c-1.58,0-1.58.1-1.58,1.87Z" style="fill:#b92025"/><path d="M250.9,63.22c-1.15,0-1.29,0-1.58,1l-1.77,5.56a5.61,5.61,0,0,0-.34,1.73c0,.29.38.58,1.73.82l1.44.24c.29.33.38,1.44-.1,1.68-1.68-.1-3.6-.1-5.61-.15-1.64,0-2.74.15-4.95.15-.53-.29-.48-1.3-.14-1.68l1.29-.15c1.16-.14,2.12-.52,2.93-2.4s1.68-4.22,3-7.68l4.32-11.71c1.1-3,2-4.7,1.87-6.09,2.3-.53,4.08-2.89,4.18-2.89.62,0,.91.25,1.1,1,.38,1.39,1,3.16,2.16,6.57L266.94,68c1,2.88,1.44,4,3.21,4.27l1.83.29c.29.24.38,1.39-.05,1.68-2.3-.1-4.9-.15-7.39-.15s-4.27,0-6.48.15a1.09,1.09,0,0,1-.1-1.68l1.54-.24c1.1-.19,1.29-.53,1.29-.82a19.71,19.71,0,0,0-.91-3.26l-1.29-4.13c-.24-.77-.63-.86-2.31-.86ZM256,60.67c1.11,0,1.35-.14,1-1.39l-1.25-3.89c-.67-2.06-1.29-4-1.72-5-.48,1.06-1.25,3.07-2,5.28l-1.2,3.6c-.43,1.3-.19,1.44,1,1.44Z" style="fill:#b92025"/><path d="M280.1,46c0-1.15,0-1.39-1.15-1.39h-3c-3.5,0-4.51,1.92-6,5.43a1.35,1.35,0,0,1-1.78-.44,58.9,58.9,0,0,0,1.59-8.16,1.16,1.16,0,0,1,.67-.24,1.06,1.06,0,0,1,.67.2c.24.81.38,1,4,1h17.86c3.17,0,3.89,0,4.32-1.05a1.14,1.14,0,0,1,.62-.15,1,1,0,0,1,.72.34,34.27,34.27,0,0,0-.72,8.25c-.24.44-1.53.53-1.77.15-.82-3.07-1.49-5.33-5.09-5.33h-2.88c-1.15,0-1.3.14-1.3,1.39V67.15c0,4.47.29,4.85,2.45,5.14l1.92.24a1.51,1.51,0,0,1,0,1.68c-3.12-.1-5.52-.15-7.68-.15s-4.8,0-8.16.15a1.38,1.38,0,0,1,0-1.68l2.16-.24c2.16-.24,2.45-.67,2.45-5.14Z" style="fill:#b92025"/><path d="M321.44,58.85c-2,0-2,0-2,1.39v6.91c0,4.47.29,4.9,2.45,5.18l1.53.2a1.35,1.35,0,0,1,0,1.68c-2.73-.1-5.13-.15-7.29-.15s-4.7,0-7.15.15a1.35,1.35,0,0,1,0-1.68l1.15-.15c2.21-.28,2.45-.76,2.45-5.23V49.29c0-4.46-.24-4.94-2.45-5.23L309,43.92a1.35,1.35,0,0,1,0-1.68c2.35.1,4.85.14,7.15.14s4.56,0,6.67-.14a1.35,1.35,0,0,1,0,1.68l-1,.14c-2.06.29-2.35.77-2.35,5.23v5.57c0,1.39.05,1.44,2,1.44h10c2,0,2,0,2-1.44V49.29c0-4.46-.24-4.84-2.45-5.18l-1.3-.19a1.38,1.38,0,0,1,0-1.68c2.64.1,5,.14,7.3.14s4.56,0,6.77-.14a1.38,1.38,0,0,1,0,1.68l-1,.14c-2.21.34-2.5.77-2.5,5.23V67.15c0,4.47.29,4.8,2.5,5.18l1.15.2a1.38,1.38,0,0,1,0,1.68c-2.4-.1-4.75-.15-7-.15q-3.6,0-7.05.15a1.35,1.35,0,0,1,0-1.68l1.05-.15c2.21-.28,2.45-.76,2.45-5.23V60.24c0-1.34,0-1.39-2-1.39Z" style="fill:#b92025"/><path d="M378.94,58.08c0,10.46-7,16.75-17.33,16.75C352,74.83,345,68.49,345,58.46c0-9.5,7.11-16.85,17.14-16.85S378.94,48.34,378.94,58.08ZM361.7,43.82c-5.9,0-9.07,5.52-9.07,13.54,0,5.86,2.07,15.26,9.89,15.26,6.29,0,8.74-6.14,8.74-13.92C371.26,50.49,367.66,43.82,361.7,43.82Z" style="fill:#b92025"/><path d="M383.15,49.29c0-4.46-.29-4.75-2.45-5.18l-1.2-.24a1.15,1.15,0,0,1,.1-1.63c2.3.1,4.7.14,7,.14s4.71,0,7-.14a1.28,1.28,0,0,1,0,1.63l-1.15.19c-2.16.39-2.45.77-2.45,5.23V60.38c0,5.62.63,11.81,7.92,11.81,6.15,0,8-5.37,8-11.95V54.43c0-3.89-.2-7.53-.72-8.78-.43-1-1.49-1.3-2.79-1.54l-1.29-.24a1.43,1.43,0,0,1,0-1.63c2.59.1,4.46.14,6.43.14,1.78,0,3.55,0,5.38-.14a1.46,1.46,0,0,1,0,1.63l-.87.19c-1.25.29-2.16.58-2.59,1.59-.53,1.25-.72,4.89-.72,8.78v5.38c0,4.51-.43,8.64-3.07,11.57-2.11,2.25-5.62,3.45-9.51,3.45-3.64,0-6.91-.57-9.5-2.69s-3.55-5.61-3.55-10.84Z" style="fill:#b92025"/><path d="M422.06,74.83A16.75,16.75,0,0,1,413.9,73c-.91-1.06-1.54-4.52-1.54-7.78a1.19,1.19,0,0,1,1.83-.14c1,3.12,4.18,7.53,8.26,7.53,3.55,0,5.18-2.44,5.18-4.84,0-3.89-3.65-6.2-6.53-7.64-3.46-1.72-7.25-4.6-7.25-9.36-.05-5.42,4.18-9.17,11.14-9.17a19.71,19.71,0,0,1,5.47.77,10.94,10.94,0,0,0,1.63.39,23.09,23.09,0,0,1,.87,6.86c-.24.58-1.44.63-1.88.14-.81-2.44-2.87-6-6.33-6-3.17,0-4.9,2.07-4.9,4.47,0,2.2,2,4.22,4.37,5.47l3.17,1.68c3,1.58,6.77,4.37,6.77,9.65C434.16,71,429.31,74.83,422.06,74.83Z" style="fill:#b92025"/><path d="M445.73,54.86c0,1.35,0,1.44,1.34,1.44h3.31c2.5,0,3.08-.33,3.55-2.64l.25-1.2c.33-.38,1.53-.38,1.77,0-.09,1.54-.14,3.27-.14,5.09s.05,3.55.14,5.09a1.37,1.37,0,0,1-1.77.05l-.25-1.2c-.47-2.31-1.05-2.69-3.55-2.69h-3.31c-1.29,0-1.34,0-1.34,1.49v5.71c0,2.21.19,3.74.77,4.56s1.53,1.25,5,1.25c4.17,0,5.8-.15,8.44-5.57a1.17,1.17,0,0,1,1.78.24,27,27,0,0,1-2,7.68c-2.54-.1-7.15-.15-11.09-.15h-6.24c-2.3,0-4.65,0-8.25.15a1.35,1.35,0,0,1,0-1.68l2.25-.34c2.16-.33,2.45-.62,2.45-5V49.25c0-4.37-.29-4.66-2.45-5.09l-1.2-.24a1.21,1.21,0,0,1,.1-1.68c2.26.1,4.61.14,6.91.14H452.4c3.07,0,5.81,0,6.43-.14.05.77.39,4.22.62,7.44-.19.53-1.29.62-1.77.19a11.19,11.19,0,0,0-1.82-3.79c-.92-.91-2.36-1.49-4.71-1.49h-3.84c-1.58,0-1.58.1-1.58,1.87Z" style="fill:#b92025"/></g></g></svg>