<svg xmlns="http://www.w3.org/2000/svg" viewBox="0 0 331.05 180.27"><title>settebl</title><g id="Layer_2" data-name="Layer 2"><g id="Layer_1-2" data-name="Layer 1"><path d="M89.2,135.57q13.49,0,18.71,5.86,2.58,3.1,2.58,5.58v.86q0,3.91-6.22,7.71c-1.4.73-2.12,1.1-2.18,1.1v.06a22.82,22.82,0,0,1,8,2.48q6.69,3.93,6.7,7.35v.87q0,3-4.88,6.62a31.73,31.73,0,0,1-9,4.14,50.84,50.84,0,0,1-12.88,2q-7.55,0-8.88-4.55-3.93-10-3.94-33.79v-1.14c0-.77.57-1.73,1.7-2.87a12.77,12.77,0,0,1,6.19-2.08A35.67,35.67,0,0,1,89.2,135.57ZM80.57,142c.1.7.27,1,.53,1a10.4,10.4,0,0,0,2.23-1.61,6.32,6.32,0,0,1,2.76-1.09,61.46,61.46,0,0,1,7.18-.64c.47,0,.71-.11.71-.22-.28-.36-2-.65-5.3-.87H86.92q-4.76,0-5.89,2A2.57,2.57,0,0,0,80.57,142ZM90,151.73v.69c0,.39,0,.87-.07,1.44s.12.77.12.86c2.51-1.37,3.77-3,3.77-4.83-.09-.65-.41-1-.94-1Q90,148.91,90,151.73Zm.45,4.59c0,.16.17.26.61.31a2.33,2.33,0,0,0,.53,0,3.42,3.42,0,0,0,2.62-1.72,2.36,2.36,0,0,1,.14-.32c0-.38-.08-.57-.32-.55a4.59,4.59,0,0,0-1.25.81,20.62,20.62,0,0,1-2.12,1.23C90.52,156.18,90.44,156.26,90.43,156.32Zm.84,7a5.5,5.5,0,0,0,1.64,3.51,2.92,2.92,0,0,0,1.6.57H95A2.44,2.44,0,0,0,97.56,166l.18-.47a2.5,2.5,0,0,0-1.06-1.73,8.23,8.23,0,0,0-2.58-1L92,162.44A.79.79,0,0,0,91.27,163.3Zm5.1,6c0,.2.23.35.7.47a3,3,0,0,0,.55.06A2.39,2.39,0,0,0,99.93,168s0-.13.07-.36c-.07-.46-.21-.69-.44-.69s-.54.28-1.11.83A14.58,14.58,0,0,1,96.53,169,.41.41,0,0,0,96.37,169.27Z" style="fill:#00c0f3"/><path d="M144.47,134.88h.76c1.67,0,3.6,1.22,5.77,3.68q3.88,5.49,3.88,5.69,10.05,15.52,10.06,30.38c0,1.79-.22,2.85-.64,3.17-.91,1.34-2.75,2-5.54,2h-.88a35.59,35.59,0,0,1-7.23-.92,4.55,4.55,0,0,1-2-2.42,20.38,20.38,0,0,1-1.17-5.82,14.8,14.8,0,0,1-.24-2.64,13.29,13.29,0,0,1-3.94.52h-.52a21.43,21.43,0,0,1-2.42,9.79,5.14,5.14,0,0,1-4.47,1.9H135a34.65,34.65,0,0,1-9.82-2.08,3.22,3.22,0,0,1-1.59-3v-.05a55.86,55.86,0,0,1,2-12.84,61,61,0,0,1,4.3-10.76,64,64,0,0,1,5.28-8.23,73,73,0,0,1,6.42-7.19A4.91,4.91,0,0,1,144.47,134.88Zm-16.53,33.47,0,.24h.07c.13,0,.75-1.84,1.88-5.53A66.69,66.69,0,0,1,134.29,153l2.07-3.34a59.32,59.32,0,0,1,4.12-5.52,13.35,13.35,0,0,1,3.87-3.62c.67-.44,1-.88,1-1.33a1.17,1.17,0,0,0-1.18-.74q-2.4,0-8.53,8.81a48.76,48.76,0,0,0-5.89,12A31.62,31.62,0,0,0,127.94,168.35Zm15.18-7.3v.35l.06.4c2.23-.38,3.35-.87,3.35-1.49a7.44,7.44,0,0,0,.12-1.16c-.16-2-.5-3-1-3a.51.51,0,0,0-.28-.06,4.36,4.36,0,0,0-1.84,2.65A8.17,8.17,0,0,0,143.12,161.05Zm2.43,2v.06c0,.37.45.6,1.36.69a4.52,4.52,0,0,0,1.94-.61,2,2,0,0,0,1-1.57c0-.7-.26-1-.76-1-.32,0-.7.27-1.14.82a2.72,2.72,0,0,1-1.56,1C145.82,162.57,145.53,162.78,145.55,163.07Z" style="fill:#f173ac"/><path d="M183.73,135.57q13.5,0,18.71,5.86c1.72,2.07,2.59,3.93,2.59,5.58v.86q0,3.91-6.23,7.71c-1.4.73-2.12,1.1-2.18,1.1v.06a22.76,22.76,0,0,1,8,2.48q6.7,3.93,6.7,7.35v.87q0,3-4.88,6.62a31.6,31.6,0,0,1-9,4.14,50.78,50.78,0,0,1-12.88,2q-7.55,0-8.87-4.55-3.94-10-3.95-33.79v-1.14c0-.77.57-1.73,1.7-2.87a12.81,12.81,0,0,1,6.19-2.08A35.83,35.83,0,0,1,183.73,135.57ZM175.1,142c.1.7.28,1,.53,1a10.4,10.4,0,0,0,2.23-1.61,6.32,6.32,0,0,1,2.76-1.09,61.68,61.68,0,0,1,7.18-.64c.47,0,.71-.11.71-.22-.27-.36-2-.65-5.29-.87h-1.77c-3.16,0-5.13.65-5.89,2A2.57,2.57,0,0,0,175.1,142Zm9.41,9.73v.69c0,.39,0,.87-.07,1.44s.12.77.12.86c2.51-1.37,3.77-3,3.77-4.83-.09-.65-.4-1-.94-1Q184.51,148.91,184.51,151.73Zm.45,4.59c0,.16.18.26.61.31a2.33,2.33,0,0,0,.53,0,3.42,3.42,0,0,0,2.62-1.72,2.36,2.36,0,0,1,.14-.32c0-.38-.08-.57-.31-.55a4.59,4.59,0,0,0-1.25.81,21.75,21.75,0,0,1-2.12,1.23A.63.63,0,0,0,185,156.32Zm.84,7a5.47,5.47,0,0,0,1.65,3.51,2.92,2.92,0,0,0,1.59.57h.53A2.46,2.46,0,0,0,192.1,166l.17-.47a2.5,2.5,0,0,0-1.06-1.73,8.13,8.13,0,0,0-2.58-1l-2.12-.27A.79.79,0,0,0,185.8,163.3Zm5.1,6c0,.2.24.35.71.47a3,3,0,0,0,.54.06,2.39,2.39,0,0,0,2.31-1.78s0-.13.07-.36c-.06-.46-.21-.69-.43-.69s-.55.28-1.12.83a13.94,13.94,0,0,1-1.92,1.22A.41.41,0,0,0,190.9,169.27Z" style="fill:#00c0f3"/><path d="M241.78,134.93q5.53.1,5.53.52,1.35.93,1.35,5.41V141a113.46,113.46,0,0,1-1.47,15.76,7.4,7.4,0,0,1-1.7,3.86,9.64,9.64,0,0,1-6.11,1.84v0a.68.68,0,0,1,.05.17c.12,2.35.18,4.36.18,6.06v1.31q-.2,9.1-.82,9.1a4,4,0,0,1-3.18,1.09,13.63,13.63,0,0,1-6.77-2.25c-1.72-1.19-2.59-2.26-2.59-3.21a12,12,0,0,1-.28-2.65q0-3.14.69-11.16-6.21-1.73-9.28-4.72a13.08,13.08,0,0,1-3.24-9A13.92,13.92,0,0,1,216,139.7a3.11,3.11,0,0,1,1.95-1,21.65,21.65,0,0,1,5.41-.52h.81a5.86,5.86,0,0,1,3.18,1.1,2.18,2.18,0,0,1,.77,1.54v.47a20.83,20.83,0,0,1-1,4.43,7.7,7.7,0,0,0-.12,1.38q0,3.57,4.3,3.57c1.37,0,2.05-.37,2.05-1.09q-.7-6.47-.71-8.81v-.69c.09-2.49.83-4,2.25-4.43A35.1,35.1,0,0,1,241.78,134.93Zm-24.34,9.16c.14,1.79.43,2.69.87,2.69v-.07a9.36,9.36,0,0,0,1.21-1.9q3.09-2.38,3.09-3.37v-.11c0-.48-.36-.77-1.09-.85h-.32q-2.62,0-3.64,2.88A4.6,4.6,0,0,0,217.44,144.09ZM231,153.35c0,.25.18.45.54.61a2.75,2.75,0,0,0,1.09.27h.51a3.14,3.14,0,0,0,2.23-1,3.35,3.35,0,0,0,1.13-2.38s0,0,0,0l-.09-.39a0,0,0,0,1,0,0c0-.51-.08-.76-.14-.76l.06-.08a2.44,2.44,0,0,1-.21-.38c-.2,0-.44.3-.73.91a7.59,7.59,0,0,1-1.42,1.73,9.86,9.86,0,0,1-2.65,1.19C231.12,153.08,231,153.21,231,153.35Zm5.42-11.6a6.12,6.12,0,0,0,2.63-1.18,4.7,4.7,0,0,1,2.93-.91c1.18,0,1.8-.43,1.85-1.25v0c0-.58-.47-.87-1.51-.89s-2.26-.07-3.7-.15-2.47.7-3.1,2.33C235.1,141.25,235.39,142,236.38,141.75Z" style="fill:#f173ac"/><path d="M8.32,95.36a25.73,25.73,0,0,0,5.22,5.2A27,27,0,0,0,30,105.83a24,24,0,0,0,9.42-1.78,21.55,21.55,0,0,0,7.14-4.81A21.13,21.13,0,0,0,51,92.11a24.26,24.26,0,0,0,1.58-8.75c0-4.76-1.25-8.53-3.72-11.32a30.77,30.77,0,0,0-9.27-7,110,110,0,0,0-12-5.11,61.35,61.35,0,0,1-12-5.82,31.13,31.13,0,0,1-9.27-8.91Q2.69,39.79,2.69,30.66A28.83,28.83,0,0,1,5.07,18.79,25.94,25.94,0,0,1,12,9.57a32.88,32.88,0,0,1,10.85-6A43.8,43.8,0,0,1,37.07,1.36,43.12,43.12,0,0,1,50.22,3.14a33.17,33.17,0,0,1,10.31,5.5,32,32,0,0,0-2.38,5.59,72,72,0,0,0-1.9,7.43h-1.9a41.56,41.56,0,0,0-2.15-4.73,18.11,18.11,0,0,0-3.64-4.73,20.37,20.37,0,0,0-5.47-3.63A17.81,17.81,0,0,0,35.48,7.1a23.28,23.28,0,0,0-8.15,1.38,19.63,19.63,0,0,0-6.49,4,17.19,17.19,0,0,0-4.28,6.12,19.62,19.62,0,0,0-1.51,7.75q0,7.29,3.73,11.47a31.24,31.24,0,0,0,9.27,7A91.76,91.76,0,0,0,40,50a68.85,68.85,0,0,1,12,5.5,30.47,30.47,0,0,1,9.27,8.37c2.47,3.41,3.72,8,3.72,13.64A35,35,0,0,1,62.34,91,31.58,31.58,0,0,1,54.74,102a34,34,0,0,1-12.2,7.29,49,49,0,0,1-16.4,2.55q-9.83,0-15.92-2.55A43.48,43.48,0,0,1,0,103.5a35.93,35.93,0,0,0,2-6.43c.37-1.91.71-4.37,1-7.36h1.9A30.55,30.55,0,0,0,8.32,95.36Z" style="fill:#f173ac"/><path d="M85.34,42.24q-.32-7.79-.69-15.58c3.73.17,7.45.31,11.14.43s7.4.18,11.14.18,7.42-.06,11.07-.18,7.34-.26,11.08-.43a17.77,17.77,0,0,0,0,7.31c-2.66-.17-5.08-.33-7.28-.49l-7-.48c-2.45-.17-5.12-.31-8-.43s-6.38-.19-10.45-.19c-.08,2.6-.19,5.07-.31,7.43s-.19,5-.19,8c0,3.17,0,6.25.06,9.26s.07,5.27.07,6.81c3.65,0,6.92,0,9.83-.12s5.55-.18,8-.3l6.66-.37q3-.18,5.78-.42a19.36,19.36,0,0,0-.37,3.77,18.76,18.76,0,0,0,.37,3.65c-2.16-.24-4.66-.45-7.52-.61s-5.73-.26-8.59-.3L102,69.08c-2.53,0-4.54,0-6,0,0,.72,0,1.52-.07,2.37s-.06,1.92-.06,3.22V86.68c0,4.62,0,8.44.06,11.44s.11,5.28.19,6.82h8.71q4.72,0,9.27-.19c3-.12,5.89-.29,8.58-.49a56,56,0,0,0,7-.9,8.19,8.19,0,0,0-.32,1.88c0,.69-.06,1.32-.06,1.89a10.94,10.94,0,0,0,.38,3.16c-3.73-.16-7.45-.24-11.14-.24H96c-3.74,0-7.51.08-11.33.24q.38-7.79.69-15.52T85.65,79V58.07Q85.65,50,85.34,42.24ZM122,0a4.87,4.87,0,0,1,2.68,1,3.3,3.3,0,0,1,1.43,2.92,4.34,4.34,0,0,1-1.49,3.47,29.22,29.22,0,0,1-3,2.25L103.32,21.06H98.09l18.3-18.14C118.37,1,120.24,0,122,0Z" style="fill:#f173ac"/><path d="M165.44,33c-2.16,0-2,0-4.36,0s-4.72.13-7.09.25-4.64.26-6.84.42-4.17.36-5.91.61a14.64,14.64,0,0,0,.62-3.89,16.73,16.73,0,0,0-.62-3.78q8.2.25,16,.43c5.23.12,8.15.18,13.63.18s8.39-.06,13.62-.18,10.57-.26,16.05-.43a16.38,16.38,0,0,0-.62,3.9,13.93,13.93,0,0,0,.62,3.77c-1.74-.25-3.71-.44-5.92-.61s-4.47-.3-6.84-.42-4.72-.2-7.08-.25-2.2,0-4.36,0Q176,45.53,176,58.19V79.13q0,8,.31,15.82t.68,15.34q-2.87-.24-6.09-.24t-6.1.24q.38-7.55.68-15.34t.31-15.82V58.19Q165.81,45.53,165.44,33Z" style="fill:#f173ac"/><path d="M235.5,33c-2.17,0-2,0-4.36,0s-4.74.13-7.1.25-4.65.26-6.84.42-4.17.36-5.91.61a14.64,14.64,0,0,0,.62-3.89,16.73,16.73,0,0,0-.62-3.78q8.21.25,16.05.43c5.23.12,8.16.18,13.62.18s8.4-.06,13.63-.18,10.57-.26,16-.43a16.91,16.91,0,0,0-.62,3.9,14.34,14.34,0,0,0,.62,3.77c-1.74-.25-3.71-.44-5.91-.61s-4.48-.3-6.84-.42-4.73-.2-7.1-.25-2.2,0-4.35,0q-.37,12.53-.37,25.19V79.13q0,8,.3,15.82t.69,15.34q-2.87-.24-6.1-.24t-6.1.24q.39-7.55.68-15.34t.32-15.82V58.19Q235.86,45.53,235.5,33Z" style="fill:#f173ac"/><path d="M286.69,42.24c-.21-5.19-.45-10.39-.69-15.58q5.6.25,11.14.43c3.68.12,7.4.18,11.13.18s7.42-.06,11.08-.18,7.34-.26,11.08-.43a17.32,17.32,0,0,0,0,7.31c-2.67-.17-5.09-.33-7.28-.49l-7-.48c-2.44-.17-5.12-.31-8-.43s-6.39-.19-10.45-.19c-.09,2.6-.19,5.07-.32,7.43s-.18,5-.18,8c0,3.17,0,6.25.06,9.26s.06,5.27.06,6.81c3.65,0,6.92,0,9.84-.12s5.55-.18,7.95-.3l6.66-.37q3-.18,5.79-.42a18.61,18.61,0,0,0-.38,3.77,18,18,0,0,0,.38,3.65c-2.16-.24-4.67-.45-7.53-.61s-5.73-.26-8.58-.3l-8.1-.13c-2.53,0-4.54,0-6,0,0,.72,0,1.52-.06,2.37s-.06,1.92-.06,3.22V86.68c0,4.62,0,8.44.06,11.44s.1,5.28.18,6.82h8.71c3.16,0,6.24-.06,9.28-.19s5.89-.29,8.58-.49a56.3,56.3,0,0,0,7-.9,8.77,8.77,0,0,0-.32,1.88q-.06,1-.06,1.89a10.6,10.6,0,0,0,.38,3.16q-5.61-.24-11.15-.24H297.32c-3.73,0-7.51.08-11.32.24.24-5.19.48-10.37.69-15.52S287,84.36,287,79V58.07Q287,50,286.69,42.24Z" style="fill:#f173ac"/></g></g></svg>