<svg xmlns="http://www.w3.org/2000/svg" viewBox="0 0 412.16 203.53"><title>settecl</title><g style="isolation:isolate"><g id="Layer_2" data-name="Layer 2"><g id="Layer_1-2" data-name="Layer 1"><path d="M10.34,121.34A32.69,32.69,0,0,0,25.81,132.8a33.51,33.51,0,0,0,11.46,1.88A29.32,29.32,0,0,0,49,132.39a26.89,26.89,0,0,0,8.88-6.11,26.53,26.53,0,0,0,5.62-9.1,31.12,31.12,0,0,0,2-11.09c0-6.07-1.57-10.86-4.65-14.42A37.56,37.56,0,0,0,49.3,82.79a140.88,140.88,0,0,0-14.87-6.52,74.75,74.75,0,0,1-14.91-7.38A39.13,39.13,0,0,1,8,57.54C4.91,52.93,3.34,46.75,3.34,39a38.08,38.08,0,0,1,3-15.1,33.2,33.2,0,0,1,8.58-11.73A40.93,40.93,0,0,1,28.4,4.46,53.39,53.39,0,0,1,46.15,1.72,53.12,53.12,0,0,1,62.52,4a41.09,41.09,0,0,1,12.81,7,41.38,41.38,0,0,0-3,7.11A96.67,96.67,0,0,0,70,27.57H67.66a60,60,0,0,0-2.67-6,23,23,0,0,0-4.52-6,25.33,25.33,0,0,0-6.82-4.61A21.57,21.57,0,0,0,44.16,9,27.7,27.7,0,0,0,34,10.79a25,25,0,0,0-8.1,5,22.74,22.74,0,0,0-5.32,7.8,26.07,26.07,0,0,0-1.87,9.89c0,6.14,1.53,11,4.64,14.57a39.39,39.39,0,0,0,11.54,9,112,112,0,0,0,14.88,6.52,86.32,86.32,0,0,1,14.91,7A38.71,38.71,0,0,1,76.24,81.22q4.61,6.51,4.61,17.34a45.63,45.63,0,0,1-3.27,17.19,39.91,39.91,0,0,1-9.44,14.1,42.91,42.91,0,0,1-15.21,9.28,60.17,60.17,0,0,1-20.41,3.23c-8.14,0-14.72-1.09-19.82-3.23A54.86,54.86,0,0,1,0,131.72a47.74,47.74,0,0,0,2.43-8.21c.49-2.43.91-5.54,1.32-9.37H6.1A40.44,40.44,0,0,0,10.34,121.34Z" style="fill:#231f20;fill-rule:evenodd"/><path d="M106.25,53.72l-.87-19.82,13.86.56c4.61.16,9.22.23,13.86.23s9.26-.07,13.83-.23l13.75-.56a24.41,24.41,0,0,0,0,9.33l-9-.64L143,42c-3-.22-6.41-.41-10-.56s-8-.22-13-.22l-.42,9.44c-.15,3-.22,6.4-.22,10.23l.07,11.76.08,8.69c4.57,0,8.61-.08,12.25-.15s6.93-.22,9.93-.41l8.27-.45,7.2-.56a25.68,25.68,0,0,0-.45,4.83,24.24,24.24,0,0,0,.45,4.64c-2.7-.33-5.81-.56-9.37-.78s-7.12-.34-10.68-.38L127,87.93l-7.53-.08-.08,3L119.32,95v15.32l.07,14.57.23,8.69h10.86c3.94,0,7.76-.07,11.54-.26s7.34-.33,10.68-.6a69,69,0,0,0,8.76-1.16,11.5,11.5,0,0,0-.37,2.4l-.08,2.4a14.94,14.94,0,0,0,.45,4c-4.64-.19-9.29-.3-13.86-.3H119.47c-4.65,0-9.33.11-14.09.3l.87-19.74c.22-6.55.37-13.23.37-20.08V73.88C106.62,67.05,106.47,60.35,106.25,53.72ZM151.87,0a5.84,5.84,0,0,1,3.3,1.23A4.21,4.21,0,0,1,157,4.94a5.71,5.71,0,0,1-1.84,4.43,39.66,39.66,0,0,1-3.75,2.88L128.61,26.78h-6.48L144.91,3.71C147.38,1.23,149.7,0,151.87,0Z" style="fill:#231f20;fill-rule:evenodd"/><path d="M206,42l-5.43,0-8.81.34-8.54.52c-2.73.23-5.2.49-7.34.79a19.73,19.73,0,0,0,.75-5,22.94,22.94,0,0,0-.75-4.83l20,.56c6.52.16,10.15.23,17,.23s10.45-.07,17-.23l20-.56a21.52,21.52,0,0,0-.74,5,17.88,17.88,0,0,0,.74,4.83c-2.17-.3-4.6-.56-7.37-.79l-8.51-.52L225,42l-5.43,0c-.34,10.64-.45,21.32-.45,32V100.7c0,6.82.11,13.52.37,20.12s.52,13.11.86,19.51c-2.4-.19-4.91-.3-7.6-.3s-5.21.11-7.61.3c.34-6.4.6-12.88.87-19.51s.37-13.3.37-20.12V74Q206.42,58,206,42Z" style="fill:#231f20;fill-rule:evenodd"/><path d="M293.18,42l-5.43,0-8.84.34-8.5.52c-2.74.23-5.17.49-7.35.79a19.73,19.73,0,0,0,.75-5,22.94,22.94,0,0,0-.75-4.83l20,.56c6.52.16,10.15.23,17,.23s10.45-.07,17-.23l20-.56a22.13,22.13,0,0,0-.79,5,18.15,18.15,0,0,0,.79,4.83c-2.17-.3-4.61-.56-7.34-.79l-8.54-.52L312.25,42l-5.43,0c-.34,10.64-.45,21.32-.45,32V100.7c0,6.82.11,13.52.38,20.12l.82,19.51c-2.36-.19-4.87-.3-7.57-.3s-5.21.11-7.61.3c.34-6.4.61-12.88.87-19.51s.41-13.3.41-20.12V74C293.67,63.31,293.48,52.63,293.18,42Z" style="fill:#231f20;fill-rule:evenodd"/><path d="M356.91,53.72c-.23-6.59-.53-13.19-.86-19.82l13.9.56c4.57.16,9.21.23,13.85.23s9.22-.07,13.79-.23l13.79-.56a24.41,24.41,0,0,0,0,9.33l-9.07-.64-8.69-.6c-3-.22-6.37-.41-10-.56s-8-.22-13-.22l-.38,9.44c-.15,3-.22,6.4-.22,10.23l.07,11.76.08,8.69c4.53,0,8.62-.08,12.25-.15s6.89-.22,9.89-.41l8.28-.45,7.23-.56a22.75,22.75,0,0,0-.49,4.83,21.46,21.46,0,0,0,.49,4.64c-2.7-.33-5.84-.56-9.37-.78s-7.15-.34-10.71-.38l-10-.14-7.53-.08-.08,3L370,95v15.32l.07,14.57c0,3.82.12,6.71.23,8.69h10.83c3.93,0,7.79-.07,11.57-.26s7.31-.33,10.68-.6a70,70,0,0,0,8.76-1.16,12.12,12.12,0,0,0-.41,2.4l-.07,2.4a13.35,13.35,0,0,0,.48,4c-4.68-.19-9.29-.3-13.89-.3h-28.1c-4.65,0-9.37.11-14.12.3.33-6.59.63-13.15.86-19.74s.41-13.23.41-20.08V73.88C357.32,67.05,357.17,60.35,356.91,53.72Z" style="fill:#231f20;fill-rule:evenodd"/><g style="mix-blend-mode:multiply"><path d="M37.79,169.23a15.46,15.46,0,0,0-1.39,5.3h-.64a11.79,11.79,0,0,0-10.65-5.83,11.8,11.8,0,0,0-10.17,5,18.67,18.67,0,0,0-3.16,11.19,18.33,18.33,0,0,0,3.37,11,11.68,11.68,0,0,0,9.9,5.14q5.94,0,11.72-5.35l.59.21a20.33,20.33,0,0,0-.59,4.39,26.36,26.36,0,0,1-12.84,3.26q-8.23,0-13.19-5.08T5.79,185.12q0-8.77,5.35-13.86,5.25-4.92,14.13-4.92A31.11,31.11,0,0,1,37.79,169.23Z" style="fill:#808285"/><path d="M105.11,185.07q0,10.11-6.91,14.88a21.64,21.64,0,0,1-12.63,3.53,23.8,23.8,0,0,1-8-1.07A17.17,17.17,0,0,1,69,195.67a19.05,19.05,0,0,1-3-10.71q0-8.67,5.51-13.75,5.3-4.92,14.07-4.92a21.64,21.64,0,0,1,12.63,3.53,15.78,15.78,0,0,1,6.64,11.08A28.5,28.5,0,0,1,105.11,185.07Zm-5.89-.21q0-7.06-3.21-11.4-3.65-4.82-10.49-4.82a12.84,12.84,0,0,0-8.08,2.41,13.84,13.84,0,0,0-4.76,7.23,22.08,22.08,0,0,0-.91,6.58q0,7.17,3.21,11.5,3.63,4.92,10.54,4.93T96,196.36Q99.22,192,99.22,184.86Z" style="fill:#808285"/><path d="M177,202.89a15.32,15.32,0,0,0-2.94-.43c-.08,0-1.11.15-3.11.43a140.69,140.69,0,0,0-1.28-17.77l-1.18-9L161,190.85a99.61,99.61,0,0,0-5.29,12h-1.34q-6.69-14-13.43-26.38l-1.5,14.55q-.37,3.85-.54,5.89-.21,3.11-.21,5.94l-2.25-.27a7.58,7.58,0,0,0-2.14.27q3.42-16.59,4.49-25.15a96.19,96.19,0,0,0,.7-11.45h2l3.27,6.58c.64,1.29,1.76,3.48,3.35,6.59q1,2.08,3.44,6.63l4.72,8.56q1.71-3.21,4.91-9.37,4.75-9.19,9.53-19h2q1.29,13.16,2.68,24.4Q176,195.4,177,202.89Z" style="fill:#808285"/><path d="M228.39,170.68a38,38,0,0,0-8.77-.91h-5v12.79H220a56.23,56.23,0,0,0,7.25-.54v3.43l-7.4-.38h-5.23v5.62q0,2,.22,6.1t.21,6.1a9.77,9.77,0,0,1-1.52-.16,10,10,0,0,0-1.53-.16,10.44,10.44,0,0,0-1.55.16,10.44,10.44,0,0,1-1.55.16c0-1.82,0-4.07.11-6.74.39-6,.58-9.72.58-11.19q0-9.9-.69-18l9.63.15,9.84-.15-.1,1.76Z" style="fill:#808285"/><path d="M296.73,185.07q0,10.11-6.91,14.88a21.61,21.61,0,0,1-12.62,3.53,23.86,23.86,0,0,1-8-1.07,17.17,17.17,0,0,1-8.61-6.74A19.05,19.05,0,0,1,257.56,185q0-8.67,5.51-13.75,5.3-4.92,14.07-4.92a21.64,21.64,0,0,1,12.63,3.53,15.78,15.78,0,0,1,6.64,11.08A28.5,28.5,0,0,1,296.73,185.07Zm-5.89-.21q0-7.06-3.21-11.4-3.64-4.82-10.49-4.82a12.84,12.84,0,0,0-8.08,2.41,13.84,13.84,0,0,0-4.76,7.23,22.08,22.08,0,0,0-.91,6.58q0,7.17,3.21,11.5,3.63,4.92,10.54,4.93t10.49-4.93Q290.84,192,290.84,184.86Z" style="fill:#808285"/><path d="M354.79,202.89l-2.84-.21-4.71.21a155.51,155.51,0,0,0-12.62-17.55h-1.24V191c0,1.32.07,3.3.19,5.94s.19,4.62.19,5.94a9.29,9.29,0,0,1-1.45-.16,9.2,9.2,0,0,0-1.44-.16,23.21,23.21,0,0,0-2.94.32q0-3.48.21-8.62.48-11.55.48-14.44,0-5.9-.69-12.84h11.55a14.47,14.47,0,0,1,7.75,1.81,7,7,0,0,1,3.76,6.45q0,6.84-10.22,9.45l7,9.12Q350.61,197.62,354.79,202.89ZM345.69,176a5.81,5.81,0,0,0-2.69-5.23,10,10,0,0,0-6.12-1.59l-3.28.16c-.11,1-.18,2.33-.22,3.91v10.22Q345.69,183.47,345.69,176Z" style="fill:#808285"/><path d="M406.37,170.73a45.46,45.46,0,0,0-7.93-.86h-2.93c0,.68,0,1.82-.11,3.43l-.16,2.57.16,18.51q.06,4.13.54,8.51l-3.05-.32a26.88,26.88,0,0,0-3.1.32c0-1,0-2.26.16-3.69q.42-4.92.42-6.32V176.56l-.16-6.69a91.86,91.86,0,0,0-10.8.7l.1-1.77-.1-1.81q2.23,0,6.72.18c3,.13,5.24.19,6.73.19s3.21,0,5-.11c4.52-.18,7.35-.26,8.49-.26a7.36,7.36,0,0,0-.21,1.87v.8A4,4,0,0,0,406.37,170.73Z" style="fill:#808285"/></g></g></g></g></svg>