<svg xmlns="http://www.w3.org/2000/svg" xmlns:xlink="http://www.w3.org/1999/xlink" viewBox="0 0 286.6 37"><defs><style>.cls-1{fill:none;}.cls-2{clip-path:url(#clip-path);}.cls-3{fill:#d91a32;}.cls-3,.cls-4,.cls-6{fill-rule:evenodd;}.cls-4{fill:#f37920;}.cls-5,.cls-6{fill:#4e131e;}</style><clipPath id="clip-path" transform="translate(-0.2 0)"><rect class="cls-1" width="287" height="37"/></clipPath></defs><title>sklavenitis</title><g id="Layer_2" data-name="Layer 2"><g id="Layer_1-2" data-name="Layer 1"><g class="cls-2"><path class="cls-3" d="M20.94,26.53a8,8,0,0,0,0-16.06,8,8,0,0,0,0,16.06" transform="translate(-0.2 0)"/><path class="cls-4" d="M20.93,0A18.37,18.37,0,0,0,2.83,18.5a19,19,0,0,0,1.81,8H16.06A9.49,9.49,0,0,1,20.94,9H41.67V0Z" transform="translate(-0.2 0)"/><path class="cls-4" d="M37.23,10.48H25.83A9.51,9.51,0,0,1,20.94,28H.2v9H20.93A18.37,18.37,0,0,0,39.05,18.5a18.67,18.67,0,0,0-1.82-8" transform="translate(-0.2 0)"/><rect class="cls-5" x="213.78" y="6.87" width="5.06" height="23.27"/><polygon class="cls-5" points="68.59 30.14 49.9 30.14 49.9 26.92 58.82 18.05 50.31 10.33 50.31 6.87 67.81 6.87 67.81 10.96 57.52 10.96 64.9 18.12 57.11 26.12 68.59 26.12 68.59 30.14"/><polygon class="cls-5" points="92.71 30.14 86.6 30.14 78.57 19.52 75.97 21.96 75.97 30.14 70.92 30.14 70.92 6.87 75.97 6.87 75.97 16.47 85.54 6.87 91.83 6.87 82.09 16.3 92.71 30.14"/><polygon class="cls-5" points="109.63 30.14 115.16 30.14 106.76 6.87 101.84 6.87 93.5 30.14 98.94 30.14 104.34 12.78 109.63 30.14"/><path class="cls-6" d="M131.94,21.47l-3.41-9.81,0-.11-3.42,9.92Zm8.27,8.67h-5.3l-1.64-4.79h-9.5l-1.67,4.79h-5.26l8.75-23.27h5.77Z" transform="translate(-0.2 0)"/><path class="cls-6" d="M153,15.88h-5.81v-5h5.74a5.87,5.87,0,0,1,2.5.42,2.09,2.09,0,0,1,1.16,2,2.17,2.17,0,0,1-1.16,2,5.24,5.24,0,0,1-2.43.49m-1.13,10.06h-4.68V19.87h5.95a5.22,5.22,0,0,1,3,.8A2.72,2.72,0,0,1,157.26,23a2.5,2.5,0,0,1-1.3,2.31,5.83,5.83,0,0,1-2.8.59Zm8,2.48A6.23,6.23,0,0,0,162.52,23a5.8,5.8,0,0,0-1-3.31,5.6,5.6,0,0,0-2.8-2.07,4.93,4.93,0,0,0,2.15-1.85,5.21,5.21,0,0,0,.75-2.8,5.25,5.25,0,0,0-2.32-4.68A9.31,9.31,0,0,0,154,6.86H142.37V30.13h11.17a10.36,10.36,0,0,0,6.32-1.71" transform="translate(-0.2 0)"/><polygon class="cls-5" points="184.26 30.14 165.8 30.14 165.8 6.87 183.61 6.87 183.61 10.95 170.79 10.95 170.79 15.88 182.55 15.88 182.55 19.87 170.79 19.87 170.79 25.84 184.26 25.84 184.26 30.14"/><polygon class="cls-5" points="203.33 30.14 208.55 30.14 208.55 6.87 203.6 6.87 203.6 22.87 193.59 6.87 188.36 6.87 188.36 30.14 193.35 30.14 193.35 14.17 203.33 30.14"/><polygon class="cls-5" points="234.52 11.06 241.76 11.06 241.76 6.87 222.18 6.87 222.18 11.06 229.43 11.06 229.43 30.14 234.52 30.14 234.52 11.06"/><polygon class="cls-5" points="265.18 30.14 260.12 30.14 260.12 19.79 250 19.79 250 30.14 244.98 30.14 244.98 6.87 250 6.87 250 15.53 260.12 15.53 260.12 6.87 265.17 6.87 265.17 30.14 265.18 30.14"/><polygon class="cls-5" points="267.87 30.14 286.6 30.14 286.6 26.12 275.12 26.12 282.87 18.12 275.52 10.96 285.81 10.96 285.81 6.87 268.32 6.87 268.32 10.33 276.79 18.05 267.87 26.92 267.87 30.14 267.87 30.14"/></g></g></g></svg>