<svg xmlns="http://www.w3.org/2000/svg" width="265.97" height="44.25" viewBox="0 0 265.97 44.25"><defs><style>.cls-1{fill:#d91a32;}.cls-2{fill:#f37920;}.cls-3{fill:#fff;}.cls-4{fill:#f90;stroke:#f90;stroke-miterlimit:10;stroke-width:0.5px;}</style></defs><title>Asset 1</title><g id="Layer_2" data-name="Layer 2"><g id="Layer_1-2" data-name="Layer 1"><g id="Layer_2-2" data-name="Layer 2"><g id="Layer_1-2-2" data-name="Layer 1-2"><path class="cls-1" d="M22.94,28.74a8.7,8.7,0,1,0-8.74-8.66,8.83,8.83,0,0,0,8.74,8.66"/><path class="cls-2" d="M22.94,0a20,20,0,0,0-20,20v0a19.62,19.62,0,0,0,2,8.74h12.6a10.25,10.25,0,0,1,5.38-19H46V0Z"/><path class="cls-2" d="M41,11.34H28.4A10.15,10.15,0,0,1,33.28,20,10.3,10.3,0,0,1,23,30.25H0V40H22.94A20.18,20.18,0,0,0,43,19.92a19.49,19.49,0,0,0-2-8.58"/></g></g><path class="cls-3" d="M73.28,20.21H56.81V17.43l7.93-7.66L57.21,3.06V.21H72.67V3.74H63.58L70.09,9.9l-6.91,6.85h10.1Zm21.28,0H89.14l-7-9.15-2.31,2.1v7.05H75.31V.08h4.47V8.35L88.26.08h5.55l-8.6,8.13Zm19.86,0h-4.88l-4.68-15-4.74,15H95.24L102.56.08H107Zm22,0H131.7l-1.42-4.14h-8.41l-1.42,4.14h-4.68L123.5.08h5.15ZM129,12.75h0l-3.05-8.54-3,8.61h6ZM156.1,14h0a5.15,5.15,0,0,1-2.37,4.67,9.86,9.86,0,0,1-5.63,1.43h-9.83V0h10.24a8.82,8.82,0,0,1,4.74,1.15,4.69,4.69,0,0,1,2.1,4,4.32,4.32,0,0,1-2.57,4A5.79,5.79,0,0,1,155.29,11a6.16,6.16,0,0,1,.81,3M150.88,5.7h0a1.69,1.69,0,0,0-1-1.69,4.58,4.58,0,0,0-2.16-.41h-5.09V7.87h5.15a4.37,4.37,0,0,0,2.1-.47,1.93,1.93,0,0,0,1-1.7m.54,8.41h0a2.13,2.13,0,0,0-1-2,4.49,4.49,0,0,0-2.65-.67h-5.28v5.21h5.35a5.44,5.44,0,0,0,2.51-.54,2.19,2.19,0,0,0,1.08-2m24.06,6.1H159.15V.08h15.72V3.6H163.56V7.87h10.37v3.46H163.56v5.15h11.92Zm21.42,0h-4.61L183.41,6.38V20.21h-4.33V.08h4.67l8.88,13.82V.08H197V20.21Zm9.08,0h-4.47V.08H206ZM226.32,3.74H220V20.21h-4.48V3.74H209.1V.08h17.29V3.74Zm20.6,16.47h-4.47v-9h-8.88v9H229.1V.08h4.47V7.53h8.88V.08h4.47Zm18.91,0H249.36V17.43l7.93-7.66-7.45-6.71V.21h15.45V3.74h-9.08l6.5,6.16-6.84,6.85H266"/><path class="cls-4" d="M63.16,27.1V40.17H61.81V27.1h-5V25.92H68.17V27.1Z"/><path class="cls-4" d="M76,40.17v-2a3.32,3.32,0,0,1-1.39,1.72,4.33,4.33,0,0,1-2.29.59,5,5,0,0,1-1.94-.37A4,4,0,0,1,68.91,39,5,5,0,0,1,68,37.3a8.11,8.11,0,0,1,0-4.51,4.87,4.87,0,0,1,.94-1.71A4,4,0,0,1,70.37,30a4.56,4.56,0,0,1,1.91-.39,4.19,4.19,0,0,1,2.19.55,3.64,3.64,0,0,1,1.46,1.65V30h1.22V40.17Zm0-5.07a5,5,0,0,0-1-3.27,3.16,3.16,0,0,0-2.62-1.18,3.06,3.06,0,0,0-2.54,1.19A4.94,4.94,0,0,0,68.92,35a6.53,6.53,0,0,0,.24,1.85,4.25,4.25,0,0,0,.71,1.41,3.06,3.06,0,0,0,1.11.88,3.3,3.3,0,0,0,1.44.31A3.16,3.16,0,0,0,75,38.29,4.91,4.91,0,0,0,76,35.1Z"/><path class="cls-4" d="M91,40.17V30.93H85.3v9.24H84V29.88h8.18V40.17Z"/><path class="cls-4" d="M103.7,35.08a7,7,0,0,1-.33,2.21,5,5,0,0,1-.93,1.7A4,4,0,0,1,101,40.08a4.5,4.5,0,0,1-1.89.39,4.2,4.2,0,0,1-2.22-.55,3.5,3.5,0,0,1-1.41-1.65V44H94.25V34.93a7,7,0,0,1,.3-2.07,5,5,0,0,1,.9-1.7A4.24,4.24,0,0,1,96.94,30a5,5,0,0,1,2.12-.42A4.56,4.56,0,0,1,101,30a4,4,0,0,1,1.46,1.1,5,5,0,0,1,.94,1.73A7.3,7.3,0,0,1,103.7,35.08Zm-1.26,0a6.66,6.66,0,0,0-.24-1.86,4.25,4.25,0,0,0-.71-1.41,3.17,3.17,0,0,0-1.11-.89,3.37,3.37,0,0,0-1.47-.31,3.3,3.3,0,0,0-1.41.3,2.92,2.92,0,0,0-1.1.88,4.26,4.26,0,0,0-.72,1.41,6.28,6.28,0,0,0-.26,1.86,5,5,0,0,0,1,3.22A3.11,3.11,0,0,0,99,39.46a3.22,3.22,0,0,0,1.43-.31,3.14,3.14,0,0,0,1.1-.89,4.24,4.24,0,0,0,.71-1.39A6.2,6.2,0,0,0,102.44,35.08Z"/><path class="cls-4" d="M114.83,35.08a6.74,6.74,0,0,1-.34,2.23,4.88,4.88,0,0,1-1,1.71A4.18,4.18,0,0,1,112,40.1a5.36,5.36,0,0,1-2,.37,5.09,5.09,0,0,1-2-.39A4.27,4.27,0,0,1,106.38,39a4.65,4.65,0,0,1-1-1.71,6.88,6.88,0,0,1-.35-2.24,6.64,6.64,0,0,1,.36-2.25,4.81,4.81,0,0,1,1-1.71A4.36,4.36,0,0,1,108,30a5.09,5.09,0,0,1,2-.39,4.94,4.94,0,0,1,2,.39,4.2,4.2,0,0,1,1.53,1.09,4.75,4.75,0,0,1,1,1.72A7.09,7.09,0,0,1,114.83,35.08Zm-1.26,0a4.94,4.94,0,0,0-1-3.23,3.25,3.25,0,0,0-2.65-1.19,3.49,3.49,0,0,0-1.49.31,3.22,3.22,0,0,0-1.15.89,4.33,4.33,0,0,0-.73,1.38,6,6,0,0,0-.25,1.82,5,5,0,0,0,1,3.24A3.29,3.29,0,0,0,110,39.46a3.19,3.19,0,0,0,2.64-1.19A4.89,4.89,0,0,0,113.57,35.07Z"/><path class="cls-4" d="M114.85,28.45v-2h1.31v2Zm1.88,11.72V29.88H118V40.17Zm1.78-11.72v-2h1.26v2Z"/><path class="cls-4" d="M129.66,35.08a6.73,6.73,0,0,1-.35,2.23,4.86,4.86,0,0,1-1,1.71,4.18,4.18,0,0,1-1.53,1.08,5.44,5.44,0,0,1-2,.37,5.05,5.05,0,0,1-2-.39A4.19,4.19,0,0,1,121.21,39a4.81,4.81,0,0,1-1-1.71,7.48,7.48,0,0,1,0-4.49,5,5,0,0,1,1-1.71A4.19,4.19,0,0,1,122.78,30a5.4,5.4,0,0,1,4,0,4.2,4.2,0,0,1,1.53,1.09,4.73,4.73,0,0,1,1,1.72A7.09,7.09,0,0,1,129.66,35.08Zm-1.27,0a4.94,4.94,0,0,0-1-3.23,3.26,3.26,0,0,0-2.65-1.19,3.46,3.46,0,0,0-1.49.31,3.13,3.13,0,0,0-1.15.89,4.14,4.14,0,0,0-.73,1.38,6,6,0,0,0-.26,1.82,5,5,0,0,0,1,3.24,3.29,3.29,0,0,0,2.67,1.17,3.2,3.2,0,0,0,2.64-1.19A4.94,4.94,0,0,0,128.39,35.07ZM124,28.17h-1l2-2.83h1.54Z"/><path class="cls-4" d="M135.73,40.17h-1.34l-4-10.29h1.34L135.09,39l3.17-9.07h1.28Z"/><path class="cls-4" d="M143.82,30.89v9.28h-1.26V30.89h-2.83v-1h6.87v1Z"/><path class="cls-4" d="M155.82,40.17v-2a3.28,3.28,0,0,1-1.39,1.72,4.31,4.31,0,0,1-2.29.59,5,5,0,0,1-1.93-.37A4.08,4.08,0,0,1,148.73,39a4.83,4.83,0,0,1-.93-1.72,8.11,8.11,0,0,1,0-4.51,4.7,4.7,0,0,1,.93-1.71A4.15,4.15,0,0,1,150.2,30a4.51,4.51,0,0,1,1.9-.39,4.19,4.19,0,0,1,2.19.55,3.72,3.72,0,0,1,1.47,1.65V30H157V40.17Zm0-5.07a5.07,5.07,0,0,0-1-3.27,3.18,3.18,0,0,0-2.62-1.18,3.09,3.09,0,0,0-2.55,1.19,4.94,4.94,0,0,0-.94,3.17,6.18,6.18,0,0,0,.25,1.85,4.23,4.23,0,0,0,.7,1.41,3.09,3.09,0,0,0,1.12.88,3.24,3.24,0,0,0,1.44.31,3.18,3.18,0,0,0,2.6-1.17A5,5,0,0,0,155.8,35.1Z"/><path class="cls-4" d="M171,40.17v-2a5,5,0,0,1-1.2,1.67,2.86,2.86,0,0,1-1.94.62,3.08,3.08,0,0,1-1.7-.42A3.88,3.88,0,0,1,165,38.8V44h-1.18V29.88H165v5.91c0,.42,0,.78,0,1.08a4,4,0,0,0,.17.8,2.11,2.11,0,0,0,.33.61,3.84,3.84,0,0,0,.54.52,2.74,2.74,0,0,0,1.8.66,2.83,2.83,0,0,0,1.26-.28,3.07,3.07,0,0,0,1-.8,3.7,3.7,0,0,0,.65-1.23,5.23,5.23,0,0,0,.22-1.57v-5.7h1.18V40.17Z"/><path class="cls-4" d="M182.46,40.17v-2a3.32,3.32,0,0,1-1.39,1.72,4.33,4.33,0,0,1-2.29.59,5,5,0,0,1-1.94-.37A4,4,0,0,1,175.37,39a4.83,4.83,0,0,1-.93-1.72,8.11,8.11,0,0,1,0-4.51,4.7,4.7,0,0,1,.93-1.71A4,4,0,0,1,176.83,30a4.56,4.56,0,0,1,1.91-.39,4.19,4.19,0,0,1,2.19.55,3.64,3.64,0,0,1,1.46,1.65V30h1.23V40.17Zm0-5.07a5.07,5.07,0,0,0-.95-3.27,3.18,3.18,0,0,0-2.62-1.18,3.09,3.09,0,0,0-2.55,1.19,4.94,4.94,0,0,0-.94,3.17,6.53,6.53,0,0,0,.24,1.85,4.25,4.25,0,0,0,.71,1.41,3.14,3.14,0,0,0,1.11.88,3.31,3.31,0,0,0,1.45.31,3.18,3.18,0,0,0,2.6-1.17A5,5,0,0,0,182.44,35.1Z"/><path class="cls-4" d="M193.33,33.15a2.75,2.75,0,0,0-3-2.5,3.31,3.31,0,0,0-1.45.31,3.35,3.35,0,0,0-1.11.87,4,4,0,0,0-.71,1.34,6.09,6.09,0,0,0-.24,1.76,3.76,3.76,0,0,0,.85,2.64,4.09,4.09,0,0,0,2.53,1.17l1.56.23a3.6,3.6,0,0,1,1.74.67,1.93,1.93,0,0,1,.68,1.64,3.91,3.91,0,0,1-.2,1.13,7.25,7.25,0,0,1-.42,1.1h-1.2c.1-.33.22-.69.35-1.08a3.29,3.29,0,0,0,.2-1.1,1,1,0,0,0-.37-.86,3.19,3.19,0,0,0-1.41-.41l-1.13-.15a5.3,5.3,0,0,1-3.28-1.54A4.69,4.69,0,0,1,185.56,35a6.89,6.89,0,0,1,.34-2.19,5,5,0,0,1,1-1.7,4.22,4.22,0,0,1,1.52-1.1,4.75,4.75,0,0,1,2-.4,4.39,4.39,0,0,1,2.92.93,3.88,3.88,0,0,1,1.29,2.62Z"/></g></g></svg>