<svg xmlns="http://www.w3.org/2000/svg" viewBox="0 0 266 44.26"><defs><style>.cls-1{fill:#d91a32;}.cls-2{fill:#f37920;}.cls-3{fill:#6e1508;}.cls-4{fill:#f90;stroke:#f90;stroke-miterlimit:10;stroke-width:0.5px;}</style></defs><title>skllogo-black</title><g id="Layer_2" data-name="Layer 2"><g id="Layer_1-2" data-name="Layer 1"><g id="Layer_1-2-2" data-name="Layer 1-2"><g id="Layer_2-2" data-name="Layer 2-2"><g id="Layer_1-2-2-2" data-name="Layer 1-2-2"><path class="cls-1" d="M22.94,28.75a8.7,8.7,0,1,0-8.74-8.66,8.83,8.83,0,0,0,8.74,8.66"/><path class="cls-2" d="M22.94,0a20,20,0,0,0-20,20h0a19.61,19.61,0,0,0,2,8.74h12.6a10.25,10.25,0,0,1,5.38-19H46V0Z"/><path class="cls-2" d="M41,11.35H28.4A10.15,10.15,0,0,1,33.28,20,10.3,10.3,0,0,1,23,30.26H0V40H22.94A20.18,20.18,0,0,0,43,19.93a19.47,19.47,0,0,0-2-8.58"/></g></g><path class="cls-3" d="M73.28,20.22H56.81V17.44l7.93-7.66L57.21,3.07V.22H72.67V3.75H63.58l6.51,6.16-6.91,6.85h10.1Zm21.28,0H89.14l-7-9.15-2.31,2.1v7H75.31V.09h4.47V8.36L88.26.09h5.55l-8.6,8.13Zm19.86,0h-4.88l-4.68-15-4.74,15H95.24L102.56.09H107Zm22,0H131.7l-1.42-4.14h-8.41l-1.42,4.14h-4.68L123.5.09h5.15ZM129,12.76h0l-3-8.54-3,8.61h6ZM156.1,14h0a5.16,5.16,0,0,1-2.37,4.67,9.86,9.86,0,0,1-5.63,1.43h-9.83V0h10.24a8.82,8.82,0,0,1,4.74,1.15,4.67,4.67,0,0,1,2.1,4,4.32,4.32,0,0,1-2.57,4A5.7,5.7,0,0,1,155.29,11a6.19,6.19,0,0,1,.81,3m-5.22-8.3h0a1.69,1.69,0,0,0-1-1.69,4.6,4.6,0,0,0-2.16-.41h-5.09V7.88h5.15a4.37,4.37,0,0,0,2.1-.47,1.94,1.94,0,0,0,1-1.7m.54,8.41h0a2.14,2.14,0,0,0-1-2,4.42,4.42,0,0,0-2.65-.67h-5.28v5.21h5.35a5.44,5.44,0,0,0,2.51-.54,2.22,2.22,0,0,0,1.08-2m24.06,6.1H159.15V.09h15.72V3.61H163.56V7.88h10.37v3.46H163.56v5.15h11.92Zm21.42,0H192.3L183.41,6.39V20.22h-4.33V.09h4.67l8.88,13.82V.09H197V20.22Zm9.08,0h-4.47V.09H206ZM226.32,3.75H220V20.22h-4.48V3.75H209.1V.09h17.29V3.75Zm20.6,16.47h-4.47v-9h-8.88v9H229.1V.09h4.47V7.54h8.88V.09h4.47Zm18.91,0H249.36V17.44l7.93-7.66-7.45-6.71V.22h15.45V3.75h-9.08l6.5,6.16-6.84,6.85H266"/><path class="cls-4" d="M63.16,27.11V40.18H61.81V27.11h-5V25.93H68.17v1.18Z"/><path class="cls-4" d="M76,40.18v-2a3.32,3.32,0,0,1-1.39,1.72,4.37,4.37,0,0,1-2.29.59,5.19,5.19,0,0,1-1.94-.37A4,4,0,0,1,68.91,39a5,5,0,0,1-.91-1.7,8,8,0,0,1,0-4.51,4.7,4.7,0,0,1,.94-1.71A4,4,0,0,1,70.37,30a4.48,4.48,0,0,1,1.91-.39,4.2,4.2,0,0,1,2.19.55,3.55,3.55,0,0,1,1.46,1.65V30h1.22V40.18Zm0-5.07a5,5,0,0,0-1-3.27,3.16,3.16,0,0,0-2.62-1.18,3,3,0,0,0-2.54,1.19A5,5,0,0,0,68.92,35a6.44,6.44,0,0,0,.24,1.85,4.36,4.36,0,0,0,.71,1.41,3.17,3.17,0,0,0,1.11.88,3.39,3.39,0,0,0,1.44.31A3.18,3.18,0,0,0,75,38.3,4.9,4.9,0,0,0,76,35.11Z"/><path class="cls-4" d="M91,40.18V30.94H85.3v9.24H84V29.89h8.18V40.18Z"/><path class="cls-4" d="M103.7,35.09a6.93,6.93,0,0,1-.33,2.21,5,5,0,0,1-.93,1.7A4,4,0,0,1,101,40.09a4.54,4.54,0,0,1-1.89.39,4.28,4.28,0,0,1-2.22-.55,3.54,3.54,0,0,1-1.41-1.65V44H94.25V34.94a7.25,7.25,0,0,1,.3-2.07,5,5,0,0,1,.9-1.7A4.12,4.12,0,0,1,96.94,30a4.84,4.84,0,0,1,2.12-.42A4.49,4.49,0,0,1,101,30a4,4,0,0,1,1.46,1.1,5.11,5.11,0,0,1,.94,1.73A7.15,7.15,0,0,1,103.7,35.09Zm-1.26,0a6.46,6.46,0,0,0-.24-1.86,4.36,4.36,0,0,0-.71-1.41,3.19,3.19,0,0,0-1.11-.89,3.38,3.38,0,0,0-1.47-.31,3.25,3.25,0,0,0-1.41.3,2.94,2.94,0,0,0-1.1.88,4.19,4.19,0,0,0-.72,1.41,6.15,6.15,0,0,0-.26,1.86,5,5,0,0,0,1,3.22A3.14,3.14,0,0,0,99,39.47a3.24,3.24,0,0,0,1.43-.31,3.18,3.18,0,0,0,1.1-.89,4.36,4.36,0,0,0,.71-1.39A6.39,6.39,0,0,0,102.44,35.09Z"/><path class="cls-4" d="M114.83,35.09a6.79,6.79,0,0,1-.34,2.23,4.85,4.85,0,0,1-1,1.71A4.33,4.33,0,0,1,112,40.11a5.5,5.5,0,0,1-2,.37,5.24,5.24,0,0,1-2-.39A4.24,4.24,0,0,1,106.38,39a4.76,4.76,0,0,1-1-1.71,6.81,6.81,0,0,1-.35-2.24,6.59,6.59,0,0,1,.36-2.25,4.68,4.68,0,0,1,1-1.71A4.42,4.42,0,0,1,108,30a5.32,5.32,0,0,1,4,0,4.05,4.05,0,0,1,1.53,1.09,4.72,4.72,0,0,1,1,1.72A7.23,7.23,0,0,1,114.83,35.09Zm-1.26,0a4.93,4.93,0,0,0-1-3.23,3.27,3.27,0,0,0-2.65-1.19,3.5,3.5,0,0,0-1.49.31,3.13,3.13,0,0,0-1.15.89,4.46,4.46,0,0,0-.73,1.38,5.89,5.89,0,0,0-.25,1.82,5,5,0,0,0,1,3.24,3.29,3.29,0,0,0,2.7,1.16,3.2,3.2,0,0,0,2.64-1.19,4.9,4.9,0,0,0,.93-3.2Z"/><path class="cls-4" d="M114.85,28.46v-2h1.31v2Zm1.88,11.72V29.89H118V40.18Zm1.78-11.72v-2h1.26v2Z"/><path class="cls-4" d="M129.66,35.09a6.76,6.76,0,0,1-.35,2.23,4.85,4.85,0,0,1-1,1.71,4.14,4.14,0,0,1-1.53,1.08,5.5,5.5,0,0,1-2,.37,5.06,5.06,0,0,1-2-.39A4.29,4.29,0,0,1,121.21,39a4.85,4.85,0,0,1-1-1.71,7.48,7.48,0,0,1,0-4.49,5.17,5.17,0,0,1,1-1.71A4.2,4.2,0,0,1,122.78,30a5.42,5.42,0,0,1,4,0,4.05,4.05,0,0,1,1.53,1.09,4.72,4.72,0,0,1,1,1.72A7,7,0,0,1,129.66,35.09Zm-1.27,0a4.93,4.93,0,0,0-1-3.23,3.27,3.27,0,0,0-2.65-1.19,3.5,3.5,0,0,0-1.49.31,3,3,0,0,0-1.15.89,4.08,4.08,0,0,0-.73,1.38,5.89,5.89,0,0,0-.26,1.82,5,5,0,0,0,1,3.24,3.33,3.33,0,0,0,2.67,1.17,3.23,3.23,0,0,0,2.64-1.19,4.94,4.94,0,0,0,1-3.21ZM124,28.18h-1l2-2.83h1.54Z"/><path class="cls-4" d="M135.73,40.18h-1.34l-4-10.29h1.34L135.09,39l3.17-9.07h1.28Z"/><path class="cls-4" d="M143.82,30.9v9.28h-1.26V30.9h-2.83v-1h6.87v1Z"/><path class="cls-4" d="M155.82,40.18v-2a3.32,3.32,0,0,1-1.39,1.72,4.37,4.37,0,0,1-2.29.59,5.1,5.1,0,0,1-1.93-.37A4,4,0,0,1,148.73,39a5,5,0,0,1-.93-1.72,8,8,0,0,1,0-4.51,4.68,4.68,0,0,1,.93-1.71A4.16,4.16,0,0,1,150.2,30a4.46,4.46,0,0,1,1.9-.39,4.2,4.2,0,0,1,2.19.55,3.68,3.68,0,0,1,1.47,1.65V30H157V40.18Zm0-5.07a5,5,0,0,0-1-3.27,3.17,3.17,0,0,0-2.62-1.18,3.06,3.06,0,0,0-2.55,1.19,4.92,4.92,0,0,0-.94,3.17,6.12,6.12,0,0,0,.25,1.85,4.14,4.14,0,0,0,.7,1.41,3.11,3.11,0,0,0,1.12.88,3.25,3.25,0,0,0,1.44.31,3.18,3.18,0,0,0,2.6-1.17,5,5,0,0,0,1-3.19Z"/><path class="cls-4" d="M171,40.18v-2a5.08,5.08,0,0,1-1.2,1.67,2.84,2.84,0,0,1-1.94.62,3.05,3.05,0,0,1-1.7-.42A3.93,3.93,0,0,1,165,38.81V44h-1.18V29.89H165v7a4.38,4.38,0,0,0,.17.8,2.4,2.4,0,0,0,.33.61,3.8,3.8,0,0,0,.54.52,2.76,2.76,0,0,0,1.8.66,2.87,2.87,0,0,0,1.26-.28,3.13,3.13,0,0,0,1-.8,3.83,3.83,0,0,0,.65-1.23,5.23,5.23,0,0,0,.22-1.57v-5.7h1.18V40.18Z"/><path class="cls-4" d="M182.46,40.18v-2a3.32,3.32,0,0,1-1.39,1.72,4.37,4.37,0,0,1-2.29.59,5.19,5.19,0,0,1-1.94-.37A4,4,0,0,1,175.37,39a5,5,0,0,1-.93-1.72,8,8,0,0,1,0-4.51,4.68,4.68,0,0,1,.93-1.71A4,4,0,0,1,176.83,30a4.48,4.48,0,0,1,1.91-.39,4.2,4.2,0,0,1,2.19.55,3.55,3.55,0,0,1,1.46,1.65V30h1.23V40.18Zm0-5.07a5.09,5.09,0,0,0-1-3.27,3.17,3.17,0,0,0-2.62-1.18,3.06,3.06,0,0,0-2.55,1.19A4.92,4.92,0,0,0,175.4,35a6.44,6.44,0,0,0,.24,1.85,4.36,4.36,0,0,0,.71,1.41,3.18,3.18,0,0,0,2.56,1.19,3.18,3.18,0,0,0,2.6-1.17,5,5,0,0,0,.93-3.19Z"/><path class="cls-4" d="M193.33,33.16a2.74,2.74,0,0,0-3-2.5h0a3.29,3.29,0,0,0-1.45.31,3.26,3.26,0,0,0-1.11.87,4,4,0,0,0-.71,1.34,5.8,5.8,0,0,0-.24,1.76,3.78,3.78,0,0,0,.85,2.64,4.11,4.11,0,0,0,2.53,1.17l1.56.23a3.55,3.55,0,0,1,1.74.67,1.93,1.93,0,0,1,.68,1.64,4,4,0,0,1-.2,1.13,7.33,7.33,0,0,1-.42,1.1h-1.2c.1-.33.22-.69.35-1.08a3.19,3.19,0,0,0,.2-1.1,1,1,0,0,0-.37-.86,3,3,0,0,0-1.41-.41L190,39.92a5.31,5.31,0,0,1-3.28-1.54A4.68,4.68,0,0,1,185.56,35a6.73,6.73,0,0,1,.34-2.19,5,5,0,0,1,1-1.7,4.24,4.24,0,0,1,1.52-1.1,4.59,4.59,0,0,1,2-.4,4.4,4.4,0,0,1,2.92.93,3.88,3.88,0,0,1,1.29,2.62Z"/></g></g></g></svg>