<svg xmlns="http://www.w3.org/2000/svg" viewBox="0 0 61.52 16.07"><title>stampal</title><g id="Layer_2" data-name="Layer 2"><g id="Layer_1-2" data-name="Layer 1"><path d="M25.58,10.51a2.53,2.53,0,0,1-.92,2.09,3.86,3.86,0,0,1-2.5.74,6,6,0,0,1-2-.33,5.15,5.15,0,0,1-1.71-1l1-1.11a4.66,4.66,0,0,0,1.28.7,4.14,4.14,0,0,0,1.49.27,2.37,2.37,0,0,0,1.42-.37,1.15,1.15,0,0,0,.51-1,1.26,1.26,0,0,0-.31-.88,1.4,1.4,0,0,0-1-.44l-.62-.08L21.54,9a3.07,3.07,0,0,1-1.93-.92A2.66,2.66,0,0,1,19,6.27a3.06,3.06,0,0,1,.21-1.15,2.37,2.37,0,0,1,.63-.9,2.82,2.82,0,0,1,1-.59,3.93,3.93,0,0,1,1.34-.21,5,5,0,0,1,1.7.29,6.84,6.84,0,0,1,1.46.72l-.82,1.22a4.77,4.77,0,0,0-1.14-.54,3.89,3.89,0,0,0-1.27-.21,1.92,1.92,0,0,0-1.16.35,1.23,1.23,0,0,0-.47,1,1.16,1.16,0,0,0,.32.77,1.72,1.72,0,0,0,1.06.47l.47.07.63.09A3.25,3.25,0,0,1,24.1,8a2.59,2.59,0,0,1,1.32,1.5,2.9,2.9,0,0,1,.16,1"/><path d="M28.79,13.26a1.68,1.68,0,0,1-1.21-.45,1.61,1.61,0,0,1-.48-1.26V7.38h-.69V6.31h.69V4.2h1.4V6.31h1V7.38h-1v4a.56.56,0,0,0,.12.41.51.51,0,0,0,.38.11h.52v1.32Z"/><path d="M34.48,13.26v-.62h0a1.31,1.31,0,0,1-.61.53,2.91,2.91,0,0,1-1.1.17,3.07,3.07,0,0,1-1-.16,2.34,2.34,0,0,1-.77-.45,1.88,1.88,0,0,1-.48-.67,2.14,2.14,0,0,1-.17-.84,2.09,2.09,0,0,1,.15-.79,1.77,1.77,0,0,1,.42-.66,2,2,0,0,1,.71-.44,2.7,2.7,0,0,1,1-.17h1.93V8.43a.72.72,0,0,0-.34-.69,2.24,2.24,0,0,0-1.09-.2,2.34,2.34,0,0,0-.84.12,1,1,0,0,0-.47.42l-1.1-.84a2.26,2.26,0,0,1,1-.79A3.77,3.77,0,0,1,33,6.23a6.07,6.07,0,0,1,1.18.11,2.44,2.44,0,0,1,.91.39,1.79,1.79,0,0,1,.59.71,2.48,2.48,0,0,1,.21,1.08v4.74Zm0-2.95H32.81a1.52,1.52,0,0,0-.92.23.74.74,0,0,0-.29.61.77.77,0,0,0,.3.61,1.52,1.52,0,0,0,1,.26,5.25,5.25,0,0,0,.73,0,1,1,0,0,0,.48-.16.65.65,0,0,0,.26-.36,1.91,1.91,0,0,0,.09-.65Z"/><path d="M46.07,13.26V9.12A1.49,1.49,0,0,0,45.68,8a1.44,1.44,0,0,0-2,0,1.49,1.49,0,0,0-.39,1.1v4.14h-1.4V9.12A1.49,1.49,0,0,0,41.53,8a1.33,1.33,0,0,0-1-.39,1.35,1.35,0,0,0-1,.39,1.49,1.49,0,0,0-.39,1.1v4.14H37.77V6.31h1.39v.74h0A2.16,2.16,0,0,1,40,6.43a2.54,2.54,0,0,1,1-.2,2.19,2.19,0,0,1,1.16.26,4,4,0,0,1,.8.64,2.6,2.6,0,0,1,1-.69,3.3,3.3,0,0,1,1.23-.21,2.22,2.22,0,0,1,.83.16,2.29,2.29,0,0,1,.74.46,2.33,2.33,0,0,1,.54.75,2.44,2.44,0,0,1,.21,1v4.62Z"/><path d="M54.91,9.79c0,.42,0,.77,0,1.06a4.51,4.51,0,0,1-.08.72,2.27,2.27,0,0,1-.15.48,2.06,2.06,0,0,1-.24.39,2.52,2.52,0,0,1-.76.65,2.28,2.28,0,0,1-1.11.25,2.05,2.05,0,0,1-1-.22,3.88,3.88,0,0,1-.83-.6v3.55h-1.4V6.31h1.4V7a2.77,2.77,0,0,1,.79-.59,2.49,2.49,0,0,1,2.11,0,2.52,2.52,0,0,1,.76.65,1.73,1.73,0,0,1,.24.38,2.38,2.38,0,0,1,.15.49,4.51,4.51,0,0,1,.08.72c0,.29,0,.64,0,1.07m-1.4,0c0-.27,0-.54,0-.79a2.06,2.06,0,0,0-.17-.69,1.05,1.05,0,0,0-.41-.5,1.39,1.39,0,0,0-.77-.18,1.31,1.31,0,0,0-.77.19,1.23,1.23,0,0,0-.4.51,2.49,2.49,0,0,0-.17.69c0,.26,0,.51,0,.77s0,.5,0,.76a2.49,2.49,0,0,0,.17.69,1.14,1.14,0,0,0,.4.5,1.24,1.24,0,0,0,.77.2,1.39,1.39,0,0,0,.77-.18,1.08,1.08,0,0,0,.41-.49,2.06,2.06,0,0,0,.17-.69c0-.26,0-.52,0-.79"/><path d="M60.12,13.26v-.62h0a1.26,1.26,0,0,1-.61.53,2.91,2.91,0,0,1-1.1.17,3.07,3.07,0,0,1-1-.16,2.34,2.34,0,0,1-.77-.45,1.88,1.88,0,0,1-.48-.67,2.13,2.13,0,0,1-.16-.84,2.09,2.09,0,0,1,.14-.79,1.91,1.91,0,0,1,.42-.66,2,2,0,0,1,.71-.44,2.7,2.7,0,0,1,1-.17h1.93V8.43a.72.72,0,0,0-.34-.69,2.26,2.26,0,0,0-1.09-.2,2.24,2.24,0,0,0-.83.12,1.07,1.07,0,0,0-.48.42l-1.1-.84a2.26,2.26,0,0,1,1-.79,3.77,3.77,0,0,1,1.36-.22,6.07,6.07,0,0,1,1.18.11,2.44,2.44,0,0,1,.91.39,1.79,1.79,0,0,1,.59.71,2.34,2.34,0,0,1,.22,1.08v4.74Zm0-2.95H58.45a1.54,1.54,0,0,0-.92.23.74.74,0,0,0-.29.61.77.77,0,0,0,.3.61,1.52,1.52,0,0,0,1,.26,5.25,5.25,0,0,0,.73,0,.94.94,0,0,0,.48-.16.72.72,0,0,0,.27-.36,2.25,2.25,0,0,0,.08-.65Z"/><path d="M.56,15.05A.57.57,0,0,1,0,14.48V5.4A2.35,2.35,0,0,1,.8,3.63l0,0,4-3.09.06,0A3.43,3.43,0,0,1,8.71.67h0l4,2.92,0,0a2.37,2.37,0,0,1,.8,1.77v7.28A2.36,2.36,0,0,1,11.21,15H6.52a2.36,2.36,0,0,1-2.36-2.33c0-1.07,0-2.45,0-3.55,0-.64,0-1.2,0-1.57A1.91,1.91,0,0,1,5,6.07,2.37,2.37,0,0,1,8.82,7.92l0,4.74a.56.56,0,0,1-.56.56h0a.56.56,0,0,1-.56-.57l0-4.74a1.23,1.23,0,0,0-2-1,.76.76,0,0,0-.36.64c0,.38,0,.94,0,1.59,0,1.09,0,2.46,0,3.51a1.23,1.23,0,0,0,1.23,1.22h4.69a1.24,1.24,0,0,0,1.24-1.23V5.4a1.27,1.27,0,0,0-.4-.91l-4-2.9a2.29,2.29,0,0,0-2.54-.15l-4,3.05a1.2,1.2,0,0,0-.4.91v9.08a.58.58,0,0,1-.57.57" style="fill:#ed1c24"/></g></g></svg>