<svg xmlns="http://www.w3.org/2000/svg" viewBox="0 0 665.33 327.37"><title>tickitl</title><g id="Layer_2" data-name="Layer 2"><g id="Layer_1-2" data-name="Layer 1"><path d="M644.45,99.05c14.19,0,20.88-3.75,20.88-17.13,0-13.92-7.23-17.4-21.42-17.4H632.4V54.08c0-13.39-7-20.35-20.88-20.35-13.65,0-20.61,7-20.61,20.35V64.52c-11,1.34-18.74,5.35-18.74,17.13,0,12,8,15.8,18.74,16.87v64.25c0,35.33,8.83,56.75,47.11,56.75,14.46,0,22.22-7,22.22-20.08,0-13.38-7.76-20.07-22.22-20.07-5.08,0-5.62-5.36-5.62-16.6V99.05Z" style="fill:#fdc72d"/><path d="M529.06,0a23.83,23.83,0,0,0,0,47.65c13.66,0,24.1-10.44,24.1-23.82S542.72,0,529.06,0Z" style="fill:#fdc72d"/><path d="M529.6,63.71c-13.39,0-20.61,6.7-20.61,20.62V196.5c0,14.19,7.22,20.88,20.88,20.88,13.92,0,20.88-6.69,20.88-20.88V84.33C550.75,70.41,543.25,63.71,529.6,63.71Z" style="fill:#fdc72d"/><path d="M316.7,170.53a17.44,17.44,0,0,0-9.64,2.95A35.61,35.61,0,0,1,287,179.37c-18.48,0-33.74-17.14-33.74-38.82,0-23.83,14.46-39.36,33.2-39.36,10.17,0,20.61,4.56,28.64,4.56,11.78,0,19.55-7.5,19.55-19.55,0-8-6.43-15.52-15.26-19.54-11.25-5.09-23-6.16-33.2-6.16-40.42,0-74.69,31.59-74.69,79,0,45.78,32.93,80.58,75.23,80.58A69.07,69.07,0,0,0,325,208.55c6.43-4.82,11-10.45,11-18.48C336,179.1,325.8,170.53,316.7,170.53ZM167.05,64c-13.39,0-20.61,6.7-20.61,20.62V196.77c0,14.18,7.22,20.88,20.88,20.88,13.92,0,20.88-6.7,20.88-20.88V84.6C188.2,70.68,180.7,64,167.05,64ZM166.52.27a23.83,23.83,0,1,0,0,47.65c13.65,0,24.09-10.44,24.09-23.83S180.17.27,166.52.27ZM114,9.37H22.22C7.5,9.37,0,16.33,0,31.05,0,45,7.5,52.2,22.22,52.2H46.58V194.89c0,15.26,7.23,22.76,22,22.76,13.92,0,20.89-7.5,20.89-22.76V52.2H114c14.19,0,21.69-7.23,21.69-21.15C135.73,16.33,128.23,9.37,114,9.37ZM473,99.59c6.16-4.55,8.57-8.3,8.57-15.26,0-11.25-10.17-21.42-21.15-21.42A21.32,21.32,0,0,0,446.54,68l-52.2,44.17V22.22c0-13.92-6.69-20.88-20.62-20.88s-20.34,7-20.34,20.88V197c0,13.66,6.69,20.62,20.34,20.62,14.19,0,20.62-7,20.62-20.62V162.77c1.34-1.61,15.79-13.39,17.13-14.46l33.47,59.17a25.23,25.23,0,0,0,19.81,10.7c14.18,0,19.54-9.63,19.54-20.88,0-15.53-5.09-8.3-40.43-73.35Z" style="fill:#00aeef"/><path d="M113.93,277.22c0-4.3,2.08-6.46,6-6.46h19.59c3.94,0,5.81,1.8,5.81,5.74s-1.87,5.74-5.81,5.74H125.48v10.91h9.9c3.88,0,5.67,1.93,5.67,5.81s-1.79,5.74-5.67,5.74h-9.9v16.57c0,3.44-1.93,5.24-5.81,5.24s-5.74-1.8-5.74-5.24Z" style="fill:#fdc72d"/><path d="M195.15,305.77c0,11.34-6.52,21.38-18.65,21.38s-18.65-10.61-18.65-21.81,6.38-21,18.65-21S195.15,294.73,195.15,305.77Zm-26-.78c0,5,2.23,12.12,7.32,12.12s7.32-5.81,7.32-10.91-2.22-11.69-7.32-11.69S169.18,299.82,169.18,305Z" style="fill:#fdc72d"/><path d="M211.81,290.64c0-3.88,1.87-5.74,5.53-5.74,2.22,0,4.44,1.36,4.59,4.73,1.22-2.37,5.88-5.31,8.89-5.31,5.74,0,7.89,3.16,7.89,6.1a5.62,5.62,0,0,1-5.66,5.6,13.65,13.65,0,0,1-2.66-.22,9.42,9.42,0,0,0-1.65-.21c-2.72,0-5.88,2.22-5.88,5.38v20c0,3.66-1.72,5.53-5.52,5.53s-5.53-1.87-5.53-5.53Z" style="fill:#fdc72d"/><path d="M303,281c-2.94,0-4.81.94-4.81,4.09,0,3.52,4.38,4.59,8.83,6.75,8.68,4.23,14.85,8.17,14.85,17,0,11.62-8.54,18.51-19.59,18.51A23.79,23.79,0,0,1,289,323.42a6.44,6.44,0,0,1-3.3-5.66c0-3.81,1.87-5.53,5.6-5.53a8.44,8.44,0,0,1,4.23,1.22,13.23,13.23,0,0,0,6.74,2c3.95,0,7.39-2.08,7.39-6.17,0-2.44-1.93-4.09-7.67-6.74-7.25-3.38-15.86-7.47-15.86-17.15a16.69,16.69,0,0,1,16.93-16.29,20.64,20.64,0,0,1,12.49,4.16,6.84,6.84,0,0,1,3.22,5.6c0,2.94-2.36,6-5.66,6a6.84,6.84,0,0,1-4.52-1.8A9.16,9.16,0,0,0,303,281Z" style="fill:#fdc72d"/><path d="M347.72,305.85c0,5.81,4.09,10.4,9,10.4a9.53,9.53,0,0,0,5.38-1.58,4.71,4.71,0,0,1,2.58-.79,5.46,5.46,0,0,1,5.17,5.24c0,2.15-1.22,3.66-2.95,4.95a18.48,18.48,0,0,1-10.25,3.08c-11.34,0-20.16-9.32-20.16-21.59,0-12.7,9.18-21.16,20-21.16a21.42,21.42,0,0,1,8.9,1.64c2.37,1.08,4.09,3.09,4.09,5.24a4.9,4.9,0,0,1-5.24,5.24c-2.15,0-5-1.22-7.68-1.22C351.59,295.3,347.72,299.46,347.72,305.85Z" style="fill:#fdc72d"/><path d="M386,274.21c0-3.73,1.79-5.74,5.38-5.74,3.8,0,5.59,2,5.59,5.74v15.71c2.51-2.87,5.67-5.17,10-5.17,5.52,0,12.12,3.66,12.12,14.21v22c0,3.66-1.86,5.53-5.6,5.53-3.58,0-5.52-1.87-5.52-5.53V301c0-4.31-2.73-6.39-5.31-6.39-2.87,0-5.67,2.15-5.67,6.39v20c0,3.66-1.79,5.53-5.59,5.53-3.59,0-5.38-1.87-5.38-5.53Z" style="fill:#fdc72d"/><path d="M472.14,305.77c0,11.34-6.53,21.38-18.65,21.38s-18.66-10.61-18.66-21.81,6.39-21,18.66-21S472.14,294.73,472.14,305.77Zm-26-.78c0,5,2.22,12.12,7.32,12.12s7.31-5.81,7.31-10.91-2.22-11.69-7.31-11.69S446.17,299.82,446.17,305Z" style="fill:#fdc72d"/><path d="M525.67,305.77c0,11.34-6.53,21.38-18.65,21.38s-18.65-10.61-18.65-21.81,6.38-21,18.65-21S525.67,294.73,525.67,305.77Zm-26-.78c0,5,2.23,12.12,7.32,12.12s7.32-5.81,7.32-10.91-2.23-11.69-7.32-11.69S499.7,299.82,499.7,305Z" style="fill:#fdc72d"/><path d="M540.68,274.06c0-3.66,1.86-5.66,5.52-5.66s5.6,2,5.6,5.66v46.85c0,3.8-1.8,5.6-5.53,5.6s-5.59-1.8-5.59-5.6Z" style="fill:#fdc72d"/></g></g></svg>