<?xml version="1.0" encoding="utf-8"?>
<!-- Generator: Adobe Illustrator 25.2.1, SVG Export Plug-In . SVG Version: 6.00 Build 0)  -->
<svg version="1.1" id="Layer_1" xmlns="http://www.w3.org/2000/svg" xmlns:xlink="http://www.w3.org/1999/xlink" x="0px" y="0px"
	>
<style type="text/css">
	.st0{fill:#4E4E4E;}
</style>
<g>
	<path class="st0" d="M13,3.9H6c-0.6,0-1-0.4-1-1V1c0-0.6,0.4-1,1-1h7c0.6,0,1,0.4,1,1v1.9C14,3.5,13.6,3.9,13,3.9z"/>
	<rect x="7" y="3" class="st0" width="5" height="3"/>
	<path class="st0" d="M17.1,22H1.9C1.4,22,1,21.6,1,21V7c0-0.6,0.4-1,0.9-1h15.2C17.6,6,18,6.4,18,7v14C18,21.6,17.6,22,17.1,22z"/>
</g>
</svg>
