<!-- Generator: Adobe Illustrator 25.2.1, SVG Export Plug-In  -->
<svg version="1.1" xmlns="http://www.w3.org/2000/svg" xmlns:xlink="http://www.w3.org/1999/xlink" x="0px" y="0px" width="14px"
	 height="22px" viewBox="0 0 14 22" style="overflow:visible;enable-background:new 0 0 14 22;" xml:space="preserve">
<style type="text/css">
	.st0{fill-rule:evenodd;clip-rule:evenodd;fill:#4E4E4E;}
</style>
<defs>
</defs>
<g>
	<path class="st0" d="M3.3,0h7.3C11.4,0,12,0.7,12,1.4v1.7c0,0.8-0.6,1.4-1.3,1.9H3.3C2.6,4.5,2,3.9,2,3.1V1.4C2,0.7,2.6,0,3.3,0z"
		/>
	<path class="st0" d="M6.2,1h1.5C8.5,1,9,1.7,9,2.5v8.1C9,11.3,8.5,12,7.8,12H6.2C5.5,12,5,11.3,5,10.5V2.5C5,1.7,5.5,1,6.2,1z"/>
	<path class="st0" d="M1.4,7h11.2C13.3,7,14,7.6,14,8.3v12.4c0,0.8-0.7,1.4-1.4,1.3H1.4C0.7,22,0,21.4,0,20.7V8.3C0,7.6,0.7,7,1.4,7
		z"/>
</g>
</svg>
