<svg 
 xmlns="http://www.w3.org/2000/svg"
 xmlns:xlink="http://www.w3.org/1999/xlink"
 width="24" height="20">
<path fill-rule="evenodd"  fill="rgb(85, 85, 85)"
 d="M2.000,-0.000 C3.105,-0.000 4.000,0.895 4.000,2.000 C4.000,3.105 3.105,4.000 2.000,4.000 C0.895,4.000 -0.000,3.105 -0.000,2.000 C-0.000,0.895 0.895,-0.000 2.000,-0.000 Z"/>
<path fill-rule="evenodd"  fill="rgb(85, 85, 85)"
 d="M6.000,1.000 L24.000,1.000 L24.000,3.000 L6.000,3.000 L6.000,1.000 Z"/>
<path fill-rule="evenodd"  fill="rgb(85, 85, 85)"
 d="M6.000,9.000 L24.000,9.000 L24.000,11.000 L6.000,11.000 L6.000,9.000 Z"/>
<path fill-rule="evenodd"  fill="rgb(85, 85, 85)"
 d="M6.000,17.000 L24.000,17.000 L24.000,19.000 L6.000,19.000 L6.000,17.000 Z"/>
<path fill-rule="evenodd"  fill="rgb(85, 85, 85)"
 d="M2.000,8.000 C3.105,8.000 4.000,8.895 4.000,10.000 C4.000,11.105 3.105,12.000 2.000,12.000 C0.895,12.000 -0.000,11.105 -0.000,10.000 C-0.000,8.895 0.895,8.000 2.000,8.000 Z"/>
<path fill-rule="evenodd"  fill="rgb(85, 85, 85)"
 d="M2.000,16.000 C3.105,16.000 4.000,16.895 4.000,18.000 C4.000,19.105 3.105,20.000 2.000,20.000 C0.895,20.000 -0.000,19.105 -0.000,18.000 C-0.000,16.895 0.895,16.000 2.000,16.000 Z"/>
</svg>